<svg width="340" height="340" viewBox="0 0 340 340" fill="none" xmlns="http://www.w3.org/2000/svg">
<g filter="url(#filter0_i_18_1099)">
<path d="M201 65.9386C201 80.5741 183.091 85 161 85C138.909 85 121 80.5741 121 65.9386C121 51.3031 138.909 32 161 32C183.091 32 201 51.3031 201 65.9386Z" fill="#ACACAE"/>
</g>
<path d="M201 65.9386C201 80.5741 183.091 85 161 85C138.909 85 121 80.5741 121 65.9386C121 51.3031 138.909 32 161 32C183.091 32 201 51.3031 201 65.9386Z" stroke="#1F2024" stroke-width="8"/>
<path d="M170 44C171.647 44.4 175.765 46.4 177 48" stroke="white" stroke-width="8" stroke-linecap="round" stroke-linejoin="round"/>
<g filter="url(#filter1_ii_18_1099)">
<path fill-rule="evenodd" clip-rule="evenodd" d="M72 58C36.6538 58 8 86.6538 8 122V200C8 235.346 36.6538 264 72 264H97.5186C97.7151 264.428 97.8402 264.888 97.8773 265.37L100.027 293.231C100.67 301.565 107.621 308 115.98 308H136.354C144.713 308 151.663 301.565 152.306 293.231L154.122 269.692C154.283 267.609 156.021 266 158.111 266H165.056C167.146 266 168.883 267.609 169.044 269.692L170.86 293.231C171.503 301.565 178.454 308 186.813 308H207.187C215.546 308 222.497 301.565 223.14 293.231L224.956 269.692C225.117 267.609 226.854 266 228.944 266H237.402C239.388 266 241.073 267.457 241.36 269.421L244.999 294.315C246.148 302.174 252.888 308 260.831 308H274.836C282.778 308 289.518 302.174 290.667 294.315L294.822 265.896C295.017 264.564 295.882 263.439 297.046 262.763C304.194 258.607 309 250.865 309 242V122C309 86.6538 280.346 58 245 58H221H141H72Z" fill="#ACACAE"/>
</g>
<path d="M97.5186 264L101.153 262.329L100.082 260H97.5186V264ZM97.8773 265.37L93.8892 265.678L97.8773 265.37ZM100.027 293.231L104.015 292.923L100.027 293.231ZM152.306 293.231L148.318 292.923L152.306 293.231ZM154.122 269.692L158.111 270L154.122 269.692ZM169.044 269.692L165.056 270L169.044 269.692ZM170.86 293.231L174.849 292.923L170.86 293.231ZM223.14 293.231L219.151 292.923L223.14 293.231ZM224.956 269.692L228.944 270L224.956 269.692ZM241.36 269.421L245.318 268.843L245.318 268.843L241.36 269.421ZM244.999 294.315L248.957 293.736L244.999 294.315ZM290.667 294.315L294.625 294.893L290.667 294.315ZM294.822 265.896L298.78 266.475V266.475L294.822 265.896ZM297.046 262.763L299.056 266.221L299.056 266.221L297.046 262.763ZM12 122C12 88.8629 38.8629 62 72 62V54C34.4446 54 4 84.4446 4 122H12ZM12 200V122H4V200H12ZM72 260C38.8629 260 12 233.137 12 200H4C4 237.555 34.4446 268 72 268V260ZM97.5186 260H72V268H97.5186V260ZM93.8842 265.671C93.8867 265.676 93.8882 265.68 93.8891 265.683C93.8901 265.685 93.8904 265.687 93.8904 265.687C93.8904 265.687 93.8902 265.686 93.8899 265.684C93.8896 265.682 93.8894 265.68 93.8892 265.678L101.865 265.063C101.79 264.086 101.537 263.165 101.153 262.329L93.8842 265.671ZM93.8892 265.678L96.0389 293.539L104.015 292.923L101.865 265.063L93.8892 265.678ZM96.0389 293.539C96.8428 303.957 105.531 312 115.98 312V304C109.71 304 104.498 299.174 104.015 292.923L96.0389 293.539ZM115.98 312H136.354V304H115.98V312ZM136.354 312C146.803 312 155.491 303.957 156.294 293.539L148.318 292.923C147.836 299.174 142.623 304 136.354 304V312ZM156.294 293.539L158.111 270L150.134 269.385L148.318 292.923L156.294 293.539ZM158.111 270H158.111V262C153.931 262 150.456 265.217 150.134 269.385L158.111 270ZM158.111 270H165.056V262H158.111V270ZM165.056 270L173.032 269.385C172.711 265.217 169.236 262 165.056 262V270ZM165.056 270L166.872 293.539L174.849 292.923L173.032 269.385L165.056 270ZM166.872 293.539C167.676 303.957 176.364 312 186.813 312V304C180.544 304 175.331 299.174 174.849 292.923L166.872 293.539ZM186.813 312H207.187V304H186.813V312ZM207.187 312C217.636 312 226.324 303.957 227.128 293.539L219.151 292.923C218.669 299.174 213.456 304 207.187 304V312ZM227.128 293.539L228.944 270L220.968 269.385L219.151 292.923L227.128 293.539ZM228.944 270V262C224.764 262 221.289 265.217 220.968 269.385L228.944 270ZM228.944 270H237.402V262H228.944V270ZM237.402 270L237.402 270L245.318 268.843C244.743 264.913 241.373 262 237.402 262V270ZM237.402 270L241.041 294.893L248.957 293.736L245.318 268.843L237.402 270ZM241.041 294.893C242.477 304.717 250.903 312 260.831 312V304C254.874 304 249.819 299.63 248.957 293.736L241.041 294.893ZM260.831 312H274.836V304H260.831V312ZM274.836 312C284.764 312 293.189 304.717 294.625 294.893L286.71 293.736C285.848 299.63 280.793 304 274.836 304V312ZM294.625 294.893L298.78 266.475L290.864 265.317L286.71 293.736L294.625 294.893ZM298.78 266.475C298.777 266.497 298.772 266.483 298.808 266.432C298.849 266.376 298.929 266.295 299.056 266.221L295.035 259.305C292.991 260.493 291.263 262.593 290.864 265.318L298.78 266.475ZM299.056 266.221C307.386 261.378 313 252.347 313 242H305C305 249.382 301.003 255.835 295.035 259.305L299.056 266.221ZM313 242V122H305V242H313ZM313 122C313 84.4446 282.555 54 245 54V62C278.137 62 305 88.8629 305 122H313ZM245 54H221V62H245V54ZM221 54H141V62H221V54ZM72 62H141V54H72V62Z" fill="#1F2024"/>
<circle cx="50" cy="176" r="36" fill="#1F2024" fill-opacity="0.16"/>
<g filter="url(#filter2_i_18_1099)">
<circle cx="49" cy="165" r="36" fill="#E3E3E3"/>
</g>
<circle cx="49" cy="165" r="36" stroke="#1F2024" stroke-width="8"/>
<path d="M59 141C62.6403 142.938 65.7524 146.074 68 150" stroke="white" stroke-width="8" stroke-linecap="round" stroke-linejoin="round"/>
<g filter="url(#filter3_i_18_1099)">
<circle cx="29" cy="165" r="24" fill="#E3E3E3"/>
</g>
<circle cx="29" cy="165" r="24" stroke="#1F2024" stroke-width="8"/>
<path d="M30 155C32.0224 156.077 33.7513 157.819 35 160" stroke="white" stroke-width="8" stroke-linecap="round" stroke-linejoin="round"/>
<g filter="url(#filter4_ii_18_1099)">
<path fill-rule="evenodd" clip-rule="evenodd" d="M164 58C133.072 58 108 83.0721 108 114V242C108 250.389 112.304 257.772 118.824 262.063C119.965 262.814 120.772 264.008 120.877 265.37L123.027 293.231C123.67 301.565 130.621 308 138.98 308H159.354C167.713 308 174.663 301.565 175.306 293.231L177.123 269.692C177.283 267.609 179.021 266 181.111 266H188.056C190.146 266 191.883 267.609 192.044 269.692L193.86 293.231C194.503 301.565 201.454 308 209.813 308H230.187C238.546 308 245.497 301.565 246.14 293.231L247.956 269.692C248.117 267.609 249.854 266 251.944 266H260.402C262.388 266 264.073 267.457 264.36 269.421L267.999 294.315C269.148 302.174 275.888 308 283.831 308H297.836C305.778 308 312.518 302.174 313.667 294.315L317.822 265.896C318.017 264.564 318.882 263.439 320.046 262.763C327.194 258.607 332 250.865 332 242V122C332 86.6538 303.346 58 268 58H164Z" fill="#E3E3E3"/>
</g>
<path d="M123.027 293.231L127.015 292.923L123.027 293.231ZM175.306 293.231L171.318 292.923L175.306 293.231ZM193.86 293.231L197.849 292.923L193.86 293.231ZM246.14 293.231L242.151 292.923L246.14 293.231ZM267.999 294.315L271.957 293.736L267.999 294.315ZM313.667 294.315L309.71 293.736L313.667 294.315ZM264.36 269.421L268.318 268.843L264.36 269.421ZM118.824 262.063L121.022 258.721L118.824 262.063ZM120.877 265.37L124.865 265.063L120.877 265.37ZM247.956 269.692L243.968 269.385L247.956 269.692ZM317.822 265.896L321.78 266.475L317.822 265.896ZM320.046 262.763L322.056 266.221L320.046 262.763ZM192.044 269.692L196.032 269.385L192.044 269.692ZM177.123 269.692L173.134 269.385L177.123 269.692ZM112 114C112 85.2812 135.281 62 164 62V54C130.863 54 104 80.8629 104 114H112ZM112 242V114H104V242H112ZM121.022 258.721C115.579 255.139 112 248.987 112 242H104C104 251.791 109.028 260.405 116.625 265.404L121.022 258.721ZM127.015 292.923L124.865 265.063L116.889 265.678L119.039 293.539L127.015 292.923ZM138.98 304C132.71 304 127.498 299.174 127.015 292.923L119.039 293.539C119.843 303.957 128.531 312 138.98 312V304ZM159.354 304H138.98V312H159.354V304ZM171.318 292.923C170.836 299.174 165.623 304 159.354 304V312C169.803 312 178.491 303.957 179.294 293.539L171.318 292.923ZM173.134 269.385L171.318 292.923L179.294 293.539L181.111 270L173.134 269.385ZM188.056 262H181.111V270H188.056V262ZM197.849 292.923L196.032 269.385L188.056 270L189.872 293.539L197.849 292.923ZM209.813 304C203.544 304 198.331 299.174 197.849 292.923L189.872 293.539C190.676 303.957 199.364 312 209.813 312V304ZM230.187 304H209.813V312H230.187V304ZM242.151 292.923C241.669 299.174 236.456 304 230.187 304V312C240.636 312 249.324 303.957 250.128 293.539L242.151 292.923ZM243.968 269.385L242.151 292.923L250.128 293.539L251.944 270L243.968 269.385ZM260.402 262H251.944V270H260.402V262ZM260.402 270L264.041 294.893L271.957 293.736L268.318 268.843L260.402 270ZM264.041 294.893C265.477 304.717 273.903 312 283.831 312V304C277.874 304 272.819 299.63 271.957 293.736L264.041 294.893ZM283.831 312H297.836V304H283.831V312ZM297.836 312C307.764 312 316.189 304.717 317.625 294.893L309.71 293.736C308.848 299.63 303.793 304 297.836 304V312ZM317.625 294.893L321.78 266.475L313.864 265.317L309.71 293.736L317.625 294.893ZM328 242C328 249.382 324.003 255.835 318.035 259.305L322.056 266.221C330.386 261.378 336 252.347 336 242H328ZM328 122V242H336V122H328ZM268 62C301.137 62 328 88.8629 328 122H336C336 84.4446 305.555 54 268 54V62ZM164 62H268V54H164V62ZM260.402 270L268.318 268.843C267.743 264.913 264.373 262 260.402 262V270ZM116.625 265.404C116.75 265.486 116.826 265.574 116.863 265.633C116.897 265.686 116.891 265.7 116.889 265.678L124.865 265.063C124.651 262.276 123.027 260.04 121.022 258.721L116.625 265.404ZM251.944 270V262C247.764 262 244.289 265.217 243.968 269.385L251.944 270ZM321.78 266.475C321.777 266.497 321.772 266.483 321.808 266.432C321.849 266.376 321.929 266.295 322.056 266.221L318.035 259.305C315.991 260.493 314.263 262.593 313.864 265.317L321.78 266.475ZM188.056 270L196.032 269.385C195.711 265.217 192.236 262 188.056 262V270ZM181.111 270V262C176.931 262 173.456 265.217 173.134 269.385L181.111 270Z" fill="#1F2024"/>
<path d="M136 150C136 130.118 152.118 114 172 114H284C299.464 114 312 126.536 312 142V166C312 177.046 303.046 186 292 186H156C144.954 186 136 177.046 136 166V150Z" fill="#ACACAE" stroke="#1F2024" stroke-width="8"/>
<path d="M136 142C136 126.536 148.536 114 164 114H256C271.464 114 284 126.536 284 142V166C284 177.046 275.046 186 264 186H156C144.954 186 136 177.046 136 166V142Z" fill="#1F2024" stroke="#1F2024" stroke-width="8"/>
<rect x="173" y="142" width="90" height="16" rx="8" fill="#FE204F"/>
<path d="M197 230C197 215.088 209.088 203 224 203C238.912 203 251 215.088 251 230V232.571C251 237.779 246.779 242 241.571 242H206.429C201.221 242 197 237.779 197 232.571V230Z" fill="#ACACAE" stroke="#1F2024" stroke-width="8"/>
<mask id="path-16-inside-1_18_1099" fill="white">
<path fill-rule="evenodd" clip-rule="evenodd" d="M212.5 201.203C201.073 205.771 193 216.943 193 230V232.571C193 239.988 199.012 246 206.429 246H218.594C226 245.988 232 239.98 232 232.571V230C232 216.943 223.927 205.771 212.5 201.203Z"/>
</mask>
<path fill-rule="evenodd" clip-rule="evenodd" d="M212.5 201.203C201.073 205.771 193 216.943 193 230V232.571C193 239.988 199.012 246 206.429 246H218.594C226 245.988 232 239.98 232 232.571V230C232 216.943 223.927 205.771 212.5 201.203Z" fill="#1F2024"/>
<path d="M212.5 201.203L215.469 193.775L212.5 192.588L209.531 193.775L212.5 201.203ZM218.594 246V254L218.608 254L218.594 246ZM201 230C201 220.325 206.977 212.026 215.469 208.632L209.531 193.775C195.169 199.515 185 213.56 185 230H201ZM201 232.571V230H185V232.571H201ZM206.429 238C203.43 238 201 235.57 201 232.571H185C185 244.406 194.594 254 206.429 254V238ZM218.594 238H206.429V254H218.594V238ZM224 232.571C224 235.566 221.575 237.995 218.581 238L218.608 254C230.426 253.98 240 244.394 240 232.571H224ZM224 230V232.571H240V230H224ZM209.531 208.632C218.023 212.026 224 220.325 224 230H240C240 213.56 229.831 199.515 215.469 193.775L209.531 208.632Z" fill="#1F2024" mask="url(#path-16-inside-1_18_1099)"/>
<path d="M278 78C288.455 82.7069 293.636 86.6419 301 99" stroke="white" stroke-width="8" stroke-linecap="round"/>
<path d="M98.5 260.5H120.5L125 305L104.5 305.5L98.5 260.5Z" fill="#1F2024" fill-opacity="0.16"/>
<path d="M175 266H192L196 305L175.5 305.5L175 266Z" fill="#1F2024" fill-opacity="0.16"/>
<path d="M246 266H263L267 305L246.5 305.5L246 266Z" fill="#1F2024" fill-opacity="0.16"/>
<defs>
<filter id="filter0_i_18_1099" x="117" y="28" width="88" height="61" filterUnits="userSpaceOnUse" color-interpolation-filters="sRGB">
<feFlood flood-opacity="0" result="BackgroundImageFix"/>
<feBlend mode="normal" in="SourceGraphic" in2="BackgroundImageFix" result="shape"/>
<feColorMatrix in="SourceAlpha" type="matrix" values="0 0 0 0 0 0 0 0 0 0 0 0 0 0 0 0 0 0 127 0" result="hardAlpha"/>
<feOffset dx="-24" dy="8"/>
<feComposite in2="hardAlpha" operator="arithmetic" k2="-1" k3="1"/>
<feColorMatrix type="matrix" values="0 0 0 0 1 0 0 0 0 1 0 0 0 0 1 0 0 0 0.25 0"/>
<feBlend mode="normal" in2="shape" result="effect1_innerShadow_18_1099"/>
</filter>
<filter id="filter1_ii_18_1099" x="4" y="54" width="309" height="258" filterUnits="userSpaceOnUse" color-interpolation-filters="sRGB">
<feFlood flood-opacity="0" result="BackgroundImageFix"/>
<feBlend mode="normal" in="SourceGraphic" in2="BackgroundImageFix" result="shape"/>
<feColorMatrix in="SourceAlpha" type="matrix" values="0 0 0 0 0 0 0 0 0 0 0 0 0 0 0 0 0 0 127 0" result="hardAlpha"/>
<feOffset dy="-16"/>
<feComposite in2="hardAlpha" operator="arithmetic" k2="-1" k3="1"/>
<feColorMatrix type="matrix" values="0 0 0 0 0 0 0 0 0 0 0 0 0 0 0 0 0 0 0.3 0"/>
<feBlend mode="normal" in2="shape" result="effect1_innerShadow_18_1099"/>
<feColorMatrix in="SourceAlpha" type="matrix" values="0 0 0 0 0 0 0 0 0 0 0 0 0 0 0 0 0 0 127 0" result="hardAlpha"/>
<feOffset dy="16"/>
<feComposite in2="hardAlpha" operator="arithmetic" k2="-1" k3="1"/>
<feColorMatrix type="matrix" values="0 0 0 0 1 0 0 0 0 1 0 0 0 0 1 0 0 0 0.75 0"/>
<feBlend mode="normal" in2="effect1_innerShadow_18_1099" result="effect2_innerShadow_18_1099"/>
</filter>
<filter id="filter2_i_18_1099" x="9" y="125" width="80" height="80" filterUnits="userSpaceOnUse" color-interpolation-filters="sRGB">
<feFlood flood-opacity="0" result="BackgroundImageFix"/>
<feBlend mode="normal" in="SourceGraphic" in2="BackgroundImageFix" result="shape"/>
<feColorMatrix in="SourceAlpha" type="matrix" values="0 0 0 0 0 0 0 0 0 0 0 0 0 0 0 0 0 0 127 0" result="hardAlpha"/>
<feOffset dx="12" dy="-16"/>
<feComposite in2="hardAlpha" operator="arithmetic" k2="-1" k3="1"/>
<feColorMatrix type="matrix" values="0 0 0 0 0 0 0 0 0 0 0 0 0 0 0 0 0 0 0.25 0"/>
<feBlend mode="normal" in2="shape" result="effect1_innerShadow_18_1099"/>
</filter>
<filter id="filter3_i_18_1099" x="1" y="137" width="56" height="56" filterUnits="userSpaceOnUse" color-interpolation-filters="sRGB">
<feFlood flood-opacity="0" result="BackgroundImageFix"/>
<feBlend mode="normal" in="SourceGraphic" in2="BackgroundImageFix" result="shape"/>
<feColorMatrix in="SourceAlpha" type="matrix" values="0 0 0 0 0 0 0 0 0 0 0 0 0 0 0 0 0 0 127 0" result="hardAlpha"/>
<feOffset dx="12" dy="-8"/>
<feComposite in2="hardAlpha" operator="arithmetic" k2="-1" k3="1"/>
<feColorMatrix type="matrix" values="0 0 0 0 0 0 0 0 0 0 0 0 0 0 0 0 0 0 0.25 0"/>
<feBlend mode="normal" in2="shape" result="effect1_innerShadow_18_1099"/>
</filter>
<filter id="filter4_ii_18_1099" x="104" y="54" width="232" height="258" filterUnits="userSpaceOnUse" color-interpolation-filters="sRGB">
<feFlood flood-opacity="0" result="BackgroundImageFix"/>
<feBlend mode="normal" in="SourceGraphic" in2="BackgroundImageFix" result="shape"/>
<feColorMatrix in="SourceAlpha" type="matrix" values="0 0 0 0 0 0 0 0 0 0 0 0 0 0 0 0 0 0 127 0" result="hardAlpha"/>
<feOffset dx="12" dy="-8"/>
<feComposite in2="hardAlpha" operator="arithmetic" k2="-1" k3="1"/>
<feColorMatrix type="matrix" values="0 0 0 0 0 0 0 0 0 0 0 0 0 0 0 0 0 0 0.25 0"/>
<feBlend mode="normal" in2="shape" result="effect1_innerShadow_18_1099"/>
<feColorMatrix in="SourceAlpha" type="matrix" values="0 0 0 0 0 0 0 0 0 0 0 0 0 0 0 0 0 0 127 0" result="hardAlpha"/>
<feOffset dx="-16" dy="4"/>
<feComposite in2="hardAlpha" operator="arithmetic" k2="-1" k3="1"/>
<feColorMatrix type="matrix" values="0 0 0 0 1 0 0 0 0 1 0 0 0 0 1 0 0 0 1 0"/>
<feBlend mode="normal" in2="effect1_innerShadow_18_1099" result="effect2_innerShadow_18_1099"/>
</filter>
</defs>
</svg>
