<svg width="340" height="340" viewBox="0 0 340 340" fill="none" xmlns="http://www.w3.org/2000/svg">
<g clip-path="url(#clip0_45_665)">
<g filter="url(#filter0_ii_45_665)">
<path d="M8 151C8 137.745 18.7452 127 32 127H224C237.255 127 248 137.745 248 151V311C248 324.255 237.255 335 224 335H32C18.7452 335 8 324.255 8 311V151Z" fill="#E5B35D"/>
</g>
<path d="M8 151C8 137.745 18.7452 127 32 127H224C237.255 127 248 137.745 248 151V311C248 324.255 237.255 335 224 335H32C18.7452 335 8 324.255 8 311V151Z" stroke="#1F2024" stroke-width="8"/>
<g filter="url(#filter1_i_45_665)">
<path d="M108 151C108 137.745 118.745 127 132 127H308C321.255 127 332 137.745 332 151V311C332 324.255 321.255 335 308 335H132C118.745 335 108 324.255 108 311V151Z" fill="#F0D17A"/>
</g>
<path d="M108 151C108 137.745 118.745 127 132 127H308C321.255 127 332 137.745 332 151V311C332 324.255 321.255 335 308 335H132C118.745 335 108 324.255 108 311V151Z" stroke="#1F2024" stroke-width="8"/>
<path d="M236 131H274L218 331H180L236 131Z" fill="white" fill-opacity="0.5"/>
<path d="M221 131H227L171 331H165L221 131Z" fill="white" fill-opacity="0.5"/>
<g filter="url(#filter2_d_45_665)">
<rect x="8" y="179" width="113" height="6" rx="3" fill="#1F2024" stroke="#1F2024" stroke-width="8"/>
<path fill-rule="evenodd" clip-rule="evenodd" d="M218.58 195.855C218.58 228.387 205.18 244.871 178.688 244.871C143.734 244.871 131.26 221.442 131.26 199.475C131.26 193.992 129.766 193.261 127.752 192.373C124.9 191.103 124.681 182.852 124.96 178.798C124.991 178.345 125.345 177.979 125.794 177.907C163.508 171.879 182.317 171.424 206.762 176.436C212.679 177.65 215.437 181.128 216.92 186.03H240.136C241.65 181.128 244.467 177.65 250.511 176.436C275.481 171.423 294.693 171.879 333.222 177.909C333.671 177.98 334.027 178.345 334.059 178.799C334.344 182.853 334.12 191.103 331.207 192.373C329.15 193.261 327.624 193.992 327.624 199.475C327.624 221.442 314.883 244.871 279.183 244.871C252.126 244.871 238.44 228.387 238.44 195.855C238.619 194.129 238.811 192.475 239.057 190.908H217.976C218.217 192.475 218.406 194.129 218.58 195.855Z" fill="white" fill-opacity="0.9"/>
<path d="M218.58 195.855H225.58V195.501L225.545 195.15L218.58 195.855ZM127.752 192.373L124.903 198.768L124.916 198.773L124.928 198.779L127.752 192.373ZM124.96 178.798L117.976 178.318L124.96 178.798ZM125.794 177.907L126.899 184.819L126.899 184.819L125.794 177.907ZM206.762 176.436L208.168 169.579L206.762 176.436ZM216.92 186.03L210.219 188.056L211.723 193.03H216.92V186.03ZM240.136 186.03V193.03H245.301L246.825 188.096L240.136 186.03ZM250.511 176.436L251.889 183.299L250.511 176.436ZM333.222 177.909L334.304 170.993L334.304 170.993L333.222 177.909ZM334.059 178.799L327.076 179.289L327.076 179.289L334.059 178.799ZM331.207 192.373L333.981 198.8L333.993 198.795L334.006 198.79L331.207 192.373ZM238.44 195.855L231.477 195.135L231.44 195.494V195.855H238.44ZM239.057 190.908L245.972 191.996L247.245 183.908H239.057V190.908ZM217.976 190.908V183.908H209.815L211.058 191.974L217.976 190.908ZM178.688 251.871C193.464 251.871 205.682 247.202 213.999 236.98C222.095 227.029 225.58 212.909 225.58 195.855H211.58C211.58 211.333 208.365 221.721 203.139 228.145C198.132 234.298 190.405 237.871 178.688 237.871V251.871ZM124.26 199.475C124.26 211.681 127.717 224.816 136.586 235.006C145.611 245.375 159.525 251.871 178.688 251.871V237.871C162.898 237.871 153.098 232.653 147.147 225.815C141.04 218.799 138.26 209.236 138.26 199.475H124.26ZM124.928 198.779C125.183 198.891 125.297 198.943 125.375 198.982C125.441 199.014 125.396 198.997 125.297 198.931C125.189 198.86 125.025 198.739 124.842 198.559C124.656 198.376 124.493 198.175 124.362 197.969C124.099 197.557 124.086 197.326 124.132 197.557C124.183 197.81 124.26 198.39 124.26 199.475H138.26C138.26 196.354 137.887 193.137 136.161 190.433C134.27 187.474 131.49 186.371 130.575 185.968L124.928 198.779ZM117.976 178.318C117.814 180.671 117.787 184.251 118.247 187.586C118.474 189.232 118.864 191.16 119.598 192.947C120.242 194.513 121.704 197.342 124.903 198.768L130.6 185.979C132.374 186.769 132.739 188.09 132.548 187.626C132.448 187.382 132.265 186.755 132.116 185.673C131.823 183.552 131.826 180.979 131.943 179.279L117.976 178.318ZM124.689 170.995C121.221 171.549 118.244 174.417 117.976 178.318L131.943 179.279C131.737 182.273 129.469 184.408 126.899 184.819L124.689 170.995ZM208.168 169.579C182.557 164.328 162.807 164.902 124.689 170.995L126.899 184.819C164.208 178.856 182.077 178.52 205.355 183.294L208.168 169.579ZM223.62 184.005C222.672 180.868 221.151 177.63 218.483 174.93C215.753 172.167 212.27 170.42 208.168 169.579L205.355 183.294C207.17 183.666 208.025 184.265 208.525 184.77C209.086 185.338 209.685 186.29 210.219 188.056L223.62 184.005ZM216.92 193.03H240.136V179.03H216.92V193.03ZM246.825 188.096C247.365 186.346 247.972 185.397 248.552 184.822C249.077 184.302 249.985 183.682 251.889 183.299L249.133 169.573C244.994 170.404 241.471 172.13 238.698 174.877C235.98 177.57 234.421 180.812 233.448 183.965L246.825 188.096ZM251.889 183.299C275.716 178.516 294.007 178.857 332.14 184.825L334.304 170.993C295.379 164.901 275.246 164.331 249.133 169.573L251.889 183.299ZM332.14 184.825C329.567 184.422 327.287 182.291 327.076 179.289L341.042 178.309C340.767 174.4 337.775 171.537 334.304 170.993L332.14 184.825ZM327.076 179.289C327.195 180.983 327.198 183.545 326.901 185.653C326.749 186.729 326.565 187.344 326.467 187.578C326.285 188.012 326.659 186.72 328.408 185.957L334.006 198.79C337.211 197.391 338.706 194.592 339.376 192.995C340.13 191.198 340.531 189.259 340.764 187.607C341.235 184.259 341.208 180.669 341.042 178.309L327.076 179.289ZM328.434 185.946C327.514 186.343 324.704 187.43 322.781 190.377C321.008 193.095 320.624 196.339 320.624 199.475H334.624C334.624 198.397 334.702 197.827 334.752 197.585C334.796 197.368 334.779 197.609 334.507 198.026C334.372 198.233 334.207 198.432 334.021 198.611C333.839 198.786 333.677 198.902 333.575 198.968C333.481 199.029 333.443 199.043 333.516 199.008C333.6 198.967 333.721 198.913 333.981 198.8L328.434 185.946ZM320.624 199.475C320.624 209.2 317.798 218.742 311.559 225.76C305.463 232.618 295.396 237.871 279.183 237.871V251.871C298.671 251.871 312.824 245.41 322.023 235.061C331.08 224.873 334.624 211.717 334.624 199.475H320.624ZM279.183 237.871C267.135 237.871 259.181 234.265 254.049 228.089C248.715 221.67 245.44 211.306 245.44 195.855H231.44C231.44 212.936 235.008 227.08 243.282 237.036C251.757 247.235 264.175 251.871 279.183 251.871V237.871ZM245.403 196.574C245.577 194.893 245.754 193.381 245.972 191.996L232.142 189.82C231.867 191.568 231.66 193.366 231.477 195.135L245.403 196.574ZM239.057 183.908H217.976V197.908H239.057V183.908ZM225.545 195.15C225.366 193.382 225.163 191.587 224.894 189.843L211.058 191.974C211.271 193.362 211.446 194.877 211.616 196.559L225.545 195.15Z" fill="#1F2024"/>
<circle cx="184" cy="206" r="15" fill="#1F2024"/>
<circle cx="282" cy="206" r="15" fill="#1F2024"/>
<path d="M132.499 204.5C132.498 195.5 130.499 175.5 147.999 175.5" stroke="#1F2024" stroke-width="12" stroke-linecap="round"/>
<path d="M326.5 204.5C326.501 195.5 328.5 175.5 311 175.5" stroke="#1F2024" stroke-width="12" stroke-linecap="round"/>
</g>
<circle cx="50" cy="245" r="36" fill="#1F2024" fill-opacity="0.16"/>
<g filter="url(#filter3_i_45_665)">
<circle cx="49" cy="234" r="36" fill="#FE204F"/>
</g>
<circle cx="49" cy="234" r="36" stroke="#1F2024" stroke-width="8"/>
<path d="M59 210C62.6403 211.938 65.7524 215.074 68 219" stroke="white" stroke-width="8" stroke-linecap="round" stroke-linejoin="round"/>
<g filter="url(#filter4_i_45_665)">
<circle cx="29" cy="234" r="24" fill="#FF3979"/>
</g>
<circle cx="29" cy="234" r="24" stroke="#1F2024" stroke-width="8"/>
<path d="M216 274.5H241.5" stroke="#1F2024" stroke-width="20" stroke-linecap="round" stroke-linejoin="round"/>
<g filter="url(#filter5_ii_45_665)">
<rect x="54" y="86" width="233" height="41" rx="2" fill="#FE204F"/>
</g>
<rect x="54" y="86" width="233" height="41" rx="2" stroke="#1F2024" stroke-width="8"/>
<g filter="url(#filter6_ii_45_665)">
<rect x="79" y="53" width="183" height="33" rx="2" fill="#FE204F"/>
</g>
<rect x="79" y="53" width="183" height="33" rx="2" stroke="#1F2024" stroke-width="8"/>
<g filter="url(#filter7_ii_45_665)">
<rect x="97" y="27" width="147" height="26" rx="2" fill="#FE204F"/>
</g>
<rect x="97" y="27" width="147" height="26" rx="2" stroke="#1F2024" stroke-width="8"/>
<g filter="url(#filter8_ii_45_665)">
<rect x="123" y="3" width="95" height="24" rx="2" fill="#FE204F"/>
</g>
<rect x="123" y="3" width="95" height="24" rx="2" stroke="#1F2024" stroke-width="8"/>
</g>
<defs>
<filter id="filter0_ii_45_665" x="4" y="123" width="248" height="216" filterUnits="userSpaceOnUse" color-interpolation-filters="sRGB">
<feFlood flood-opacity="0" result="BackgroundImageFix"/>
<feBlend mode="normal" in="SourceGraphic" in2="BackgroundImageFix" result="shape"/>
<feColorMatrix in="SourceAlpha" type="matrix" values="0 0 0 0 0 0 0 0 0 0 0 0 0 0 0 0 0 0 127 0" result="hardAlpha"/>
<feOffset dy="-16"/>
<feComposite in2="hardAlpha" operator="arithmetic" k2="-1" k3="1"/>
<feColorMatrix type="matrix" values="0 0 0 0 0 0 0 0 0 0 0 0 0 0 0 0 0 0 0.25 0"/>
<feBlend mode="normal" in2="shape" result="effect1_innerShadow_45_665"/>
<feColorMatrix in="SourceAlpha" type="matrix" values="0 0 0 0 0 0 0 0 0 0 0 0 0 0 0 0 0 0 127 0" result="hardAlpha"/>
<feOffset dy="16"/>
<feComposite in2="hardAlpha" operator="arithmetic" k2="-1" k3="1"/>
<feColorMatrix type="matrix" values="0 0 0 0 1 0 0 0 0 1 0 0 0 0 1 0 0 0 0.25 0"/>
<feBlend mode="normal" in2="effect1_innerShadow_45_665" result="effect2_innerShadow_45_665"/>
</filter>
<filter id="filter1_i_45_665" x="104" y="123" width="232" height="216" filterUnits="userSpaceOnUse" color-interpolation-filters="sRGB">
<feFlood flood-opacity="0" result="BackgroundImageFix"/>
<feBlend mode="normal" in="SourceGraphic" in2="BackgroundImageFix" result="shape"/>
<feColorMatrix in="SourceAlpha" type="matrix" values="0 0 0 0 0 0 0 0 0 0 0 0 0 0 0 0 0 0 127 0" result="hardAlpha"/>
<feOffset dx="-24" dy="8"/>
<feComposite in2="hardAlpha" operator="arithmetic" k2="-1" k3="1"/>
<feColorMatrix type="matrix" values="0 0 0 0 1 0 0 0 0 1 0 0 0 0 1 0 0 0 0.25 0"/>
<feBlend mode="normal" in2="shape" result="effect1_innerShadow_45_665"/>
</filter>
<filter id="filter2_d_45_665" x="0" y="166" width="341.151" height="89.871" filterUnits="userSpaceOnUse" color-interpolation-filters="sRGB">
<feFlood flood-opacity="0" result="BackgroundImageFix"/>
<feColorMatrix in="SourceAlpha" type="matrix" values="0 0 0 0 0 0 0 0 0 0 0 0 0 0 0 0 0 0 127 0" result="hardAlpha"/>
<feOffset dx="-4" dy="4"/>
<feColorMatrix type="matrix" values="0 0 0 0 0 0 0 0 0 0 0 0 0 0 0 0 0 0 0.25 0"/>
<feBlend mode="normal" in2="BackgroundImageFix" result="effect1_dropShadow_45_665"/>
<feBlend mode="normal" in="SourceGraphic" in2="effect1_dropShadow_45_665" result="shape"/>
</filter>
<filter id="filter3_i_45_665" x="9" y="194" width="80" height="80" filterUnits="userSpaceOnUse" color-interpolation-filters="sRGB">
<feFlood flood-opacity="0" result="BackgroundImageFix"/>
<feBlend mode="normal" in="SourceGraphic" in2="BackgroundImageFix" result="shape"/>
<feColorMatrix in="SourceAlpha" type="matrix" values="0 0 0 0 0 0 0 0 0 0 0 0 0 0 0 0 0 0 127 0" result="hardAlpha"/>
<feOffset dx="12" dy="-8"/>
<feComposite in2="hardAlpha" operator="arithmetic" k2="-1" k3="1"/>
<feColorMatrix type="matrix" values="0 0 0 0 0 0 0 0 0 0 0 0 0 0 0 0 0 0 0.25 0"/>
<feBlend mode="normal" in2="shape" result="effect1_innerShadow_45_665"/>
</filter>
<filter id="filter4_i_45_665" x="1" y="206" width="56" height="56" filterUnits="userSpaceOnUse" color-interpolation-filters="sRGB">
<feFlood flood-opacity="0" result="BackgroundImageFix"/>
<feBlend mode="normal" in="SourceGraphic" in2="BackgroundImageFix" result="shape"/>
<feColorMatrix in="SourceAlpha" type="matrix" values="0 0 0 0 0 0 0 0 0 0 0 0 0 0 0 0 0 0 127 0" result="hardAlpha"/>
<feOffset dx="12" dy="-8"/>
<feComposite in2="hardAlpha" operator="arithmetic" k2="-1" k3="1"/>
<feColorMatrix type="matrix" values="0 0 0 0 0 0 0 0 0 0 0 0 0 0 0 0 0 0 0.25 0"/>
<feBlend mode="normal" in2="shape" result="effect1_innerShadow_45_665"/>
</filter>
<filter id="filter5_ii_45_665" x="50" y="82" width="241" height="49" filterUnits="userSpaceOnUse" color-interpolation-filters="sRGB">
<feFlood flood-opacity="0" result="BackgroundImageFix"/>
<feBlend mode="normal" in="SourceGraphic" in2="BackgroundImageFix" result="shape"/>
<feColorMatrix in="SourceAlpha" type="matrix" values="0 0 0 0 0 0 0 0 0 0 0 0 0 0 0 0 0 0 127 0" result="hardAlpha"/>
<feOffset dx="44"/>
<feComposite in2="hardAlpha" operator="arithmetic" k2="-1" k3="1"/>
<feColorMatrix type="matrix" values="0 0 0 0 0 0 0 0 0 0 0 0 0 0 0 0 0 0 0.25 0"/>
<feBlend mode="normal" in2="shape" result="effect1_innerShadow_45_665"/>
<feColorMatrix in="SourceAlpha" type="matrix" values="0 0 0 0 0 0 0 0 0 0 0 0 0 0 0 0 0 0 127 0" result="hardAlpha"/>
<feOffset dx="-36"/>
<feComposite in2="hardAlpha" operator="arithmetic" k2="-1" k3="1"/>
<feColorMatrix type="matrix" values="0 0 0 0 1 0 0 0 0 1 0 0 0 0 1 0 0 0 0.5 0"/>
<feBlend mode="normal" in2="effect1_innerShadow_45_665" result="effect2_innerShadow_45_665"/>
</filter>
<filter id="filter6_ii_45_665" x="75" y="49" width="191" height="41" filterUnits="userSpaceOnUse" color-interpolation-filters="sRGB">
<feFlood flood-opacity="0" result="BackgroundImageFix"/>
<feBlend mode="normal" in="SourceGraphic" in2="BackgroundImageFix" result="shape"/>
<feColorMatrix in="SourceAlpha" type="matrix" values="0 0 0 0 0 0 0 0 0 0 0 0 0 0 0 0 0 0 127 0" result="hardAlpha"/>
<feOffset dx="44"/>
<feComposite in2="hardAlpha" operator="arithmetic" k2="-1" k3="1"/>
<feColorMatrix type="matrix" values="0 0 0 0 0 0 0 0 0 0 0 0 0 0 0 0 0 0 0.25 0"/>
<feBlend mode="normal" in2="shape" result="effect1_innerShadow_45_665"/>
<feColorMatrix in="SourceAlpha" type="matrix" values="0 0 0 0 0 0 0 0 0 0 0 0 0 0 0 0 0 0 127 0" result="hardAlpha"/>
<feOffset dx="-36"/>
<feComposite in2="hardAlpha" operator="arithmetic" k2="-1" k3="1"/>
<feColorMatrix type="matrix" values="0 0 0 0 1 0 0 0 0 1 0 0 0 0 1 0 0 0 0.5 0"/>
<feBlend mode="normal" in2="effect1_innerShadow_45_665" result="effect2_innerShadow_45_665"/>
</filter>
<filter id="filter7_ii_45_665" x="93" y="23" width="155" height="34" filterUnits="userSpaceOnUse" color-interpolation-filters="sRGB">
<feFlood flood-opacity="0" result="BackgroundImageFix"/>
<feBlend mode="normal" in="SourceGraphic" in2="BackgroundImageFix" result="shape"/>
<feColorMatrix in="SourceAlpha" type="matrix" values="0 0 0 0 0 0 0 0 0 0 0 0 0 0 0 0 0 0 127 0" result="hardAlpha"/>
<feOffset dx="44"/>
<feComposite in2="hardAlpha" operator="arithmetic" k2="-1" k3="1"/>
<feColorMatrix type="matrix" values="0 0 0 0 0 0 0 0 0 0 0 0 0 0 0 0 0 0 0.25 0"/>
<feBlend mode="normal" in2="shape" result="effect1_innerShadow_45_665"/>
<feColorMatrix in="SourceAlpha" type="matrix" values="0 0 0 0 0 0 0 0 0 0 0 0 0 0 0 0 0 0 127 0" result="hardAlpha"/>
<feOffset dx="-36"/>
<feComposite in2="hardAlpha" operator="arithmetic" k2="-1" k3="1"/>
<feColorMatrix type="matrix" values="0 0 0 0 1 0 0 0 0 1 0 0 0 0 1 0 0 0 0.5 0"/>
<feBlend mode="normal" in2="effect1_innerShadow_45_665" result="effect2_innerShadow_45_665"/>
</filter>
<filter id="filter8_ii_45_665" x="119" y="-1" width="103" height="32" filterUnits="userSpaceOnUse" color-interpolation-filters="sRGB">
<feFlood flood-opacity="0" result="BackgroundImageFix"/>
<feBlend mode="normal" in="SourceGraphic" in2="BackgroundImageFix" result="shape"/>
<feColorMatrix in="SourceAlpha" type="matrix" values="0 0 0 0 0 0 0 0 0 0 0 0 0 0 0 0 0 0 127 0" result="hardAlpha"/>
<feOffset dx="44"/>
<feComposite in2="hardAlpha" operator="arithmetic" k2="-1" k3="1"/>
<feColorMatrix type="matrix" values="0 0 0 0 0 0 0 0 0 0 0 0 0 0 0 0 0 0 0.25 0"/>
<feBlend mode="normal" in2="shape" result="effect1_innerShadow_45_665"/>
<feColorMatrix in="SourceAlpha" type="matrix" values="0 0 0 0 0 0 0 0 0 0 0 0 0 0 0 0 0 0 127 0" result="hardAlpha"/>
<feOffset dx="-36"/>
<feComposite in2="hardAlpha" operator="arithmetic" k2="-1" k3="1"/>
<feColorMatrix type="matrix" values="0 0 0 0 1 0 0 0 0 1 0 0 0 0 1 0 0 0 0.5 0"/>
<feBlend mode="normal" in2="effect1_innerShadow_45_665" result="effect2_innerShadow_45_665"/>
</filter>
<clipPath id="clip0_45_665">
<rect width="340" height="340" fill="white"/>
</clipPath>
</defs>
</svg>
