<svg width="340" height="340" viewBox="0 0 340 340" fill="none" xmlns="http://www.w3.org/2000/svg">
<g clip-path="url(#clip0_18_1100)">
<g filter="url(#filter0_i_18_1100)">
<path d="M87.9427 107.339C53.7755 113.789 53.0394 72.0454 57.0859 44.2497C57.2426 43.1737 55.7649 42.6911 55.1851 43.6109C-42.1921 198.103 57.5888 331 183.288 331C309.057 331 382.935 216.612 290.727 46.2577C290.21 45.3025 288.668 45.6944 288.72 46.7794C290.115 76.1271 276.982 99.8573 249.075 92.2255C209.938 81.5229 250.475 24.1551 188.512 6.54046C187.72 6.31533 186.971 7.09292 187.264 7.86242C197.82 35.6017 191.256 60.9982 158.296 64.9048C125.456 68.797 117.061 44.719 125.223 15.7662C125.463 14.9147 124.543 14.1979 123.776 14.6402C82.4173 38.5124 124.823 100.377 87.9427 107.339Z" fill="#4795E0"/>
</g>
<path d="M87.9427 107.339C53.7755 113.789 53.0394 72.0454 57.0859 44.2497C57.2426 43.1737 55.7649 42.6911 55.1851 43.6109C-42.1921 198.103 57.5888 331 183.288 331C309.057 331 382.935 216.612 290.727 46.2577C290.21 45.3025 288.668 45.6944 288.72 46.7794C290.115 76.1271 276.982 99.8573 249.075 92.2255C209.938 81.5229 250.475 24.1551 188.512 6.54046C187.72 6.31533 186.971 7.09292 187.264 7.86242C197.82 35.6017 191.256 60.9982 158.296 64.9048C125.456 68.797 117.061 44.719 125.223 15.7662C125.463 14.9147 124.543 14.1979 123.776 14.6402C82.4173 38.5124 124.823 100.377 87.9427 107.339Z" stroke="#1F2024" stroke-width="8" stroke-linejoin="round"/>
<path d="M150.148 84.4027C168.748 148.841 79.1025 168.497 49.8392 115.603C48.8875 113.883 46.1587 114.237 45.8356 116.177C26.5623 231.848 110.583 325.996 200.5 321.007C295.308 315.746 354.635 174.571 288.346 111.17C287.549 110.407 286.211 110.517 285.455 111.321C224.135 176.593 215.217 74.6246 151.822 81.7864C150.598 81.9248 149.806 83.2185 150.148 84.4027Z" fill="#9BCEF1"/>
<path d="M205.77 128.988C199.685 179.482 266.264 184.465 283.137 142.405C283.877 140.562 286.7 140.504 287.273 142.407C313.288 228.861 261.592 310.339 194.707 316.079C123.936 322.151 64.3623 220.336 105.892 164.331C106.567 163.421 107.938 163.336 108.814 164.054C160.914 206.803 156.612 128.534 203.747 126.682C204.966 126.634 205.915 127.777 205.77 128.988Z" fill="#CAE9FA"/>
<path d="M245.375 226.5C249.793 226.5 253.484 230.146 252.322 234.408C248.852 247.14 237.206 256.5 223.375 256.5C209.544 256.5 197.898 247.14 194.428 234.408C193.266 230.146 196.957 226.5 201.375 226.5H245.375Z" fill="#1F2024"/>
<g filter="url(#filter1_d_18_1100)">
<rect x="15" y="160" width="114" height="7" rx="3.5" fill="#1F2024" stroke="#1F2024" stroke-width="8"/>
<path fill-rule="evenodd" clip-rule="evenodd" d="M220.295 176.855C220.295 209.387 205.935 225.871 177.545 225.871C140.086 225.871 126.718 202.442 126.718 180.475C126.718 174.992 125.117 174.261 122.958 173.373C119.903 172.103 119.667 163.855 119.966 159.801C119.999 159.346 120.358 158.982 120.809 158.915C161.259 152.879 181.422 152.422 207.629 157.436C212.891 158.443 218.046 161.03 223.404 161.03H232.617C237.975 161.03 243.13 158.443 248.392 157.436C274.599 152.422 294.762 152.879 335.212 158.915C335.662 158.982 336.022 159.346 336.055 159.801C336.354 163.855 336.118 172.103 333.063 173.373C330.904 174.261 329.303 174.992 329.303 180.475C329.303 202.442 315.935 225.871 278.476 225.871C250.086 225.871 235.726 209.387 235.726 176.855C235.895 175.293 234.681 173.908 233.11 173.908H222.911C221.34 173.908 220.125 175.293 220.295 176.855Z" fill="#1F2024"/>
<path d="M122.958 173.373L122.191 175.22L122.198 175.223L122.958 173.373ZM119.966 159.801L121.961 159.947L119.966 159.801ZM120.809 158.915L121.104 160.893H121.104L120.809 158.915ZM335.212 158.915L335.507 156.936L335.507 156.936L335.212 158.915ZM336.055 159.801L338.05 159.654V159.654L336.055 159.801ZM333.063 173.373L333.823 175.223L333.83 175.22L333.063 173.373ZM177.545 227.871C192.132 227.871 203.448 223.623 211.073 214.877C218.655 206.182 222.295 193.373 222.295 176.855H218.295C218.295 192.869 214.755 204.568 208.059 212.248C201.407 219.877 191.348 223.871 177.545 223.871V227.871ZM124.718 180.475C124.718 191.843 128.177 203.721 136.622 212.775C145.098 221.862 158.378 227.871 177.545 227.871V223.871C159.253 223.871 147.12 218.166 139.547 210.047C131.943 201.894 128.718 191.074 128.718 180.475H124.718ZM122.198 175.223C123.319 175.684 123.706 175.905 123.997 176.331C124.321 176.804 124.718 177.857 124.718 180.475H128.718C128.718 177.611 128.315 175.557 127.298 174.071C126.249 172.539 124.756 171.95 123.719 171.524L122.198 175.223ZM117.971 159.654C117.815 161.781 117.795 165.011 118.226 167.924C118.44 169.375 118.781 170.848 119.329 172.093C119.858 173.293 120.726 174.611 122.191 175.22L123.726 171.527C123.663 171.5 123.356 171.311 122.99 170.481C122.644 169.696 122.372 168.615 122.183 167.339C121.807 164.796 121.819 161.875 121.961 159.947L117.971 159.654ZM120.514 156.936C119.199 157.133 118.078 158.207 117.971 159.654L121.961 159.947C121.921 160.485 121.518 160.831 121.104 160.893L120.514 156.936ZM208.005 155.472C181.486 150.398 161.072 150.885 120.514 156.936L121.104 160.893C161.446 154.873 181.358 154.446 207.253 159.401L208.005 155.472ZM223.404 163.03H232.617V159.03H223.404V163.03ZM248.768 159.401C274.663 154.446 294.574 154.873 334.917 160.893L335.507 156.936C294.949 150.885 274.535 150.398 248.016 155.472L248.768 159.401ZM334.917 160.893C334.503 160.831 334.1 160.485 334.06 159.947L338.05 159.654C337.943 158.207 336.822 157.133 335.507 156.936L334.917 160.893ZM334.06 159.947C334.202 161.875 334.214 164.796 333.838 167.339C333.649 168.615 333.377 169.696 333.031 170.481C332.665 171.311 332.358 171.5 332.295 171.527L333.83 175.22C335.295 174.611 336.163 173.293 336.692 172.093C337.24 170.848 337.58 169.375 337.795 167.924C338.226 165.011 338.206 161.781 338.05 159.654L334.06 159.947ZM332.302 171.524C331.265 171.95 329.772 172.539 328.723 174.071C327.706 175.557 327.303 177.611 327.303 180.475H331.303C331.303 177.857 331.7 176.804 332.024 176.331C332.315 175.905 332.702 175.684 333.823 175.223L332.302 171.524ZM327.303 180.475C327.303 191.074 324.078 201.894 316.474 210.047C308.901 218.166 296.768 223.871 278.476 223.871V227.871C297.643 227.871 310.923 221.862 319.399 212.775C327.844 203.721 331.303 191.843 331.303 180.475H327.303ZM278.476 223.871C264.673 223.871 254.614 219.877 247.962 212.248C241.266 204.568 237.726 192.869 237.726 176.855H233.726C233.726 193.373 237.366 206.182 244.948 214.877C252.573 223.623 263.889 227.871 278.476 227.871V223.871ZM233.11 171.908H222.911V175.908H233.11V171.908ZM237.714 177.07C238.009 174.354 235.9 171.908 233.11 171.908V175.908C233.462 175.908 233.782 176.231 233.738 176.639L237.714 177.07ZM232.617 163.03C235.599 163.03 238.458 162.311 241.107 161.529C243.842 160.721 246.265 159.88 248.768 159.401L248.016 155.472C245.256 156 242.471 156.955 239.974 157.693C237.391 158.456 234.993 159.03 232.617 159.03V163.03ZM222.911 171.908C220.121 171.908 218.012 174.354 218.306 177.07L222.283 176.639C222.239 176.231 222.559 175.908 222.911 175.908V171.908ZM207.253 159.401C209.756 159.88 212.179 160.721 214.914 161.529C217.563 162.311 220.422 163.03 223.404 163.03V159.03C221.028 159.03 218.63 158.456 216.047 157.693C213.55 156.955 210.765 156 208.005 155.472L207.253 159.401Z" fill="#1F2024"/>
<mask id="mask0_18_1100" style="mask-type:alpha" maskUnits="userSpaceOnUse" x="119" y="154" width="218" height="72">
<path fill-rule="evenodd" clip-rule="evenodd" d="M177.545 225.871C205.935 225.871 220.295 209.387 220.295 176.855C219.219 166.933 217.655 159.355 207.629 157.436C181.422 152.422 161.259 152.879 120.809 158.915C120.358 158.982 119.999 159.346 119.966 159.801C119.667 163.855 119.903 172.103 122.958 173.373C125.117 174.261 126.718 174.992 126.718 180.475C126.718 202.442 140.086 225.871 177.545 225.871ZM278.476 225.871C250.086 225.871 235.726 209.387 235.726 176.855C236.802 166.933 238.366 159.355 248.392 157.436C274.599 152.422 294.762 152.879 335.212 158.915C335.662 158.982 336.022 159.346 336.055 159.801C336.354 163.855 336.118 172.103 333.063 173.373C330.904 174.261 329.303 174.992 329.303 180.475C329.303 202.442 315.935 225.871 278.476 225.871Z" fill="#C4C4C4"/>
</mask>
<g mask="url(#mask0_18_1100)">
<path fill-rule="evenodd" clip-rule="evenodd" d="M174.311 154.423L157.33 152.938L139 225.291L153.415 236.902L174.311 154.423ZM188.548 154.041L182.716 153.531L161.038 239.002L166.381 241.441L188.548 154.041Z" fill="white"/>
</g>
<path d="M122.958 173.373L121.423 177.067L121.43 177.07L121.437 177.073L122.958 173.373ZM119.966 159.801L123.955 160.094L119.966 159.801ZM120.809 158.915L121.399 162.871H121.399L120.809 158.915ZM335.212 158.915L335.802 154.958L335.802 154.958L335.212 158.915ZM336.055 159.801L340.044 159.507V159.507L336.055 159.801ZM333.063 173.373L334.584 177.073L334.591 177.07L334.598 177.067L333.063 173.373ZM177.545 229.871C192.524 229.871 204.468 225.496 212.581 216.191C220.604 206.989 224.295 193.625 224.295 176.855H216.295C216.295 192.617 212.805 203.761 206.551 210.934C200.386 218.004 190.956 221.871 177.545 221.871V229.871ZM122.718 180.475C122.718 192.227 126.294 204.634 135.159 214.139C144.087 223.71 157.941 229.871 177.545 229.871V221.871C159.69 221.871 148.131 216.317 141.01 208.682C133.826 200.981 130.718 190.69 130.718 180.475H122.718ZM121.437 177.073C122.6 177.551 122.434 177.587 122.347 177.46C122.324 177.427 122.718 177.98 122.718 180.475H130.718C130.718 177.487 130.312 174.933 128.948 172.942C127.521 170.857 125.475 170.083 124.48 169.674L121.437 177.073ZM115.977 159.507C115.813 161.734 115.789 165.118 116.247 168.217C116.475 169.754 116.849 171.424 117.499 172.899C118.109 174.284 119.258 176.167 121.423 177.067L124.494 169.68C125.131 169.945 125.105 170.32 124.82 169.675C124.576 169.12 124.337 168.236 124.161 167.046C123.813 164.689 123.821 161.922 123.955 160.094L115.977 159.507ZM120.219 154.958C118.039 155.284 116.156 157.068 115.977 159.507L123.955 160.094C123.843 161.624 122.678 162.68 121.399 162.871L120.219 154.958ZM208.381 153.508C181.549 148.374 160.885 148.891 120.219 154.958L121.399 162.871C161.634 156.868 181.294 156.47 206.878 161.365L208.381 153.508ZM223.404 165.03H232.617V157.03H223.404V165.03ZM249.143 161.365C274.727 156.47 294.387 156.868 334.622 162.871L335.802 154.958C295.136 148.891 274.472 148.374 247.64 153.508L249.143 161.365ZM334.622 162.871C333.343 162.68 332.178 161.624 332.066 160.094L340.044 159.507C339.865 157.068 337.982 155.284 335.802 154.958L334.622 162.871ZM332.066 160.094C332.2 161.922 332.208 164.689 331.86 167.046C331.684 168.236 331.445 169.12 331.201 169.675C330.916 170.32 330.89 169.945 331.527 169.68L334.598 177.067C336.763 176.167 337.912 174.284 338.522 172.899C339.172 171.424 339.546 169.754 339.774 168.217C340.232 165.118 340.208 161.734 340.044 159.507L332.066 160.094ZM331.541 169.674C330.546 170.083 328.5 170.857 327.072 172.942C325.709 174.933 325.303 177.487 325.303 180.475H333.303C333.303 177.98 333.697 177.427 333.674 177.46C333.587 177.587 333.421 177.551 334.584 177.073L331.541 169.674ZM325.303 180.475C325.303 190.69 322.195 200.981 315.011 208.682C307.89 216.317 296.331 221.871 278.476 221.871V229.871C298.08 229.871 311.934 223.71 320.862 214.139C329.727 204.634 333.303 192.227 333.303 180.475H325.303ZM278.476 221.871C265.065 221.871 255.635 218.004 249.47 210.934C243.216 203.761 239.726 192.617 239.726 176.855H231.726C231.726 193.625 235.417 206.989 243.44 216.191C251.553 225.496 263.497 229.871 278.476 229.871V221.871ZM233.11 169.908H222.911V177.908H233.11V169.908ZM239.703 177.286C240.122 173.415 237.118 169.908 233.11 169.908V177.908C232.244 177.908 231.668 177.17 231.749 176.423L239.703 177.286ZM232.617 165.03C235.902 165.03 238.991 164.239 241.673 163.447C244.527 162.604 246.769 161.819 249.143 161.365L247.64 153.508C244.752 154.06 241.786 155.072 239.407 155.775C236.858 156.528 234.691 157.03 232.617 157.03V165.03ZM222.911 169.908C218.903 169.908 215.898 173.415 216.318 177.286L224.272 176.423C224.352 177.17 223.777 177.908 222.911 177.908V169.908ZM206.878 161.365C209.251 161.819 211.494 162.604 214.348 163.447C217.03 164.239 220.119 165.03 223.404 165.03V157.03C221.33 157.03 219.163 156.528 216.614 155.775C214.235 155.072 211.269 154.06 208.381 153.508L206.878 161.365Z" fill="#1F2024"/>
</g>
<circle cx="50" cy="217" r="36" fill="#1F2024" fill-opacity="0.16"/>
<g filter="url(#filter2_i_18_1100)">
<circle cx="49" cy="206" r="36" fill="#6FB2E8"/>
</g>
<circle cx="49" cy="206" r="36" stroke="#1F2024" stroke-width="8"/>
<path d="M59 182C62.6403 183.938 65.7524 187.074 68 191" stroke="white" stroke-width="8" stroke-linecap="round" stroke-linejoin="round"/>
<g filter="url(#filter3_i_18_1100)">
<circle cx="29" cy="206" r="24" fill="#CAE9FA"/>
</g>
<circle cx="29" cy="206" r="24" stroke="#1F2024" stroke-width="8"/>
</g>
<defs>
<filter id="filter0_i_18_1100" x="11.999" y="2.50415" width="324.003" height="332.496" filterUnits="userSpaceOnUse" color-interpolation-filters="sRGB">
<feFlood flood-opacity="0" result="BackgroundImageFix"/>
<feBlend mode="normal" in="SourceGraphic" in2="BackgroundImageFix" result="shape"/>
<feColorMatrix in="SourceAlpha" type="matrix" values="0 0 0 0 0 0 0 0 0 0 0 0 0 0 0 0 0 0 127 0" result="hardAlpha"/>
<feOffset dx="17" dy="-12"/>
<feComposite in2="hardAlpha" operator="arithmetic" k2="-1" k3="1"/>
<feColorMatrix type="matrix" values="0 0 0 0 0 0 0 0 0 0 0 0 0 0 0 0 0 0 0.25 0"/>
<feBlend mode="normal" in2="shape" result="effect1_innerShadow_18_1100"/>
</filter>
<filter id="filter1_d_18_1100" x="7" y="150" width="333.151" height="83.8711" filterUnits="userSpaceOnUse" color-interpolation-filters="sRGB">
<feFlood flood-opacity="0" result="BackgroundImageFix"/>
<feColorMatrix in="SourceAlpha" type="matrix" values="0 0 0 0 0 0 0 0 0 0 0 0 0 0 0 0 0 0 127 0" result="hardAlpha"/>
<feOffset dx="-4" dy="4"/>
<feColorMatrix type="matrix" values="0 0 0 0 0 0 0 0 0 0 0 0 0 0 0 0 0 0 0.25 0"/>
<feBlend mode="normal" in2="BackgroundImageFix" result="effect1_dropShadow_18_1100"/>
<feBlend mode="normal" in="SourceGraphic" in2="effect1_dropShadow_18_1100" result="shape"/>
</filter>
<filter id="filter2_i_18_1100" x="9" y="166" width="80" height="80" filterUnits="userSpaceOnUse" color-interpolation-filters="sRGB">
<feFlood flood-opacity="0" result="BackgroundImageFix"/>
<feBlend mode="normal" in="SourceGraphic" in2="BackgroundImageFix" result="shape"/>
<feColorMatrix in="SourceAlpha" type="matrix" values="0 0 0 0 0 0 0 0 0 0 0 0 0 0 0 0 0 0 127 0" result="hardAlpha"/>
<feOffset dx="12" dy="-16"/>
<feComposite in2="hardAlpha" operator="arithmetic" k2="-1" k3="1"/>
<feColorMatrix type="matrix" values="0 0 0 0 0 0 0 0 0 0 0 0 0 0 0 0 0 0 0.25 0"/>
<feBlend mode="normal" in2="shape" result="effect1_innerShadow_18_1100"/>
</filter>
<filter id="filter3_i_18_1100" x="1" y="178" width="56" height="56" filterUnits="userSpaceOnUse" color-interpolation-filters="sRGB">
<feFlood flood-opacity="0" result="BackgroundImageFix"/>
<feBlend mode="normal" in="SourceGraphic" in2="BackgroundImageFix" result="shape"/>
<feColorMatrix in="SourceAlpha" type="matrix" values="0 0 0 0 0 0 0 0 0 0 0 0 0 0 0 0 0 0 127 0" result="hardAlpha"/>
<feOffset dx="12" dy="-8"/>
<feComposite in2="hardAlpha" operator="arithmetic" k2="-1" k3="1"/>
<feColorMatrix type="matrix" values="0 0 0 0 0 0 0 0 0 0 0 0 0 0 0 0 0 0 0.25 0"/>
<feBlend mode="normal" in2="shape" result="effect1_innerShadow_18_1100"/>
</filter>
<clipPath id="clip0_18_1100">
<rect width="340" height="340" fill="white"/>
</clipPath>
</defs>
</svg>
