<svg width="340" height="340" viewBox="0 0 340 340" fill="none" xmlns="http://www.w3.org/2000/svg">
<g filter="url(#filter0_i_18_1098)">
<path d="M87.9427 107.339C53.7755 113.789 53.0394 72.0454 57.0859 44.2497C57.2426 43.1737 55.7649 42.6911 55.1851 43.6109C-42.1921 198.103 57.5888 331 183.288 331C309.057 331 382.935 216.612 290.727 46.2577C290.21 45.3025 288.668 45.6944 288.72 46.7794C290.115 76.1271 276.982 99.8573 249.075 92.2255C209.938 81.5229 250.475 24.1551 188.512 6.54046C187.72 6.31533 186.971 7.09292 187.264 7.86242C197.82 35.6017 191.256 60.9982 158.296 64.9048C125.456 68.797 117.061 44.719 125.223 15.7662C125.463 14.9147 124.543 14.1979 123.776 14.6402C82.4173 38.5124 124.823 100.377 87.9427 107.339Z" fill="#E79834"/>
</g>
<path d="M87.9427 107.339C53.7755 113.789 53.0394 72.0454 57.0859 44.2497C57.2426 43.1737 55.7649 42.6911 55.1851 43.6109C-42.1921 198.103 57.5888 331 183.288 331C309.057 331 382.935 216.612 290.727 46.2577C290.21 45.3025 288.668 45.6944 288.72 46.7794C290.115 76.1271 276.982 99.8573 249.075 92.2255C209.938 81.5229 250.475 24.1551 188.512 6.54046C187.72 6.31533 186.971 7.09292 187.264 7.86242C197.82 35.6017 191.256 60.9982 158.296 64.9048C125.456 68.797 117.061 44.719 125.223 15.7662C125.463 14.9147 124.543 14.1979 123.776 14.6402C82.4173 38.5124 124.823 100.377 87.9427 107.339Z" stroke="#1F2024" stroke-width="8" stroke-linejoin="round"/>
<path d="M150.148 84.4027C168.748 148.841 79.1025 168.497 49.8392 115.603C48.8875 113.883 46.1587 114.237 45.8356 116.177C26.5623 231.848 110.583 325.996 200.5 321.007C295.308 315.746 354.635 174.571 288.346 111.17C287.549 110.407 286.211 110.517 285.455 111.321C224.135 176.593 215.217 74.6246 151.822 81.7864C150.598 81.9248 149.806 83.2185 150.148 84.4027Z" fill="#F2C95C"/>
<path d="M205.735 137.006C199.49 185.332 265.917 190.49 282.984 150.164C283.749 148.357 286.52 148.313 287.098 150.188C312.567 232.808 260.429 310.264 193.567 316.167C122.807 322.414 63.8913 225.195 105.775 171.298C106.449 170.431 107.772 170.345 108.636 171.023C160.449 211.706 156.633 136.782 203.699 134.675C204.933 134.619 205.893 135.781 205.735 137.006Z" fill="#F9E174"/>
<path d="M245.375 226.5C249.793 226.5 253.484 230.146 252.322 234.408C248.852 247.14 237.206 256.5 223.375 256.5C209.544 256.5 197.898 247.14 194.428 234.408C193.266 230.146 196.957 226.5 201.375 226.5H245.375Z" fill="#1F2024"/>
<path d="M139.869 170.46C129.798 170.234 121.469 178.328 121.469 188.423C121.469 198.085 129.127 206.02 138.786 206.355C192.878 208.23 228.11 208.57 281.081 206.443C290.702 206.057 298.281 198.127 298.281 188.515C298.281 178.372 289.889 170.262 279.779 170.522C229.932 171.8 194.968 171.692 139.869 170.46Z" fill="#1F2024" stroke="#1F2024" stroke-width="8"/>
<path d="M149.869 170.46C139.798 170.234 131.469 178.328 131.469 188.423C131.469 198.085 139.127 206.02 148.786 206.355C202.878 208.23 238.11 208.57 291.081 206.443C300.702 206.057 308.281 198.127 308.281 188.515C308.281 178.372 299.889 170.262 289.779 170.522C239.932 171.8 204.968 171.692 149.869 170.46Z" fill="#EB0D18" stroke="#1F2024" stroke-width="8"/>
<path d="M182 170H204L193 206H171L182 170Z" fill="white"/>
<path d="M149.869 170.46C139.798 170.234 131.469 178.328 131.469 188.423C131.469 198.085 139.127 206.02 148.786 206.355C202.878 208.23 238.11 208.57 291.081 206.443C300.702 206.057 308.281 198.127 308.281 188.515C308.281 178.372 299.889 170.262 289.779 170.522C239.932 171.8 204.968 171.692 149.869 170.46Z" stroke="#1F2024" stroke-width="8"/>
<g filter="url(#filter1_i_18_1098)">
<path d="M100.542 206.236L27.8449 174L5 174C11.6576 208.276 35.5666 246.185 58.9141 259L79.4745 257.946C87.3297 258.121 94.5945 255.507 100.542 249.48C114.77 235.064 114.199 212.727 100.542 206.236Z" fill="#E79834"/>
</g>
<path d="M100.542 206.236L27.8449 174L5 174C11.6576 208.276 35.5666 246.185 58.9141 259L79.4745 257.946C87.3297 258.121 94.5945 255.507 100.542 249.48C114.77 235.064 114.199 212.727 100.542 206.236Z" stroke="#1F2024" stroke-width="8" stroke-linejoin="round"/>
<path d="M5 174C14.4061 235.839 48.4474 279.036 77.5616 249.48C91.763 235.064 91.1929 212.727 77.5616 206.236L5 174Z" fill="#DE7E25" stroke="#1F2024" stroke-width="8" stroke-linejoin="round"/>
<ellipse cx="52.5" cy="227" rx="13.5" ry="14" fill="#AF6017" stroke="#1F2024" stroke-width="8" stroke-linejoin="round"/>
<path fill-rule="evenodd" clip-rule="evenodd" d="M59.3692 215.146C55.2723 217.516 52.516 221.945 52.516 227.018C52.516 232.092 55.2723 236.521 59.3692 238.891C57.3532 240.057 55.0125 240.725 52.516 240.725C44.9461 240.725 38.8096 234.588 38.8096 227.018C38.8096 219.449 44.9461 213.312 52.516 213.312C55.0125 213.312 57.3532 213.979 59.3692 215.146Z" fill="#EDB146"/>
<path d="M59.3692 215.146L61.3721 218.608C62.6081 217.893 63.3692 216.574 63.3692 215.146C63.3692 213.718 62.6081 212.398 61.3721 211.683L59.3692 215.146ZM59.3692 238.891L61.3721 242.354C62.6081 241.639 63.3692 240.319 63.3692 238.891C63.3692 237.463 62.6081 236.144 61.3721 235.429L59.3692 238.891ZM56.516 227.018C56.516 223.431 58.4604 220.292 61.3721 218.608L57.3663 211.683C52.0843 214.739 48.516 220.46 48.516 227.018H56.516ZM61.3721 235.429C58.4604 233.744 56.516 230.606 56.516 227.018H48.516C48.516 233.577 52.0843 239.298 57.3663 242.354L61.3721 235.429ZM57.3663 235.429C55.9427 236.252 54.2906 236.725 52.516 236.725V244.725C55.7344 244.725 58.7636 243.862 61.3721 242.354L57.3663 235.429ZM52.516 236.725C47.1553 236.725 42.8096 232.379 42.8096 227.018H34.8096C34.8096 236.797 42.737 244.725 52.516 244.725V236.725ZM42.8096 227.018C42.8096 221.658 47.1553 217.312 52.516 217.312V209.312C42.737 209.312 34.8096 217.239 34.8096 227.018H42.8096ZM52.516 217.312C54.2906 217.312 55.9427 217.785 57.3663 218.608L61.3721 211.683C58.7636 210.174 55.7344 209.312 52.516 209.312V217.312Z" fill="#1F2024"/>
<defs>
<filter id="filter0_i_18_1098" x="11.999" y="2.50415" width="324.003" height="332.496" filterUnits="userSpaceOnUse" color-interpolation-filters="sRGB">
<feFlood flood-opacity="0" result="BackgroundImageFix"/>
<feBlend mode="normal" in="SourceGraphic" in2="BackgroundImageFix" result="shape"/>
<feColorMatrix in="SourceAlpha" type="matrix" values="0 0 0 0 0 0 0 0 0 0 0 0 0 0 0 0 0 0 127 0" result="hardAlpha"/>
<feOffset dx="17" dy="-12"/>
<feComposite in2="hardAlpha" operator="arithmetic" k2="-1" k3="1"/>
<feColorMatrix type="matrix" values="0 0 0 0 0 0 0 0 0 0 0 0 0 0 0 0 0 0 0.25 0"/>
<feBlend mode="normal" in2="shape" result="effect1_innerShadow_18_1098"/>
</filter>
<filter id="filter1_i_18_1098" x="1" y="170" width="114" height="93" filterUnits="userSpaceOnUse" color-interpolation-filters="sRGB">
<feFlood flood-opacity="0" result="BackgroundImageFix"/>
<feBlend mode="normal" in="SourceGraphic" in2="BackgroundImageFix" result="shape"/>
<feColorMatrix in="SourceAlpha" type="matrix" values="0 0 0 0 0 0 0 0 0 0 0 0 0 0 0 0 0 0 127 0" result="hardAlpha"/>
<feOffset dy="-20"/>
<feComposite in2="hardAlpha" operator="arithmetic" k2="-1" k3="1"/>
<feColorMatrix type="matrix" values="0 0 0 0 0 0 0 0 0 0 0 0 0 0 0 0 0 0 0.25 0"/>
<feBlend mode="normal" in2="shape" result="effect1_innerShadow_18_1098"/>
</filter>
</defs>
</svg>
