<svg width="340" height="340" viewBox="0 0 340 340" fill="none" xmlns="http://www.w3.org/2000/svg">
<g clip-path="url(#clip0_2_476)">
<g filter="url(#filter0_ii_2_476)">
<path d="M8 130C8 116.745 18.7452 106 32 106H224C237.255 106 248 116.745 248 130V290C248 303.255 237.255 314 224 314H32C18.7452 314 8 303.255 8 290V130Z" fill="#E22C2C"/>
</g>
<path d="M8 130C8 116.745 18.7452 106 32 106H224C237.255 106 248 116.745 248 130V290C248 303.255 237.255 314 224 314H32C18.7452 314 8 303.255 8 290V130Z" stroke="#1F2024" stroke-width="8"/>
<g filter="url(#filter1_i_2_476)">
<path d="M108 130C108 116.745 118.745 106 132 106H308C321.255 106 332 116.745 332 130V290C332 303.255 321.255 314 308 314H132C118.745 314 108 303.255 108 290V130Z" fill="#FF5252"/>
</g>
<path d="M108 130C108 116.745 118.745 106 132 106H308C321.255 106 332 116.745 332 130V290C332 303.255 321.255 314 308 314H132C118.745 314 108 303.255 108 290V130Z" stroke="#1F2024" stroke-width="8"/>
<path d="M236 110H274L218 310H180L236 110Z" fill="white" fill-opacity="0.5"/>
<path d="M221 110H227L171 310H165L221 110Z" fill="white" fill-opacity="0.5"/>
<path d="M134.501 179.927L218.935 198.097" stroke="#1F2024" stroke-width="12.5217" stroke-linecap="round"/>
<path d="M203.174 195.448C202.572 198.243 201.426 200.892 199.8 203.245C198.175 205.597 196.102 207.606 193.7 209.157C191.298 210.709 188.614 211.771 185.801 212.285C182.989 212.799 180.102 212.754 177.307 212.153C174.512 211.551 171.862 210.405 169.51 208.779C167.157 207.154 165.148 205.081 163.597 202.679C162.046 200.277 160.983 197.593 160.469 194.78C159.955 191.968 160 189.081 160.602 186.286L181.888 190.867L203.174 195.448Z" fill="white" stroke="#1F2024" stroke-width="8.34783"/>
<path d="M120 232.645V215.495L170.946 205.696V213.658L167.263 215.495L172.174 216.72L170.946 224.682L133.504 233.87L125.524 230.807L120 232.645Z" fill="#1F2024"/>
<path d="M320.455 179.927L236.021 198.097" stroke="#1F2024" stroke-width="12.5217" stroke-linecap="round"/>
<path d="M251.783 195.448C252.385 198.243 253.531 200.892 255.157 203.245C256.782 205.597 258.855 207.606 261.257 209.157C263.659 210.709 266.343 211.771 269.156 212.285C271.968 212.799 274.855 212.754 277.65 212.153C280.446 211.551 283.095 210.405 285.447 208.779C287.8 207.154 289.809 205.081 291.36 202.679C292.911 200.277 293.974 197.593 294.488 194.78C295.002 191.968 294.957 189.081 294.355 186.286L273.069 190.867L251.783 195.448Z" fill="white" stroke="#1F2024" stroke-width="8.34783"/>
<path d="M334.957 232.645V215.495L284.011 205.696V213.658L287.694 215.495L282.783 216.72L284.011 224.682L321.453 233.87L329.433 230.807L334.957 232.645Z" fill="#1F2024"/>
<path d="M39 172L34.1353 188.505M76.2588 238.795L61.3118 206.162L32.3235 200.5L34.1353 188.505M76.2588 238.795L69 253M76.2588 238.795H87.1294H98M34.1353 188.505H21" stroke="#1F2024" stroke-width="8" stroke-linecap="round" stroke-linejoin="round"/>
<rect x="10.707" y="238.707" width="104" height="32" rx="16" transform="rotate(-45 10.707 238.707)" fill="#B3A275" stroke="#1F2024" stroke-width="8"/>
<rect x="35.4561" y="212.544" width="32" height="34" rx="2" transform="rotate(-45 35.4561 212.544)" fill="#E5DEB1" stroke="#1F2024" stroke-width="8"/>
<circle cx="72.2249" cy="191.331" r="2" transform="rotate(-45 72.2249 191.331)" fill="#9A855A"/>
<circle cx="28.3851" cy="235.172" r="2" transform="rotate(-45 28.3851 235.172)" fill="#9A855A"/>
<circle cx="80.7103" cy="199.816" r="2" transform="rotate(-45 80.7103 199.816)" fill="#9A855A"/>
<circle cx="36.8704" cy="243.657" r="2" transform="rotate(-45 36.8704 243.657)" fill="#9A855A"/>
<circle cx="80.7103" cy="191.331" r="2" transform="rotate(-45 80.7103 191.331)" fill="#9A855A"/>
<circle cx="36.8704" cy="235.172" r="2" transform="rotate(-45 36.8704 235.172)" fill="#9A855A"/>
<circle cx="89.1956" cy="182.846" r="2" transform="rotate(-45 89.1956 182.846)" fill="#9A855A"/>
<circle cx="28.3851" cy="243.657" r="2" transform="rotate(-45 28.3851 243.657)" fill="#9A855A"/>
<circle cx="80.7103" cy="182.846" r="2" transform="rotate(-45 80.7103 182.846)" fill="#9A855A"/>
<circle cx="36.8704" cy="226.686" r="2" transform="rotate(-45 36.8704 226.686)" fill="#9A855A"/>
<circle cx="89.1956" cy="191.331" r="2" transform="rotate(-45 89.1956 191.331)" fill="#9A855A"/>
<circle cx="45.3558" cy="235.172" r="2" transform="rotate(-45 45.3558 235.172)" fill="#9A855A"/>
<g filter="url(#filter2_ddi_2_476)">
<g clip-path="url(#clip1_2_476)">
<rect x="168" y="231" width="112" height="32" rx="16" fill="#1F2024"/>
<rect x="168" y="231" width="12" height="32" fill="white"/>
<rect x="188" y="231" width="12" height="32" fill="white"/>
<rect x="208" y="231" width="12" height="32" fill="white"/>
<rect x="228" y="231" width="12" height="32" fill="white"/>
<rect x="248" y="231" width="12" height="32" fill="white"/>
<rect x="268" y="231" width="12" height="32" fill="white"/>
</g>
<rect x="168" y="231" width="112" height="32" rx="16" stroke="#1F2024" stroke-width="6"/>
</g>
<rect x="119.26" y="38.92" width="20.64" height="8.6" fill="#FE204F" stroke="#1F2024" stroke-width="6.88" stroke-linejoin="round"/>
<path fill-rule="evenodd" clip-rule="evenodd" d="M190.699 9.78496L192.36 17.8499L195.584 9.32838C199.917 8.9892 204.293 8.81995 208.7 8.81995L188.06 106H81.4199C82.307 101.184 83.4263 96.5509 84.763 92.0988L93.4599 88.7999L86.8515 85.7711C93.7597 66.626 104.879 51.1087 118.876 39.1574L129.58 50.5299L128.556 31.7607C146.424 19.5616 167.861 12.2697 190.699 9.78496Z" fill="#EB0D18"/>
<path d="M192.36 17.8499L188.991 18.5436C189.299 20.0429 190.561 21.1578 192.087 21.2791C193.613 21.4004 195.036 20.499 195.577 19.0673L192.36 17.8499ZM190.699 9.78496L194.069 9.09127C193.711 7.35383 192.091 6.17328 190.327 6.36514L190.699 9.78496ZM195.584 9.32838L195.316 5.89888C193.987 6.00288 192.838 6.86472 192.367 8.111L195.584 9.32838ZM208.7 8.81995L212.065 9.53462C212.28 8.51951 212.026 7.46131 211.373 6.65487C210.72 5.84843 209.738 5.37995 208.7 5.37995V8.81995ZM188.06 106V109.44C189.684 109.44 191.087 108.304 191.425 106.715L188.06 106ZM81.4199 106L78.0368 105.377C77.8518 106.381 78.1227 107.416 78.7763 108.201C79.4299 108.986 80.3985 109.44 81.4199 109.44V106ZM84.763 92.0988L83.5429 88.8824C82.5427 89.2618 81.7759 90.085 81.4682 91.1096L84.763 92.0988ZM93.4599 88.7999L94.6799 92.0163C95.9768 91.5244 96.8513 90.3018 96.898 88.9155C96.9446 87.5293 96.1541 86.2507 94.8932 85.6728L93.4599 88.7999ZM86.8515 85.7711L83.6157 84.6035C83.0086 86.286 83.7922 88.153 85.4182 88.8983L86.8515 85.7711ZM118.876 39.1574L121.381 36.7998C120.124 35.4634 118.038 35.3497 116.643 36.5413L118.876 39.1574ZM129.58 50.5299L127.075 52.8876C128.065 53.9396 129.607 54.2609 130.935 53.6919C132.263 53.123 133.093 51.785 133.015 50.3426L129.58 50.5299ZM128.556 31.7607L126.616 28.9196C125.623 29.5981 125.056 30.7465 125.121 31.948L128.556 31.7607ZM195.729 17.1563L194.069 9.09127L187.33 10.4786L188.991 18.5436L195.729 17.1563ZM192.367 8.111L189.142 16.6325L195.577 19.0673L198.802 10.5458L192.367 8.111ZM195.853 12.7579C200.094 12.4258 204.381 12.2599 208.7 12.2599V5.37995C204.205 5.37995 199.739 5.55258 195.316 5.89888L195.853 12.7579ZM205.335 8.10527L184.695 105.285L191.425 106.715L212.065 9.53462L205.335 8.10527ZM188.06 102.56H81.4199V109.44H188.06V102.56ZM84.803 106.623C85.6679 101.928 86.758 97.4169 88.0577 93.088L81.4682 91.1096C80.0946 95.6848 78.9461 100.441 78.0368 105.377L84.803 106.623ZM85.983 95.3152L94.6799 92.0163L92.2399 85.5835L83.5429 88.8824L85.983 95.3152ZM94.8932 85.6728L88.2848 82.6439L85.4182 88.8983L92.0266 91.9271L94.8932 85.6728ZM90.0873 86.9387C96.79 68.3632 107.561 53.3426 121.11 41.7735L116.643 36.5413C102.198 48.8748 90.7294 64.8889 83.6157 84.6035L90.0873 86.9387ZM116.371 41.5151L127.075 52.8876L132.085 48.1723L121.381 36.7998L116.371 41.5151ZM133.015 50.3426L131.991 31.5733L125.121 31.948L126.145 50.7173L133.015 50.3426ZM130.496 34.6017C147.833 22.7649 168.713 15.6373 191.071 13.2048L190.327 6.36514C167.009 8.90215 145.016 16.3582 126.616 28.9196L130.496 34.6017Z" fill="#1F2024"/>
<path d="M119.26 102.56C121.41 53.11 170 84.07 156.67 17.3906L179.03 12.26C194.94 41.07 130.87 69.45 142.05 102.56H119.26Z" fill="white" fill-opacity="0.3"/>
<path fill-rule="evenodd" clip-rule="evenodd" d="M245.68 8.81995H208.7L188.06 106H225.04L233.287 67.1701L224.61 67.7299L234.882 59.6588L245.68 8.81995Z" fill="#FE204F"/>
<path d="M208.7 8.81995V5.37995C207.075 5.37995 205.672 6.51628 205.335 8.10527L208.7 8.81995ZM245.68 8.81995L249.045 9.53462C249.26 8.51951 249.006 7.46131 248.353 6.65487C247.7 5.84843 246.717 5.37995 245.68 5.37995V8.81995ZM188.06 106L184.695 105.285C184.479 106.3 184.733 107.359 185.386 108.165C186.04 108.971 187.022 109.44 188.06 109.44V106ZM225.04 106V109.44C226.664 109.44 228.067 108.304 228.405 106.715L225.04 106ZM233.287 67.1701L236.652 67.8848C236.875 66.8316 236.593 65.7345 235.889 64.9201C235.184 64.1057 234.14 63.668 233.065 63.7373L233.287 67.1701ZM224.61 67.7299L222.484 65.025C221.299 65.9562 220.858 67.5506 221.396 68.9585C221.935 70.3664 223.327 71.2598 224.831 71.1628L224.61 67.7299ZM234.882 59.6588L237.007 62.3638C237.641 61.866 238.079 61.1616 238.247 60.3735L234.882 59.6588ZM208.7 12.2599H245.68V5.37995H208.7V12.2599ZM191.425 106.715L212.065 9.53462L205.335 8.10527L184.695 105.285L191.425 106.715ZM225.04 102.56H188.06V109.44H225.04V102.56ZM229.922 66.4555L221.675 105.285L228.405 106.715L236.652 67.8848L229.922 66.4555ZM233.065 63.7373L224.388 64.2971L224.831 71.1628L233.508 70.603L233.065 63.7373ZM226.735 70.4349L237.007 62.3638L232.757 56.9539L222.484 65.025L226.735 70.4349ZM242.315 8.10527L231.517 58.9441L238.247 60.3735L249.045 9.53462L242.315 8.10527Z" fill="#1F2024"/>
<path d="M192.36 17.8499L188.991 18.5436C189.299 20.0429 190.561 21.1578 192.087 21.2791C193.613 21.4004 195.036 20.499 195.577 19.0673L192.36 17.8499ZM190.699 9.78496L194.069 9.09127C193.711 7.35383 192.091 6.17328 190.327 6.36514L190.699 9.78496ZM195.584 9.32838L195.316 5.89888C193.987 6.00288 192.838 6.86472 192.367 8.111L195.584 9.32838ZM208.7 8.81995L212.065 9.53462C212.28 8.51951 212.026 7.46131 211.373 6.65487C210.72 5.84843 209.738 5.37995 208.7 5.37995V8.81995ZM188.06 106V109.44C189.684 109.44 191.087 108.304 191.425 106.715L188.06 106ZM81.4199 106L78.0368 105.377C77.8518 106.381 78.1227 107.416 78.7763 108.201C79.4299 108.986 80.3985 109.44 81.4199 109.44V106ZM84.763 92.0988L83.5429 88.8824C82.5427 89.2618 81.7759 90.085 81.4682 91.1096L84.763 92.0988ZM93.4599 88.7999L94.6799 92.0163C95.9768 91.5244 96.8513 90.3018 96.898 88.9155C96.9446 87.5293 96.1541 86.2507 94.8932 85.6728L93.4599 88.7999ZM86.8515 85.7711L83.6157 84.6035C83.0086 86.286 83.7922 88.153 85.4182 88.8983L86.8515 85.7711ZM118.876 39.1574L121.381 36.7998C120.124 35.4634 118.038 35.3497 116.643 36.5413L118.876 39.1574ZM129.58 50.5299L127.075 52.8876C128.065 53.9396 129.607 54.2609 130.935 53.6919C132.263 53.123 133.093 51.785 133.015 50.3426L129.58 50.5299ZM128.556 31.7607L126.616 28.9196C125.623 29.5981 125.056 30.7465 125.121 31.948L128.556 31.7607ZM195.729 17.1563L194.069 9.09127L187.33 10.4786L188.991 18.5436L195.729 17.1563ZM192.367 8.111L189.142 16.6325L195.577 19.0673L198.802 10.5458L192.367 8.111ZM195.853 12.7579C200.094 12.4258 204.381 12.2599 208.7 12.2599V5.37995C204.205 5.37995 199.739 5.55258 195.316 5.89888L195.853 12.7579ZM205.335 8.10527L184.695 105.285L191.425 106.715L212.065 9.53462L205.335 8.10527ZM188.06 102.56H81.4199V109.44H188.06V102.56ZM84.803 106.623C85.6679 101.928 86.758 97.4169 88.0577 93.088L81.4682 91.1096C80.0946 95.6848 78.9461 100.441 78.0368 105.377L84.803 106.623ZM85.983 95.3152L94.6799 92.0163L92.2399 85.5835L83.5429 88.8824L85.983 95.3152ZM94.8932 85.6728L88.2848 82.6439L85.4182 88.8983L92.0266 91.9271L94.8932 85.6728ZM90.0873 86.9387C96.79 68.3632 107.561 53.3426 121.11 41.7735L116.643 36.5413C102.198 48.8748 90.7294 64.8889 83.6157 84.6035L90.0873 86.9387ZM116.371 41.5151L127.075 52.8876L132.085 48.1723L121.381 36.7998L116.371 41.5151ZM133.015 50.3426L131.991 31.5733L125.121 31.948L126.145 50.7173L133.015 50.3426ZM130.496 34.6017C147.833 22.7649 168.713 15.6373 191.071 13.2048L190.327 6.36514C167.009 8.90215 145.016 16.3582 126.616 28.9196L130.496 34.6017Z" fill="#1F2024"/>
</g>
<defs>
<filter id="filter0_ii_2_476" x="4" y="102" width="248" height="216" filterUnits="userSpaceOnUse" color-interpolation-filters="sRGB">
<feFlood flood-opacity="0" result="BackgroundImageFix"/>
<feBlend mode="normal" in="SourceGraphic" in2="BackgroundImageFix" result="shape"/>
<feColorMatrix in="SourceAlpha" type="matrix" values="0 0 0 0 0 0 0 0 0 0 0 0 0 0 0 0 0 0 127 0" result="hardAlpha"/>
<feOffset dy="-16"/>
<feComposite in2="hardAlpha" operator="arithmetic" k2="-1" k3="1"/>
<feColorMatrix type="matrix" values="0 0 0 0 0 0 0 0 0 0 0 0 0 0 0 0 0 0 0.25 0"/>
<feBlend mode="normal" in2="shape" result="effect1_innerShadow_2_476"/>
<feColorMatrix in="SourceAlpha" type="matrix" values="0 0 0 0 0 0 0 0 0 0 0 0 0 0 0 0 0 0 127 0" result="hardAlpha"/>
<feOffset dy="16"/>
<feComposite in2="hardAlpha" operator="arithmetic" k2="-1" k3="1"/>
<feColorMatrix type="matrix" values="0 0 0 0 1 0 0 0 0 1 0 0 0 0 1 0 0 0 0.25 0"/>
<feBlend mode="normal" in2="effect1_innerShadow_2_476" result="effect2_innerShadow_2_476"/>
</filter>
<filter id="filter1_i_2_476" x="104" y="102" width="232" height="216" filterUnits="userSpaceOnUse" color-interpolation-filters="sRGB">
<feFlood flood-opacity="0" result="BackgroundImageFix"/>
<feBlend mode="normal" in="SourceGraphic" in2="BackgroundImageFix" result="shape"/>
<feColorMatrix in="SourceAlpha" type="matrix" values="0 0 0 0 0 0 0 0 0 0 0 0 0 0 0 0 0 0 127 0" result="hardAlpha"/>
<feOffset dx="-24" dy="8"/>
<feComposite in2="hardAlpha" operator="arithmetic" k2="-1" k3="1"/>
<feColorMatrix type="matrix" values="0 0 0 0 1 0 0 0 0 1 0 0 0 0 1 0 0 0 0.25 0"/>
<feBlend mode="normal" in2="shape" result="effect1_innerShadow_2_476"/>
</filter>
<filter id="filter2_ddi_2_476" x="161" y="228" width="126" height="38" filterUnits="userSpaceOnUse" color-interpolation-filters="sRGB">
<feFlood flood-opacity="0" result="BackgroundImageFix"/>
<feColorMatrix in="SourceAlpha" type="matrix" values="0 0 0 0 0 0 0 0 0 0 0 0 0 0 0 0 0 0 127 0" result="hardAlpha"/>
<feOffset dx="-4"/>
<feColorMatrix type="matrix" values="0 0 0 0 1 0 0 0 0 1 0 0 0 0 1 0 0 0 0.25 0"/>
<feBlend mode="normal" in2="BackgroundImageFix" result="effect1_dropShadow_2_476"/>
<feColorMatrix in="SourceAlpha" type="matrix" values="0 0 0 0 0 0 0 0 0 0 0 0 0 0 0 0 0 0 127 0" result="hardAlpha"/>
<feOffset dx="4"/>
<feColorMatrix type="matrix" values="0 0 0 0 0 0 0 0 0 0 0 0 0 0 0 0 0 0 0.25 0"/>
<feBlend mode="normal" in2="effect1_dropShadow_2_476" result="effect2_dropShadow_2_476"/>
<feBlend mode="normal" in="SourceGraphic" in2="effect2_dropShadow_2_476" result="shape"/>
<feColorMatrix in="SourceAlpha" type="matrix" values="0 0 0 0 0 0 0 0 0 0 0 0 0 0 0 0 0 0 127 0" result="hardAlpha"/>
<feOffset dx="-4"/>
<feComposite in2="hardAlpha" operator="arithmetic" k2="-1" k3="1"/>
<feColorMatrix type="matrix" values="0 0 0 0 0 0 0 0 0 0 0 0 0 0 0 0 0 0 0.25 0"/>
<feBlend mode="normal" in2="shape" result="effect3_innerShadow_2_476"/>
</filter>
<clipPath id="clip0_2_476">
<rect width="340" height="340" fill="white"/>
</clipPath>
<clipPath id="clip1_2_476">
<rect x="168" y="231" width="112" height="32" rx="16" fill="white"/>
</clipPath>
</defs>
</svg>
