<svg width="340" height="340" viewBox="0 0 340 340" fill="none" xmlns="http://www.w3.org/2000/svg">
<g filter="url(#filter0_i_37_412)">
<path d="M87.4673 101.339C53.5219 107.788 52.7814 66.0685 56.799 38.2727C56.9547 37.1956 55.4735 36.7106 54.8937 37.6317C-42.2539 191.974 34.623 317 174.27 317C269.546 317 330.699 257.475 331 172C331 116.165 318.526 66.567 288.542 37.7229C287.882 37.0878 286.798 37.6267 286.864 38.5405C289.034 68.9057 276.034 94.0505 247.598 86.2255C208.707 75.5235 248.985 22.0787 187.422 4.54221C186.631 4.31673 185.881 5.09449 186.174 5.86375C196.66 33.4324 190.136 54.9985 157.383 58.9048C124.749 62.7968 116.405 38.7209 124.514 9.76974C124.753 8.91748 123.832 8.20231 123.066 8.64705C81.9843 32.5242 124.115 94.3779 87.4673 101.339Z" fill="#E79834"/>
</g>
<path d="M87.4673 101.339C53.5219 107.788 52.7814 66.0685 56.799 38.2727C56.9547 37.1956 55.4735 36.7106 54.8937 37.6317C-42.2539 191.974 34.623 317 174.27 317C269.546 317 330.699 257.475 331 172C331 116.165 318.526 66.567 288.542 37.7229C287.882 37.0878 286.798 37.6267 286.864 38.5405C289.034 68.9057 276.034 94.0505 247.598 86.2255C208.707 75.5235 248.985 22.0787 187.422 4.54221C186.631 4.31673 185.881 5.09449 186.174 5.86375C196.66 33.4324 190.136 54.9985 157.383 58.9048C124.749 62.7968 116.405 38.7209 124.514 9.76974C124.753 8.91748 123.832 8.20231 123.066 8.64705C81.9843 32.5242 124.115 94.3779 87.4673 101.339Z" stroke="#1F2024" stroke-width="8" stroke-linejoin="round"/>
<path d="M150.148 78.4027C168.748 142.841 79.1025 162.497 49.8392 109.603C48.8875 107.883 46.1587 108.237 45.8356 110.177C26.5623 225.848 110.583 319.996 200.5 315.007C295.308 309.746 354.635 168.571 288.346 105.17C287.549 104.407 286.211 104.517 285.455 105.321C224.135 170.593 215.217 68.6246 151.822 75.7864C150.598 75.9248 149.806 77.2185 150.148 78.4027Z" fill="#F2C95C"/>
<path d="M150.148 78.4027C168.748 142.841 79.1025 162.497 49.8392 109.603C48.8875 107.883 46.1587 108.237 45.8356 110.177C26.5623 225.848 110.583 319.996 200.5 315.007C295.308 309.746 354.635 168.571 288.346 105.17C287.549 104.407 286.211 104.517 285.455 105.321C224.135 170.593 215.217 68.6246 151.822 75.7864C150.598 75.9248 149.806 77.2185 150.148 78.4027Z" fill="#F2C95C"/>
<path d="M205.735 131.006C199.49 179.332 265.917 184.49 282.984 144.164C283.749 142.357 286.52 142.313 287.098 144.188C312.567 226.808 260.429 304.264 193.567 310.167C122.807 316.414 63.8913 219.195 105.775 165.298C106.449 164.431 107.772 164.345 108.636 165.023C160.449 205.706 156.633 130.782 203.699 128.675C204.933 128.619 205.893 129.781 205.735 131.006Z" fill="#F9E174"/>
<g filter="url(#filter1_ii_37_412)">
<path fill-rule="evenodd" clip-rule="evenodd" d="M96 118C60.6538 118 32 146.654 32 182V228C32 263.346 60.6538 292 96 292H97.5186C97.7151 292.428 97.8402 292.888 97.8773 293.37L100.027 321.231C100.67 329.565 107.621 336 115.98 336H136.354C144.713 336 151.663 329.565 152.306 321.231L154.123 297.692C154.283 295.609 156.021 294 158.111 294H165.056C167.146 294 168.883 295.609 169.044 297.692L170.86 321.231C171.503 329.565 178.454 336 186.813 336H207.187C215.546 336 222.497 329.565 223.14 321.231L224.956 297.692C225.117 295.609 226.854 294 228.944 294H237.402C239.388 294 241.073 295.457 241.36 297.421L244.999 322.315C246.148 330.174 252.888 336 260.831 336H274.836C282.778 336 289.518 330.174 290.667 322.315L294.822 293.896C295.017 292.564 295.882 291.439 297.046 290.763C304.194 286.607 309 278.865 309 270V182C309 146.654 280.346 118 245 118H221H141H96Z" fill="url(#paint0_linear_37_412)"/>
</g>
<path d="M97.5186 292L101.153 290.329L100.082 288H97.5186V292ZM97.8773 293.37L93.8892 293.678H93.8892L97.8773 293.37ZM100.027 321.231L104.015 320.923L100.027 321.231ZM152.306 321.231L148.318 320.923L152.306 321.231ZM154.123 297.692L158.111 298L154.123 297.692ZM169.044 297.692L165.056 298L169.044 297.692ZM170.86 321.231L174.849 320.923L170.86 321.231ZM223.14 321.231L219.151 320.923L223.14 321.231ZM224.956 297.692L228.944 298L224.956 297.692ZM241.36 297.421L245.318 296.843L245.318 296.843L241.36 297.421ZM244.999 322.315L248.957 321.736L244.999 322.315ZM290.667 322.315L294.625 322.893L290.667 322.315ZM294.822 293.896L290.864 293.317V293.317L294.822 293.896ZM297.046 290.763L299.056 294.221L299.056 294.221L297.046 290.763ZM36 182C36 148.863 62.8629 122 96 122V114C58.4446 114 28 144.445 28 182H36ZM36 228V182H28V228H36ZM96 288C62.8629 288 36 261.137 36 228H28C28 265.555 58.4446 296 96 296V288ZM97.5186 288H96V296H97.5186V288ZM93.8842 293.671C93.8867 293.676 93.8882 293.68 93.8891 293.683C93.8901 293.685 93.8904 293.687 93.8904 293.687C93.8904 293.687 93.8902 293.686 93.8899 293.684C93.8896 293.682 93.8894 293.68 93.8892 293.678L101.865 293.063C101.79 292.086 101.537 291.165 101.153 290.329L93.8842 293.671ZM93.8892 293.678L96.0389 321.539L104.015 320.923L101.865 293.063L93.8892 293.678ZM96.0389 321.539C96.8428 331.957 105.531 340 115.98 340V332C109.71 332 104.498 327.174 104.015 320.923L96.0389 321.539ZM115.98 340H136.354V332H115.98V340ZM136.354 340C146.803 340 155.491 331.957 156.294 321.539L148.318 320.923C147.836 327.174 142.623 332 136.354 332V340ZM156.294 321.539L158.111 298L150.134 297.385L148.318 320.923L156.294 321.539ZM158.111 298V290C153.931 290 150.456 293.217 150.134 297.385L158.111 298ZM158.111 298H165.056V290H158.111V298ZM165.056 298L173.032 297.385C172.711 293.217 169.236 290 165.056 290V298ZM165.056 298L166.872 321.539L174.849 320.923L173.032 297.385L165.056 298ZM166.872 321.539C167.676 331.957 176.364 340 186.813 340V332C180.544 332 175.331 327.174 174.849 320.923L166.872 321.539ZM186.813 340H207.187V332H186.813V340ZM207.187 340C217.636 340 226.324 331.957 227.128 321.539L219.151 320.923C218.669 327.174 213.456 332 207.187 332V340ZM227.128 321.539L228.944 298L220.968 297.385L219.151 320.923L227.128 321.539ZM228.944 298V290C224.764 290 221.289 293.217 220.968 297.385L228.944 298ZM228.944 298H237.402V290H228.944V298ZM237.402 298L237.402 298L245.318 296.843C244.743 292.913 241.373 290 237.402 290V298ZM237.402 298L241.041 322.893L248.957 321.736L245.318 296.843L237.402 298ZM241.041 322.893C242.477 332.717 250.903 340 260.831 340V332C254.874 332 249.819 327.63 248.957 321.736L241.041 322.893ZM260.831 340H274.836V332H260.831V340ZM274.836 340C284.764 340 293.189 332.717 294.625 322.893L286.71 321.736C285.848 327.63 280.793 332 274.836 332V340ZM294.625 322.893L298.78 294.475L290.864 293.317L286.71 321.736L294.625 322.893ZM298.78 294.475C298.777 294.497 298.772 294.483 298.808 294.432C298.849 294.376 298.929 294.295 299.056 294.221L295.035 287.305C292.991 288.493 291.263 290.593 290.864 293.317L298.78 294.475ZM299.056 294.221C307.386 289.378 313 280.347 313 270H305C305 277.382 301.003 283.835 295.035 287.305L299.056 294.221ZM313 270V182H305V270H313ZM313 182C313 144.445 282.555 114 245 114V122C278.137 122 305 148.863 305 182H313ZM245 114H221V122H245V114ZM221 114H141V122H221V114ZM96 122H141V114H96V122Z" fill="#1F2024"/>
<g filter="url(#filter2_i_37_412)">
<path fill-rule="evenodd" clip-rule="evenodd" d="M164 117C133.072 117 108 142.072 108 173V270C108 278.389 112.304 285.772 118.824 290.063C119.965 290.814 120.772 292.008 120.877 293.37L123.027 321.231C123.67 329.565 130.621 336 138.98 336H159.354C167.713 336 174.663 329.565 175.306 321.231L177.123 297.692C177.283 295.609 179.021 294 181.111 294H188.056C190.146 294 191.883 295.609 192.044 297.692L193.86 321.231C194.503 329.565 201.454 336 209.813 336H230.187C238.546 336 245.497 329.565 246.14 321.231L247.956 297.692C248.117 295.609 249.854 294 251.944 294H260.402C262.388 294 264.073 295.457 264.36 297.421L267.999 322.315C269.148 330.174 275.888 336 283.831 336H297.836C305.778 336 312.518 330.174 313.667 322.315L317.919 293.233C318.104 291.971 318.891 290.891 319.964 290.201C326.602 285.932 331 278.48 331 270V168C331 139.833 308.167 117 280 117H164Z" fill="url(#paint1_linear_37_412)"/>
</g>
<path d="M123.027 321.231L119.039 321.539L123.027 321.231ZM175.306 321.231L171.318 320.923L175.306 321.231ZM193.86 321.231L197.849 320.923L193.86 321.231ZM246.14 321.231L242.151 320.923L246.14 321.231ZM267.999 322.315L271.957 321.736L267.999 322.315ZM313.667 322.315L309.71 321.736L313.667 322.315ZM264.36 297.421L268.318 296.843L264.36 297.421ZM118.824 290.063L116.625 293.404L118.824 290.063ZM120.877 293.37L116.889 293.678L120.877 293.37ZM247.956 297.692L243.968 297.385L247.956 297.692ZM317.919 293.233L313.961 292.654L317.919 293.233ZM319.964 290.201L317.8 286.837L319.964 290.201ZM192.044 297.692L188.056 298L192.044 297.692ZM177.123 297.692L181.111 298L177.123 297.692ZM112 173C112 144.281 135.281 121 164 121V113C130.863 113 104 139.863 104 173H112ZM112 270V173H104V270H112ZM121.022 286.721C115.579 283.139 112 276.987 112 270H104C104 279.791 109.028 288.405 116.625 293.404L121.022 286.721ZM127.015 320.923L124.865 293.063L116.889 293.678L119.039 321.539L127.015 320.923ZM138.98 332C132.71 332 127.498 327.174 127.015 320.923L119.039 321.539C119.843 331.957 128.531 340 138.98 340V332ZM159.354 332H138.98V340H159.354V332ZM171.318 320.923C170.836 327.174 165.623 332 159.354 332V340C169.803 340 178.491 331.957 179.294 321.539L171.318 320.923ZM173.134 297.385L171.318 320.923L179.294 321.539L181.111 298L173.134 297.385ZM188.056 290H181.111V298H188.056V290ZM197.849 320.923L196.032 297.385L188.056 298L189.872 321.539L197.849 320.923ZM209.813 332C203.544 332 198.331 327.174 197.849 320.923L189.872 321.539C190.676 331.957 199.364 340 209.813 340V332ZM230.187 332H209.813V340H230.187V332ZM242.151 320.923C241.669 327.174 236.456 332 230.187 332V340C240.636 340 249.324 331.957 250.128 321.539L242.151 320.923ZM243.968 297.385L242.151 320.923L250.128 321.539L251.944 298L243.968 297.385ZM260.402 290H251.944V298H260.402V290ZM260.402 298L264.041 322.893L271.957 321.736L268.318 296.843L260.402 298ZM264.041 322.893C265.477 332.717 273.903 340 283.831 340V332C277.874 332 272.819 327.63 271.957 321.736L264.041 322.893ZM283.831 340H297.836V332H283.831V340ZM297.836 340C307.764 340 316.189 332.717 317.625 322.893L309.71 321.736C308.848 327.63 303.793 332 297.836 332V340ZM317.625 322.893L321.877 293.811L313.961 292.654L309.71 321.736L317.625 322.893ZM327 270C327 277.062 323.343 283.272 317.8 286.837L322.127 293.566C329.862 288.591 335 279.897 335 270H327ZM327 168V270H335V168H327ZM280 121C305.957 121 327 142.043 327 168H335C335 137.624 310.376 113 280 113V121ZM164 121H280V113H164V121ZM260.402 298L268.318 296.843C267.743 292.913 264.373 290 260.402 290V298ZM116.625 293.404C116.75 293.486 116.826 293.574 116.863 293.633C116.897 293.686 116.891 293.7 116.889 293.678L124.865 293.063C124.651 290.277 123.027 288.04 121.022 286.721L116.625 293.404ZM251.944 298V290C247.764 290 244.289 293.217 243.968 297.385L251.944 298ZM321.877 293.811C321.874 293.833 321.87 293.819 321.903 293.771C321.939 293.719 322.01 293.641 322.127 293.566L317.8 286.837C315.912 288.051 314.338 290.075 313.961 292.654L321.877 293.811ZM188.056 298L196.032 297.385C195.711 293.217 192.236 290 188.056 290V298ZM181.111 298V290C176.931 290 173.456 293.217 173.134 297.385L181.111 298Z" fill="#1F2024"/>
<path d="M197 258C197 243.088 209.088 231 224 231C238.912 231 251 243.088 251 258V260.571C251 265.779 246.779 270 241.571 270H206.429C201.221 270 197 265.779 197 260.571V258Z" fill="#DE7E25" stroke="#1F2024" stroke-width="8"/>
<mask id="path-10-inside-1_37_412" fill="white">
<path fill-rule="evenodd" clip-rule="evenodd" d="M212.5 229.203C201.073 233.771 193 244.943 193 258V260.571C193 267.988 199.012 274 206.429 274H218.596C226.001 273.986 232 267.98 232 260.571V258C232 244.943 223.927 233.771 212.5 229.203Z"/>
</mask>
<path fill-rule="evenodd" clip-rule="evenodd" d="M212.5 229.203C201.073 233.771 193 244.943 193 258V260.571C193 267.988 199.012 274 206.429 274H218.596C226.001 273.986 232 267.98 232 260.571V258C232 244.943 223.927 233.771 212.5 229.203Z" fill="#1F2024"/>
<path d="M212.5 229.203L215.469 221.775L212.5 220.588L209.531 221.775L212.5 229.203ZM218.596 274V282H218.604L218.611 282L218.596 274ZM201 258C201 248.325 206.977 240.026 215.469 236.632L209.531 221.775C195.169 227.515 185 241.56 185 258H201ZM201 260.571V258H185V260.571H201ZM206.429 266C203.43 266 201 263.57 201 260.571H185C185 272.406 194.594 282 206.429 282V266ZM218.596 266H206.429V282H218.596V266ZM224 260.571C224 263.566 221.575 265.995 218.582 266L218.611 282C230.428 281.978 240 272.393 240 260.571H224ZM224 258V260.571H240V258H224ZM209.531 236.632C218.023 240.026 224 248.325 224 258H240C240 241.56 229.831 227.515 215.469 221.775L209.531 236.632Z" fill="#1F2024" mask="url(#path-10-inside-1_37_412)"/>
<path d="M98.5 288.5H120.5L125 333L104.5 333.5L98.5 288.5Z" fill="#1F2024" fill-opacity="0.35"/>
<path d="M175 294H192L196 333L175.5 333.5L175 294Z" fill="#1F2024" fill-opacity="0.35"/>
<path d="M246 294H263L267 333L246.5 333.5L246 294Z" fill="#1F2024" fill-opacity="0.35"/>
<path d="M25 202L29.1662 138L46.4488 97.5L62.7147 105H106.429L128.795 86L163.868 68C214.51 87.8224 243.432 97.5743 301 99.5C319.701 109.617 325.278 129.566 326.5 154C327.775 179.5 322.937 183.611 312.458 204.5L262.481 133.5C246.893 128.167 211.04 117.5 192.334 117.5C173.628 117.5 142.181 131.167 128.795 138L85.5887 191.5L94.5 260C55.1686 255.026 35.6692 234.954 25 202Z" fill="#E79834"/>
<path fill-rule="evenodd" clip-rule="evenodd" d="M49.8388 109.603C79.102 162.497 168.748 142.841 150.148 78.4027C149.806 77.2186 150.597 75.925 151.821 75.783C178.496 72.69 195.526 87.5905 210.873 101.019C232.033 119.533 249.994 135.248 285.625 97.1409C286.312 96.4058 287.508 96.2375 288.316 96.8386C316.274 117.66 322.473 155.611 314.078 194.098C288.539 172.048 249.948 158 206.765 158C186.316 158 154.174 176.796 134.685 188.192C125.041 193.831 118.496 197.659 118 196.5C117.764 195.949 117.54 195.361 117.317 194.775C116.123 191.637 114.949 188.551 112 191.5C86.0139 197.87 89.8454 222.391 93.7409 247.323C95.153 256.36 96.5734 265.451 96.5853 273.751C57.8477 236.212 34.7482 176.722 45.8353 110.176C46.1584 108.237 48.8871 107.883 49.8388 109.603Z" fill="#F2C95C"/>
<path d="M136 178C136 158.118 152.118 142 172 142H284C299.464 142 312 154.536 312 170V194C312 205.046 303.046 214 292 214H156C144.954 214 136 205.046 136 194V178Z" fill="#DE7E25" stroke="#1F2024" stroke-width="8"/>
<path d="M136 170C136 154.536 148.536 142 164 142H256C271.464 142 284 154.536 284 170V194C284 205.046 275.046 214 264 214H156C144.954 214 136 205.046 136 194V170Z" fill="#1F2024" stroke="#1F2024" stroke-width="8"/>
<rect x="173" y="167" width="90" height="24" rx="12" fill="#FE204F"/>
<rect x="196" y="175" width="56" height="8" rx="4" fill="white"/>
<g filter="url(#filter3_i_37_412)">
<circle cx="49" cy="209" r="36" fill="url(#paint2_linear_37_412)"/>
</g>
<circle cx="49" cy="209" r="36" stroke="#1F2024" stroke-width="8"/>
<path d="M59 185C62.6403 186.938 65.7524 190.074 68 194" stroke="white" stroke-width="8" stroke-linecap="round" stroke-linejoin="round"/>
<g filter="url(#filter4_i_37_412)">
<circle cx="29" cy="209" r="24" fill="url(#paint3_linear_37_412)"/>
</g>
<circle cx="29" cy="209" r="24" stroke="#1F2024" stroke-width="8"/>
<path d="M30 199C32.0224 200.077 33.7513 201.819 35 204" stroke="white" stroke-width="8" stroke-linecap="round" stroke-linejoin="round"/>
<path d="M108 170V180" stroke="#1F2024" stroke-width="8" stroke-linecap="round"/>
<path d="M108 192V203" stroke="#1F2024" stroke-width="8" stroke-linecap="round"/>
<path d="M108 155V156" stroke="#1F2024" stroke-width="8" stroke-linecap="round"/>
<defs>
<filter id="filter0_i_37_412" x="7.40039" y="0.505737" width="327.6" height="320.494" filterUnits="userSpaceOnUse" color-interpolation-filters="sRGB">
<feFlood flood-opacity="0" result="BackgroundImageFix"/>
<feBlend mode="normal" in="SourceGraphic" in2="BackgroundImageFix" result="shape"/>
<feColorMatrix in="SourceAlpha" type="matrix" values="0 0 0 0 0 0 0 0 0 0 0 0 0 0 0 0 0 0 127 0" result="hardAlpha"/>
<feOffset dx="17" dy="-12"/>
<feComposite in2="hardAlpha" operator="arithmetic" k2="-1" k3="1"/>
<feColorMatrix type="matrix" values="0 0 0 0 0 0 0 0 0 0 0 0 0 0 0 0 0 0 0.25 0"/>
<feBlend mode="normal" in2="shape" result="effect1_innerShadow_37_412"/>
</filter>
<filter id="filter1_ii_37_412" x="28" y="114" width="285" height="226" filterUnits="userSpaceOnUse" color-interpolation-filters="sRGB">
<feFlood flood-opacity="0" result="BackgroundImageFix"/>
<feBlend mode="normal" in="SourceGraphic" in2="BackgroundImageFix" result="shape"/>
<feColorMatrix in="SourceAlpha" type="matrix" values="0 0 0 0 0 0 0 0 0 0 0 0 0 0 0 0 0 0 127 0" result="hardAlpha"/>
<feOffset dy="-16"/>
<feComposite in2="hardAlpha" operator="arithmetic" k2="-1" k3="1"/>
<feColorMatrix type="matrix" values="0 0 0 0 0 0 0 0 0 0 0 0 0 0 0 0 0 0 0.3 0"/>
<feBlend mode="normal" in2="shape" result="effect1_innerShadow_37_412"/>
<feColorMatrix in="SourceAlpha" type="matrix" values="0 0 0 0 0 0 0 0 0 0 0 0 0 0 0 0 0 0 127 0" result="hardAlpha"/>
<feOffset dy="16"/>
<feComposite in2="hardAlpha" operator="arithmetic" k2="-1" k3="1"/>
<feColorMatrix type="matrix" values="0 0 0 0 1 0 0 0 0 1 0 0 0 0 1 0 0 0 0.75 0"/>
<feBlend mode="normal" in2="effect1_innerShadow_37_412" result="effect2_innerShadow_37_412"/>
</filter>
<filter id="filter2_i_37_412" x="104" y="113" width="231" height="227" filterUnits="userSpaceOnUse" color-interpolation-filters="sRGB">
<feFlood flood-opacity="0" result="BackgroundImageFix"/>
<feBlend mode="normal" in="SourceGraphic" in2="BackgroundImageFix" result="shape"/>
<feColorMatrix in="SourceAlpha" type="matrix" values="0 0 0 0 0 0 0 0 0 0 0 0 0 0 0 0 0 0 127 0" result="hardAlpha"/>
<feOffset dx="12" dy="-8"/>
<feComposite in2="hardAlpha" operator="arithmetic" k2="-1" k3="1"/>
<feColorMatrix type="matrix" values="0 0 0 0 0 0 0 0 0 0 0 0 0 0 0 0 0 0 0.25 0"/>
<feBlend mode="normal" in2="shape" result="effect1_innerShadow_37_412"/>
</filter>
<filter id="filter3_i_37_412" x="9" y="169" width="80" height="80" filterUnits="userSpaceOnUse" color-interpolation-filters="sRGB">
<feFlood flood-opacity="0" result="BackgroundImageFix"/>
<feBlend mode="normal" in="SourceGraphic" in2="BackgroundImageFix" result="shape"/>
<feColorMatrix in="SourceAlpha" type="matrix" values="0 0 0 0 0 0 0 0 0 0 0 0 0 0 0 0 0 0 127 0" result="hardAlpha"/>
<feOffset dx="12" dy="-16"/>
<feComposite in2="hardAlpha" operator="arithmetic" k2="-1" k3="1"/>
<feColorMatrix type="matrix" values="0 0 0 0 0 0 0 0 0 0 0 0 0 0 0 0 0 0 0.25 0"/>
<feBlend mode="normal" in2="shape" result="effect1_innerShadow_37_412"/>
</filter>
<filter id="filter4_i_37_412" x="1" y="181" width="56" height="56" filterUnits="userSpaceOnUse" color-interpolation-filters="sRGB">
<feFlood flood-opacity="0" result="BackgroundImageFix"/>
<feBlend mode="normal" in="SourceGraphic" in2="BackgroundImageFix" result="shape"/>
<feColorMatrix in="SourceAlpha" type="matrix" values="0 0 0 0 0 0 0 0 0 0 0 0 0 0 0 0 0 0 127 0" result="hardAlpha"/>
<feOffset dx="12" dy="-8"/>
<feComposite in2="hardAlpha" operator="arithmetic" k2="-1" k3="1"/>
<feColorMatrix type="matrix" values="0 0 0 0 0 0 0 0 0 0 0 0 0 0 0 0 0 0 0.25 0"/>
<feBlend mode="normal" in2="shape" result="effect1_innerShadow_37_412"/>
</filter>
<linearGradient id="paint0_linear_37_412" x1="170.5" y1="118" x2="170.5" y2="336" gradientUnits="userSpaceOnUse">
<stop offset="0.533915" stop-color="#F2C95C"/>
<stop offset="1" stop-color="#C1C1C1"/>
</linearGradient>
<linearGradient id="paint1_linear_37_412" x1="219.5" y1="117" x2="219.5" y2="336" gradientUnits="userSpaceOnUse">
<stop offset="0.336366" stop-color="#F2C95C"/>
<stop offset="0.710881" stop-color="#E3E3E3"/>
</linearGradient>
<linearGradient id="paint2_linear_37_412" x1="49" y1="173" x2="49" y2="245" gradientUnits="userSpaceOnUse">
<stop offset="0.336366" stop-color="#F2C95C"/>
<stop offset="0.710881" stop-color="#E3E3E3"/>
</linearGradient>
<linearGradient id="paint3_linear_37_412" x1="29" y1="185" x2="29" y2="233" gradientUnits="userSpaceOnUse">
<stop offset="0.336366" stop-color="#F2C95C"/>
<stop offset="0.710881" stop-color="#E3E3E3"/>
</linearGradient>
</defs>
</svg>
