<svg width="502" height="502" viewBox="0 0 502 502" fill="none" xmlns="http://www.w3.org/2000/svg">
<path d="M485.826 239.08L367.015 176.833H353.41L365.503 237.756L485.826 278.813V239.08Z" fill="#EB0D18" stroke="#1F2024" stroke-width="8" stroke-linejoin="round"/>
<rect width="12.0929" height="39.7324" transform="matrix(-1 0 0 1 497.918 239.08)" fill="#EB0D18" stroke="#1F2024" stroke-width="8" stroke-linejoin="round"/>
<g filter="url(#filter0_i_48_1238)">
<path d="M497.918 239.08L377.596 176.833V237.756L497.918 278.813V239.08Z" fill="#FE204F"/>
</g>
<path d="M497.918 239.08L377.596 176.833V237.756L497.918 278.813V239.08Z" stroke="#1F2024" stroke-width="8" stroke-linejoin="round"/>
<rect x="139.521" y="344.151" width="16.6274" height="10.5953" fill="#EB0D18" stroke="#1F2024" stroke-width="8" stroke-linejoin="round"/>
<rect x="156.147" y="344.151" width="161.741" height="10.5953" fill="#FE204F" stroke="#1F2024" stroke-width="8" stroke-linejoin="round"/>
<rect x="237.017" y="284.11" width="19.6507" height="30.0201" fill="#FF55A2" stroke="#1F2024" stroke-width="8" stroke-linejoin="round"/>
<rect x="209.809" y="336.204" width="19.6507" height="30.0201" fill="#EB0D18" stroke="#1F2024" stroke-width="8" stroke-linejoin="round"/>
<rect x="288.412" y="284.11" width="19.6508" height="30.0201" fill="#FF55A2" stroke="#1F2024" stroke-width="8" stroke-linejoin="round"/>
<rect x="261.203" y="336.204" width="19.6508" height="30.0201" fill="#EB0D18" stroke="#1F2024" stroke-width="8" stroke-linejoin="round"/>
<rect x="339.806" y="284.11" width="19.6508" height="30.0201" fill="#FF55A2" stroke="#1F2024" stroke-width="8" stroke-linejoin="round"/>
<rect x="312.597" y="336.204" width="19.6507" height="30.0201" fill="#EB0D18" stroke="#1F2024" stroke-width="8" stroke-linejoin="round"/>
<path fill-rule="evenodd" clip-rule="evenodd" d="M100.974 187.094C100.974 178.257 108.138 171.094 116.974 171.094H162.949V246.144H172.019L215.8 314.13H139.416L100.974 246.144V187.094Z" fill="#FF3979"/>
<path d="M162.949 171.094H166.949C166.949 168.884 165.159 167.094 162.949 167.094V171.094ZM162.949 246.144H158.949C158.949 248.353 160.74 250.144 162.949 250.144V246.144ZM172.019 246.144L175.382 243.978C174.646 242.835 173.379 242.144 172.019 242.144V246.144ZM215.8 314.13V318.13C217.263 318.13 218.61 317.331 219.311 316.046C220.012 314.761 219.955 313.195 219.163 311.965L215.8 314.13ZM139.416 314.13L135.934 316.099C136.644 317.354 137.974 318.13 139.416 318.13V314.13ZM100.974 246.144H96.9741C96.9741 246.834 97.1526 247.512 97.4922 248.113L100.974 246.144ZM116.974 167.094C105.928 167.094 96.9741 176.048 96.9741 187.094H104.974C104.974 180.466 110.347 175.094 116.974 175.094V167.094ZM162.949 167.094H116.974V175.094H162.949V167.094ZM166.949 246.144V171.094H158.949V246.144H166.949ZM172.019 242.144H162.949V250.144H172.019V242.144ZM219.163 311.965L175.382 243.978L168.656 248.309L212.437 316.296L219.163 311.965ZM139.416 318.13H215.8V310.13H139.416V318.13ZM97.4922 248.113L135.934 316.099L142.898 312.162L104.456 244.175L97.4922 248.113ZM96.9741 187.094V246.144H104.974V187.094H96.9741Z" fill="#1F2024"/>
<path d="M100.974 203.094C100.974 185.421 115.301 171.094 132.974 171.094H162.949V246.144H100.974V203.094Z" fill="#1F2024" fill-opacity="0.16"/>
<path fill-rule="evenodd" clip-rule="evenodd" d="M310.662 354.746H139.416L155.391 383H298.237L310.662 354.746Z" fill="#EB0D18"/>
<path d="M139.416 354.746V350.746C137.993 350.746 136.677 351.501 135.96 352.73C135.244 353.959 135.233 355.476 135.934 356.715L139.416 354.746ZM310.662 354.746L314.324 356.356C314.868 355.119 314.751 353.691 314.012 352.56C313.274 351.428 312.014 350.746 310.662 350.746V354.746ZM155.391 383L151.909 384.969C152.619 386.224 153.949 387 155.391 387V383ZM298.237 383V387C299.823 387 301.26 386.062 301.898 384.61L298.237 383ZM139.416 358.746H310.662V350.746H139.416V358.746ZM135.934 356.715L151.909 384.969L158.873 381.031L142.897 352.777L135.934 356.715ZM155.391 387H298.237V379H155.391V387ZM301.898 384.61L314.324 356.356L307.001 353.136L294.575 381.39L301.898 384.61Z" fill="#1F2024"/>
<path fill-rule="evenodd" clip-rule="evenodd" d="M162.95 171.094H402.537V246.144L372.638 314.13H355.026V295.589H327.817V314.13H303.632V295.589H276.423V314.13H252.238V295.589H225.029V314.13H201.391L162.95 246.144V171.094Z" fill="#FF71C6"/>
<path d="M402.537 171.094H406.537C406.537 168.884 404.746 167.094 402.537 167.094V171.094ZM162.95 171.094V167.094C160.741 167.094 158.95 168.884 158.95 171.094H162.95ZM402.537 246.144L406.199 247.754C406.422 247.247 406.537 246.698 406.537 246.144H402.537ZM372.638 314.13V318.13C374.225 318.13 375.661 317.193 376.3 315.741L372.638 314.13ZM355.026 314.13H351.026C351.026 316.34 352.817 318.13 355.026 318.13V314.13ZM355.026 295.589H359.026C359.026 293.379 357.235 291.589 355.026 291.589V295.589ZM327.817 295.589V291.589C325.608 291.589 323.817 293.379 323.817 295.589H327.817ZM327.817 314.13V318.13C330.026 318.13 331.817 316.34 331.817 314.13H327.817ZM303.632 314.13H299.632C299.632 316.34 301.423 318.13 303.632 318.13V314.13ZM303.632 295.589H307.632C307.632 293.379 305.841 291.589 303.632 291.589V295.589ZM276.423 295.589V291.589C274.214 291.589 272.423 293.379 272.423 295.589H276.423ZM276.423 314.13V318.13C278.632 318.13 280.423 316.34 280.423 314.13H276.423ZM252.238 314.13H248.238C248.238 316.34 250.029 318.13 252.238 318.13V314.13ZM252.238 295.589H256.238C256.238 293.379 254.447 291.589 252.238 291.589V295.589ZM225.029 295.589V291.589C222.82 291.589 221.029 293.379 221.029 295.589H225.029ZM225.029 314.13V318.13C227.238 318.13 229.029 316.34 229.029 314.13H225.029ZM201.391 314.13L197.909 316.099C198.619 317.354 199.949 318.13 201.391 318.13V314.13ZM162.95 246.144H158.95C158.95 246.834 159.128 247.512 159.468 248.113L162.95 246.144ZM402.537 167.094H162.95V175.094H402.537V167.094ZM406.537 246.144V171.094H398.537V246.144H406.537ZM376.3 315.741L406.199 247.754L398.876 244.534L368.977 312.52L376.3 315.741ZM372.638 310.13H355.026V318.13H372.638V310.13ZM359.026 314.13V295.589H351.026V314.13H359.026ZM355.026 291.589H327.817V299.589H355.026V291.589ZM323.817 295.589V314.13H331.817V295.589H323.817ZM327.817 310.13H303.632V318.13H327.817V310.13ZM307.632 314.13V295.589H299.632V314.13H307.632ZM303.632 291.589H276.423V299.589H303.632V291.589ZM272.423 295.589V314.13H280.423V295.589H272.423ZM276.423 310.13H252.238V318.13H276.423V310.13ZM256.238 314.13V295.589H248.238V314.13H256.238ZM252.238 291.589H225.029V299.589H252.238V291.589ZM221.029 295.589V314.13H229.029V295.589H221.029ZM225.029 310.13H201.391V318.13H225.029V310.13ZM159.468 248.113L197.909 316.099L204.873 312.162L166.432 244.175L159.468 248.113ZM158.95 171.094V246.144H166.95V171.094H158.95Z" fill="#1F2024"/>
<path d="M187.135 119L254.553 168.666H119.718L187.135 119Z" fill="#EB0D18" stroke="#1F2024" stroke-width="8" stroke-linejoin="round"/>
<g filter="url(#filter1_i_48_1238)">
<path d="M187.135 119L254.553 168.666H161.816L187.135 119Z" fill="#FE204F"/>
</g>
<path d="M187.135 119L254.553 168.666H161.816L187.135 119Z" stroke="#1F2024" stroke-width="8" stroke-linejoin="round"/>
<path d="M322.423 119L389.84 168.666H255.005L322.423 119Z" fill="#EB0D18" stroke="#1F2024" stroke-width="8" stroke-linejoin="round"/>
<g filter="url(#filter2_i_48_1238)">
<path d="M322.423 119L389.841 168.666H297.104L322.423 119Z" fill="#FE204F"/>
</g>
<path d="M322.423 119L389.841 168.666H297.104L322.423 119Z" stroke="#1F2024" stroke-width="8" stroke-linejoin="round"/>
<path d="M4.08105 239.08L122.892 176.833H136.497L124.404 237.756L4.08105 278.813V239.08Z" fill="#EB0D18" stroke="#1F2024" stroke-width="8" stroke-linejoin="round"/>
<g filter="url(#filter3_i_48_1238)">
<path d="M16.1738 239.08L136.497 176.833V237.756L16.1738 278.813V239.08Z" fill="#FE204F"/>
</g>
<path d="M16.1738 239.08L136.497 176.833V237.756L16.1738 278.813V239.08Z" stroke="#1F2024" stroke-width="8" stroke-linejoin="round"/>
<rect x="4.08105" y="239.08" width="12.0927" height="39.7324" fill="#EB0D18" stroke="#1F2024" stroke-width="8" stroke-linejoin="round"/>
<path fill-rule="evenodd" clip-rule="evenodd" d="M252.134 336.204H224.925V354.746H201.392L217.367 383H360.213L372.638 354.746H354.922V336.204H327.714V354.746H303.528V336.204H276.319V354.746H252.134V336.204Z" fill="#FE204F"/>
<path d="M224.925 336.204V332.204C222.716 332.204 220.925 333.995 220.925 336.204H224.925ZM252.134 336.204H256.134C256.134 333.995 254.343 332.204 252.134 332.204V336.204ZM224.925 354.746V358.746C227.134 358.746 228.925 356.955 228.925 354.746H224.925ZM201.392 354.746V350.746C199.969 350.746 198.653 351.501 197.937 352.73C197.22 353.959 197.209 355.476 197.91 356.715L201.392 354.746ZM217.367 383L213.885 384.969C214.595 386.224 215.925 387 217.367 387V383ZM360.213 383V387C361.799 387 363.236 386.062 363.874 384.61L360.213 383ZM372.638 354.746L376.3 356.356C376.844 355.119 376.727 353.691 375.988 352.56C375.25 351.428 373.99 350.746 372.638 350.746V354.746ZM354.922 354.746H350.922C350.922 356.955 352.713 358.746 354.922 358.746V354.746ZM354.922 336.204H358.922C358.922 333.995 357.131 332.204 354.922 332.204V336.204ZM327.714 336.204V332.204C325.505 332.204 323.714 333.995 323.714 336.204H327.714ZM327.714 354.746V358.746C329.923 358.746 331.714 356.955 331.714 354.746H327.714ZM303.528 354.746H299.528C299.528 356.955 301.319 358.746 303.528 358.746V354.746ZM303.528 336.204H307.528C307.528 333.995 305.737 332.204 303.528 332.204V336.204ZM276.319 336.204V332.204C274.11 332.204 272.319 333.995 272.319 336.204H276.319ZM276.319 354.746V358.746C278.529 358.746 280.319 356.955 280.319 354.746H276.319ZM252.134 354.746H248.134C248.134 356.955 249.925 358.746 252.134 358.746V354.746ZM224.925 340.204H252.134V332.204H224.925V340.204ZM228.925 354.746V336.204H220.925V354.746H228.925ZM201.392 358.746H224.925V350.746H201.392V358.746ZM220.849 381.031L204.874 352.777L197.91 356.715L213.885 384.969L220.849 381.031ZM360.213 379H217.367V387H360.213V379ZM368.977 353.136L356.551 381.39L363.874 384.61L376.3 356.356L368.977 353.136ZM354.922 358.746H372.638V350.746H354.922V358.746ZM350.922 336.204V354.746H358.922V336.204H350.922ZM327.714 340.204H354.922V332.204H327.714V340.204ZM331.714 354.746V336.204H323.714V354.746H331.714ZM303.528 358.746H327.714V350.746H303.528V358.746ZM299.528 336.204V354.746H307.528V336.204H299.528ZM276.319 340.204H303.528V332.204H276.319V340.204ZM280.319 354.746V336.204H272.319V354.746H280.319ZM252.134 358.746H276.319V350.746H252.134V358.746ZM248.134 336.204V354.746H256.134V336.204H248.134Z" fill="#1F2024"/>
<ellipse rx="43.8362" ry="31.3445" transform="matrix(-1 0 0 1 348.119 241.288)" fill="#1F2024" fill-opacity="0.35"/>
<path d="M309.795 234.224C309.795 241.363 313.588 248.111 320.282 253.205C326.979 258.301 336.407 261.569 346.986 261.569C357.565 261.569 366.993 258.301 373.69 253.205C380.384 248.111 384.177 241.363 384.177 234.224C384.177 227.085 380.384 220.337 373.69 215.243C366.993 210.147 357.565 206.88 346.986 206.88C336.407 206.88 326.979 210.147 320.282 215.243C313.588 220.337 309.795 227.085 309.795 234.224Z" fill="#EB0D18" stroke="#1F2024" stroke-width="8"/>
<path d="M332.469 227.602C332.469 235.752 338.006 241.261 343.585 241.261C349.163 241.261 354.701 235.752 354.701 227.602C354.701 219.452 349.163 213.943 343.585 213.943C338.006 213.943 332.469 219.452 332.469 227.602Z" fill="#1F2024" stroke="#1F2024" stroke-width="8"/>
<ellipse cx="332.248" cy="234.666" rx="5.29057" ry="6.18061" fill="white"/>
<ellipse rx="6.80225" ry="7.94649" transform="matrix(-1 0 0 1 352.654 219.656)" fill="white"/>
<path d="M385.531 196.258L393.845 241.729L308.818 196.258H385.531Z" fill="#FF71C6"/>
<path d="M316.754 197.141L394.601 239.963" stroke="#1F2024" stroke-width="8" stroke-linecap="round"/>
<ellipse cx="230.216" cy="241.288" rx="43.8362" ry="31.3445" fill="#1F2024" fill-opacity="0.35"/>
<path d="M268.54 234.224C268.54 241.363 264.747 248.111 258.053 253.205C251.356 258.301 241.928 261.569 231.349 261.569C220.77 261.569 211.342 258.301 204.645 253.205C197.951 248.111 194.158 241.363 194.158 234.224C194.158 227.085 197.951 220.337 204.645 215.243C211.342 210.147 220.77 206.88 231.349 206.88C241.928 206.88 251.356 210.147 258.053 215.243C264.747 220.337 268.54 227.085 268.54 234.224Z" fill="#EB0D18" stroke="#1F2024" stroke-width="8"/>
<path d="M245.866 227.602C245.866 235.752 240.329 241.261 234.75 241.261C229.172 241.261 223.634 235.752 223.634 227.602C223.634 219.452 229.172 213.943 234.75 213.943C240.329 213.943 245.866 219.452 245.866 227.602Z" fill="#1F2024" stroke="#1F2024" stroke-width="8"/>
<ellipse cx="246.087" cy="219.656" rx="6.80221" ry="7.94649" fill="white"/>
<ellipse cx="224.925" cy="238.197" rx="5.29057" ry="6.18061" fill="white"/>
<path d="M192.803 196.258L184.49 241.729L269.517 196.258H192.803Z" fill="#FF71C6"/>
<path d="M261.581 197.141L183.734 239.963" stroke="#1F2024" stroke-width="8" stroke-linecap="round"/>
<defs>
<filter id="filter0_i_48_1238" x="373.596" y="172.833" width="128.323" height="109.98" filterUnits="userSpaceOnUse" color-interpolation-filters="sRGB">
<feFlood flood-opacity="0" result="BackgroundImageFix"/>
<feBlend mode="normal" in="SourceGraphic" in2="BackgroundImageFix" result="shape"/>
<feColorMatrix in="SourceAlpha" type="matrix" values="0 0 0 0 0 0 0 0 0 0 0 0 0 0 0 0 0 0 127 0" result="hardAlpha"/>
<feOffset dy="16"/>
<feComposite in2="hardAlpha" operator="arithmetic" k2="-1" k3="1"/>
<feColorMatrix type="matrix" values="0 0 0 0 1 0 0 0 0 1 0 0 0 0 1 0 0 0 0.25 0"/>
<feBlend mode="normal" in2="shape" result="effect1_innerShadow_48_1238"/>
</filter>
<filter id="filter1_i_48_1238" x="157.816" y="115" width="100.737" height="57.6655" filterUnits="userSpaceOnUse" color-interpolation-filters="sRGB">
<feFlood flood-opacity="0" result="BackgroundImageFix"/>
<feBlend mode="normal" in="SourceGraphic" in2="BackgroundImageFix" result="shape"/>
<feColorMatrix in="SourceAlpha" type="matrix" values="0 0 0 0 0 0 0 0 0 0 0 0 0 0 0 0 0 0 127 0" result="hardAlpha"/>
<feOffset dx="-16" dy="8"/>
<feComposite in2="hardAlpha" operator="arithmetic" k2="-1" k3="1"/>
<feColorMatrix type="matrix" values="0 0 0 0 1 0 0 0 0 1 0 0 0 0 1 0 0 0 0.25 0"/>
<feBlend mode="normal" in2="shape" result="effect1_innerShadow_48_1238"/>
</filter>
<filter id="filter2_i_48_1238" x="293.104" y="115" width="100.737" height="57.6655" filterUnits="userSpaceOnUse" color-interpolation-filters="sRGB">
<feFlood flood-opacity="0" result="BackgroundImageFix"/>
<feBlend mode="normal" in="SourceGraphic" in2="BackgroundImageFix" result="shape"/>
<feColorMatrix in="SourceAlpha" type="matrix" values="0 0 0 0 0 0 0 0 0 0 0 0 0 0 0 0 0 0 127 0" result="hardAlpha"/>
<feOffset dx="-16" dy="8"/>
<feComposite in2="hardAlpha" operator="arithmetic" k2="-1" k3="1"/>
<feColorMatrix type="matrix" values="0 0 0 0 1 0 0 0 0 1 0 0 0 0 1 0 0 0 0.25 0"/>
<feBlend mode="normal" in2="shape" result="effect1_innerShadow_48_1238"/>
</filter>
<filter id="filter3_i_48_1238" x="12.1738" y="172.833" width="128.323" height="109.98" filterUnits="userSpaceOnUse" color-interpolation-filters="sRGB">
<feFlood flood-opacity="0" result="BackgroundImageFix"/>
<feBlend mode="normal" in="SourceGraphic" in2="BackgroundImageFix" result="shape"/>
<feColorMatrix in="SourceAlpha" type="matrix" values="0 0 0 0 0 0 0 0 0 0 0 0 0 0 0 0 0 0 127 0" result="hardAlpha"/>
<feOffset dy="16"/>
<feComposite in2="hardAlpha" operator="arithmetic" k2="-1" k3="1"/>
<feColorMatrix type="matrix" values="0 0 0 0 1 0 0 0 0 1 0 0 0 0 1 0 0 0 0.25 0"/>
<feBlend mode="normal" in2="shape" result="effect1_innerShadow_48_1238"/>
</filter>
</defs>
</svg>
