<svg width="502" height="502" viewBox="0 0 502 502" fill="none" xmlns="http://www.w3.org/2000/svg">
<rect x="237.018" y="283.136" width="19.6507" height="29.1371" fill="#FF55A2" stroke="#1F2024" stroke-width="8" stroke-linejoin="round"/>
<rect x="288.412" y="283.136" width="19.6508" height="29.1371" fill="#FF55A2" stroke="#1F2024" stroke-width="8" stroke-linejoin="round"/>
<rect x="339.806" y="283.136" width="19.6507" height="29.1371" fill="#FF55A2" stroke="#1F2024" stroke-width="8" stroke-linejoin="round"/>
<path fill-rule="evenodd" clip-rule="evenodd" d="M100.975 173.444H162.95V246.287H172.019L215.8 312.274H139.416L100.975 246.287V173.444Z" fill="#FF55A2"/>
<path d="M162.95 173.444H166.95C166.95 171.235 165.159 169.444 162.95 169.444V173.444ZM100.975 173.444V169.444C98.7655 169.444 96.9746 171.235 96.9746 173.444H100.975ZM162.95 246.287H158.95C158.95 248.496 160.741 250.287 162.95 250.287V246.287ZM172.019 246.287L175.353 244.075C174.611 242.958 173.36 242.287 172.019 242.287V246.287ZM215.8 312.274V316.274C217.274 316.274 218.628 315.463 219.325 314.165C220.022 312.867 219.948 311.29 219.133 310.062L215.8 312.274ZM139.416 312.274L135.96 314.287C136.676 315.517 137.993 316.274 139.416 316.274V312.274ZM100.975 246.287H96.9746C96.9746 246.994 97.1622 247.689 97.5183 248.3L100.975 246.287ZM162.95 169.444H100.975V177.444H162.95V169.444ZM166.95 246.287V173.444H158.95V246.287H166.95ZM172.019 242.287H162.95V250.287H172.019V242.287ZM219.133 310.062L175.353 244.075L168.686 248.498L212.467 314.485L219.133 310.062ZM139.416 316.274H215.8V308.274H139.416V316.274ZM97.5183 248.3L135.96 314.287L142.872 310.26L104.431 244.273L97.5183 248.3ZM96.9746 173.444V246.287H104.975V173.444H96.9746Z" fill="#1F2024"/>
<rect x="100.975" y="173.444" width="61.9753" height="72.8428" fill="#1F2024" fill-opacity="0.16"/>
<path fill-rule="evenodd" clip-rule="evenodd" d="M485.826 176.067L497.918 176.067V137.503H485.826H485.825V137.503L365.503 179.014V238.145H377.596L485.826 176.067Z" fill="#FE204F"/>
<path d="M485.826 176.067V172.067C485.127 172.067 484.441 172.249 483.836 172.597L485.826 176.067ZM497.918 176.067V180.067C498.979 180.067 499.996 179.645 500.746 178.895C501.497 178.145 501.918 177.128 501.918 176.067H497.918ZM497.918 137.503H501.918C501.918 135.294 500.127 133.503 497.918 133.503V137.503ZM485.825 137.503V133.503C483.616 133.503 481.825 135.294 481.825 137.503H485.825ZM485.825 137.503L487.13 141.284C488.743 140.728 489.825 139.209 489.825 137.503H485.825ZM365.503 179.014L364.198 175.233C362.585 175.789 361.503 177.308 361.503 179.014H365.503ZM365.503 238.145H361.503C361.503 240.354 363.294 242.145 365.503 242.145V238.145ZM377.596 238.145V242.145C378.294 242.145 378.98 241.963 379.586 241.615L377.596 238.145ZM485.826 180.067L497.918 180.067V172.067L485.826 172.067V180.067ZM501.918 176.067V137.503H493.918V176.067H501.918ZM497.918 133.503H485.826V141.503H497.918V133.503ZM485.826 133.503H485.825V141.503H485.826V133.503ZM481.825 137.503V137.503H489.825V137.503H481.825ZM484.521 133.722L364.198 175.233L366.807 182.795L487.13 141.284L484.521 133.722ZM361.503 179.014V238.145H369.503V179.014H361.503ZM365.503 242.145H377.596V234.145H365.503V242.145ZM379.586 241.615L487.816 179.536L483.836 172.597L375.605 234.676L379.586 241.615Z" fill="#1F2024"/>
<g filter="url(#filter0_i_48_1239)">
<path d="M497.918 137.503L377.596 179.014V238.145L497.918 176.067V137.503Z" fill="#FE204F"/>
</g>
<path d="M497.918 137.503L377.596 179.014V238.145L497.918 176.067V137.503Z" stroke="#1F2024" stroke-width="8" stroke-linejoin="round"/>
<path fill-rule="evenodd" clip-rule="evenodd" d="M162.95 173.444H402.537V246.287L372.638 312.274H355.026V294.277H327.817V312.274H303.632V294.277H276.423V312.274H252.238V294.277H225.029V312.274H201.391L162.95 246.287V173.444Z" fill="#FF8BE6"/>
<path d="M402.537 173.444H406.537C406.537 171.235 404.746 169.444 402.537 169.444V173.444ZM162.95 173.444V169.444C160.741 169.444 158.95 171.235 158.95 173.444H162.95ZM402.537 246.287L406.181 247.938C406.416 247.419 406.537 246.856 406.537 246.287H402.537ZM372.638 312.274V316.274C374.208 316.274 375.633 315.355 376.282 313.925L372.638 312.274ZM355.026 312.274H351.026C351.026 314.483 352.817 316.274 355.026 316.274V312.274ZM355.026 294.277H359.026C359.026 292.068 357.235 290.277 355.026 290.277V294.277ZM327.817 294.277V290.277C325.608 290.277 323.817 292.068 323.817 294.277H327.817ZM327.817 312.274V316.274C330.026 316.274 331.817 314.483 331.817 312.274H327.817ZM303.632 312.274H299.632C299.632 314.483 301.423 316.274 303.632 316.274V312.274ZM303.632 294.277H307.632C307.632 292.068 305.841 290.277 303.632 290.277V294.277ZM276.423 294.277V290.277C274.214 290.277 272.423 292.068 272.423 294.277H276.423ZM276.423 312.274V316.274C278.632 316.274 280.423 314.483 280.423 312.274H276.423ZM252.238 312.274H248.238C248.238 314.483 250.029 316.274 252.238 316.274V312.274ZM252.238 294.277H256.238C256.238 292.068 254.447 290.277 252.238 290.277V294.277ZM225.029 294.277V290.277C222.82 290.277 221.029 292.068 221.029 294.277H225.029ZM225.029 312.274V316.274C227.238 316.274 229.029 314.483 229.029 312.274H225.029ZM201.391 312.274L197.935 314.287C198.652 315.517 199.968 316.274 201.391 316.274V312.274ZM162.95 246.287H158.95C158.95 246.994 159.137 247.689 159.493 248.3L162.95 246.287ZM402.537 169.444H162.95V177.444H402.537V169.444ZM406.537 246.287V173.444H398.537V246.287H406.537ZM376.282 313.925L406.181 247.938L398.894 244.636L368.995 310.623L376.282 313.925ZM372.638 308.274H355.026V316.274H372.638V308.274ZM359.026 312.274V294.277H351.026V312.274H359.026ZM355.026 290.277H327.817V298.277H355.026V290.277ZM323.817 294.277V312.274H331.817V294.277H323.817ZM327.817 308.274H303.632V316.274H327.817V308.274ZM307.632 312.274V294.277H299.632V312.274H307.632ZM303.632 290.277H276.423V298.277H303.632V290.277ZM272.423 294.277V312.274H280.423V294.277H272.423ZM276.423 308.274H252.238V316.274H276.423V308.274ZM256.238 312.274V294.277H248.238V312.274H256.238ZM252.238 290.277H225.029V298.277H252.238V290.277ZM221.029 294.277V312.274H229.029V294.277H221.029ZM225.029 308.274H201.391V316.274H225.029V308.274ZM159.493 248.3L197.935 314.287L204.848 310.26L166.406 244.273L159.493 248.3ZM158.95 173.444V246.287H166.95V173.444H158.95Z" fill="#1F2024"/>
<path d="M187.135 122.882L254.553 171.087H119.718L187.135 122.882Z" fill="#EB0D18" stroke="#1F2024" stroke-width="8" stroke-linejoin="round"/>
<g filter="url(#filter1_i_48_1239)">
<path d="M187.135 122.882L254.553 171.087H161.816L187.135 122.882Z" fill="#FE204F"/>
</g>
<path d="M187.135 122.882L254.553 171.087H161.816L187.135 122.882Z" stroke="#1F2024" stroke-width="8" stroke-linejoin="round"/>
<path d="M322.423 122.882L389.84 171.087H255.005L322.423 122.882Z" fill="#EB0D18" stroke="#1F2024" stroke-width="8" stroke-linejoin="round"/>
<g filter="url(#filter2_i_48_1239)">
<path d="M322.423 122.882L389.84 171.087H297.104L322.423 122.882Z" fill="#FE204F"/>
</g>
<path d="M322.423 122.882L389.84 171.087H297.104L322.423 122.882Z" stroke="#1F2024" stroke-width="8" stroke-linejoin="round"/>
<path d="M4.08154 137.503L136.497 238.145H124.404L4.08154 176.067V137.503Z" fill="#EB0D18" stroke="#1F2024" stroke-width="8" stroke-linejoin="round"/>
<g filter="url(#filter3_i_48_1239)">
<path d="M16.1738 137.503L136.497 179.014V238.145L16.1738 176.067V137.503Z" fill="#FE204F"/>
</g>
<path d="M16.1738 137.503L136.497 179.014V238.145L16.1738 176.067V137.503Z" stroke="#1F2024" stroke-width="8" stroke-linejoin="round"/>
<rect x="4.08154" y="137.503" width="12.0927" height="38.5638" fill="#EB0D18" stroke="#1F2024" stroke-width="8" stroke-linejoin="round"/>
<rect x="139.52" y="341.411" width="16.6275" height="10.2837" fill="#EB0D18" stroke="#1F2024" stroke-width="8" stroke-linejoin="round"/>
<rect x="156.147" y="341.411" width="161.74" height="10.2837" fill="#FE204F" stroke="#1F2024" stroke-width="8" stroke-linejoin="round"/>
<rect x="209.809" y="333.698" width="19.6507" height="29.1371" fill="#EB0D18" stroke="#1F2024" stroke-width="8" stroke-linejoin="round"/>
<rect x="261.203" y="333.698" width="19.6507" height="29.1371" fill="#EB0D18" stroke="#1F2024" stroke-width="8" stroke-linejoin="round"/>
<rect x="312.598" y="333.698" width="19.6507" height="29.1371" fill="#EB0D18" stroke="#1F2024" stroke-width="8" stroke-linejoin="round"/>
<path fill-rule="evenodd" clip-rule="evenodd" d="M310.663 351.694H139.416L155.392 379.118H298.237L310.663 351.694Z" fill="#EB0D18"/>
<path d="M139.416 351.694V347.694C137.984 347.694 136.662 348.46 135.948 349.701C135.235 350.943 135.239 352.471 135.96 353.708L139.416 351.694ZM310.663 351.694L314.306 353.345C314.867 352.107 314.761 350.669 314.025 349.527C313.288 348.385 312.022 347.694 310.663 347.694V351.694ZM155.392 379.118L151.935 381.131C152.652 382.361 153.968 383.118 155.392 383.118V379.118ZM298.237 379.118V383.118C299.808 383.118 301.233 382.199 301.881 380.768L298.237 379.118ZM139.416 355.694H310.663V347.694H139.416V355.694ZM135.96 353.708L151.935 381.131L158.848 377.104L142.872 349.681L135.96 353.708ZM155.392 383.118H298.237V375.118H155.392V383.118ZM301.881 380.768L314.306 353.345L307.019 350.044L294.594 377.467L301.881 380.768Z" fill="#1F2024"/>
<path fill-rule="evenodd" clip-rule="evenodd" d="M252.134 333.698H224.925V351.694H201.392L217.367 379.118H360.213L372.638 351.694H354.922V333.698H327.714V351.694H303.528V333.698H276.319V351.694H252.134V333.698Z" fill="#FE204F"/>
<path d="M224.925 333.698V329.698C222.716 329.698 220.925 331.489 220.925 333.698H224.925ZM252.134 333.698H256.134C256.134 331.489 254.343 329.698 252.134 329.698V333.698ZM224.925 351.694V355.694C227.134 355.694 228.925 353.904 228.925 351.694H224.925ZM201.392 351.694V347.694C199.96 347.694 198.637 348.46 197.924 349.701C197.21 350.943 197.215 352.471 197.935 353.708L201.392 351.694ZM217.367 379.118L213.911 381.131C214.628 382.361 215.944 383.118 217.367 383.118V379.118ZM360.213 379.118V383.118C361.783 383.118 363.208 382.199 363.856 380.768L360.213 379.118ZM372.638 351.694L376.282 353.345C376.843 352.107 376.737 350.669 376 349.527C375.264 348.385 373.998 347.694 372.638 347.694V351.694ZM354.922 351.694H350.922C350.922 353.904 352.713 355.694 354.922 355.694V351.694ZM354.922 333.698H358.922C358.922 331.489 357.131 329.698 354.922 329.698V333.698ZM327.714 333.698V329.698C325.504 329.698 323.714 331.489 323.714 333.698H327.714ZM327.714 351.694V355.694C329.923 355.694 331.714 353.904 331.714 351.694H327.714ZM303.528 351.694H299.528C299.528 353.904 301.319 355.694 303.528 355.694V351.694ZM303.528 333.698H307.528C307.528 331.489 305.737 329.698 303.528 329.698V333.698ZM276.319 333.698V329.698C274.11 329.698 272.319 331.489 272.319 333.698H276.319ZM276.319 351.694V355.694C278.529 355.694 280.319 353.904 280.319 351.694H276.319ZM252.134 351.694H248.134C248.134 353.904 249.925 355.694 252.134 355.694V351.694ZM224.925 337.698H252.134V329.698H224.925V337.698ZM228.925 351.694V333.698H220.925V351.694H228.925ZM201.392 355.694H224.925V347.694H201.392V355.694ZM220.824 377.104L204.848 349.681L197.935 353.708L213.911 381.131L220.824 377.104ZM360.213 375.118H217.367V383.118H360.213V375.118ZM368.995 350.044L356.569 377.467L363.856 380.768L376.282 353.345L368.995 350.044ZM354.922 355.694H372.638V347.694H354.922V355.694ZM350.922 333.698V351.694H358.922V333.698H350.922ZM327.714 337.698H354.922V329.698H327.714V337.698ZM331.714 351.694V333.698H323.714V351.694H331.714ZM303.528 355.694H327.714V347.694H303.528V355.694ZM299.528 333.698V351.694H307.528V333.698H299.528ZM276.319 337.698H303.528V329.698H276.319V337.698ZM280.319 351.694V333.698H272.319V351.694H280.319ZM252.134 355.694H276.319V347.694H252.134V355.694ZM248.134 333.698V351.694H256.134V333.698H248.134Z" fill="#1F2024"/>
<path d="M193.938 215.864C196.583 260.427 234.75 261.284 261.203 241.145L193.938 215.864Z" fill="#EB0D18"/>
<path d="M261.203 241.145C234.75 261.284 196.583 260.427 193.938 215.864L261.203 241.145ZM261.203 241.145L277.831 247.144" stroke="#1F2024" stroke-width="8" stroke-linecap="round" stroke-linejoin="round"/>
<path d="M259.678 252.502C229.717 274.261 191.084 272.864 183.414 221.869C182.547 216.1 188.39 211.93 193.799 214.116L257.687 239.943C263.065 242.117 264.371 249.094 259.678 252.502Z" fill="#1F2024" fill-opacity="0.16"/>
<path d="M211.675 222.661C211.121 224.594 210.905 226.634 211.038 228.664C211.171 230.694 211.651 232.674 212.451 234.49C213.25 236.307 214.354 237.925 215.698 239.252C217.042 240.579 218.601 241.59 220.285 242.225C221.969 242.861 223.746 243.109 225.514 242.956C227.282 242.803 229.006 242.252 230.588 241.334C232.171 240.416 233.58 239.149 234.736 237.606C235.892 236.063 236.772 234.273 237.325 232.339L224.5 227.5L211.675 222.661Z" fill="white" stroke="#1F2024" stroke-width="8"/>
<path d="M376.894 215.864C374.248 260.427 336.081 261.284 309.628 241.145L376.894 215.864Z" fill="#EB0D18"/>
<path d="M309.628 241.145C336.081 261.284 374.248 260.427 376.894 215.864L309.628 241.145ZM309.628 241.145L293 247.144" stroke="#1F2024" stroke-width="8" stroke-linecap="round" stroke-linejoin="round"/>
<path d="M311.153 252.502C341.114 274.261 379.747 272.864 387.417 221.869C388.284 216.1 382.441 211.93 377.032 214.116L313.144 239.943C307.766 242.117 306.46 249.094 311.153 252.502Z" fill="#1F2024" fill-opacity="0.16"/>
<path d="M359.156 222.661C359.71 224.594 359.926 226.634 359.793 228.664C359.66 230.694 359.18 232.674 358.38 234.49C357.581 236.307 356.477 237.925 355.133 239.252C353.789 240.579 352.23 241.59 350.546 242.225C348.862 242.861 347.085 243.109 345.317 242.956C343.549 242.803 341.825 242.252 340.243 241.334C338.66 240.416 337.251 239.149 336.095 237.606C334.939 236.063 334.059 234.273 333.506 232.339L346.331 227.5L359.156 222.661Z" fill="white" stroke="#1F2024" stroke-width="8"/>
<defs>
<filter id="filter0_i_48_1239" x="373.596" y="133.503" width="128.323" height="108.643" filterUnits="userSpaceOnUse" color-interpolation-filters="sRGB">
<feFlood flood-opacity="0" result="BackgroundImageFix"/>
<feBlend mode="normal" in="SourceGraphic" in2="BackgroundImageFix" result="shape"/>
<feColorMatrix in="SourceAlpha" type="matrix" values="0 0 0 0 0 0 0 0 0 0 0 0 0 0 0 0 0 0 127 0" result="hardAlpha"/>
<feOffset dy="16"/>
<feComposite in2="hardAlpha" operator="arithmetic" k2="-1" k3="1"/>
<feColorMatrix type="matrix" values="0 0 0 0 1 0 0 0 0 1 0 0 0 0 1 0 0 0 0.25 0"/>
<feBlend mode="normal" in2="shape" result="effect1_innerShadow_48_1239"/>
</filter>
<filter id="filter1_i_48_1239" x="157.816" y="118.882" width="100.737" height="56.2048" filterUnits="userSpaceOnUse" color-interpolation-filters="sRGB">
<feFlood flood-opacity="0" result="BackgroundImageFix"/>
<feBlend mode="normal" in="SourceGraphic" in2="BackgroundImageFix" result="shape"/>
<feColorMatrix in="SourceAlpha" type="matrix" values="0 0 0 0 0 0 0 0 0 0 0 0 0 0 0 0 0 0 127 0" result="hardAlpha"/>
<feOffset dx="-16" dy="8"/>
<feComposite in2="hardAlpha" operator="arithmetic" k2="-1" k3="1"/>
<feColorMatrix type="matrix" values="0 0 0 0 1 0 0 0 0 1 0 0 0 0 1 0 0 0 0.25 0"/>
<feBlend mode="normal" in2="shape" result="effect1_innerShadow_48_1239"/>
</filter>
<filter id="filter2_i_48_1239" x="293.104" y="118.882" width="100.737" height="56.2048" filterUnits="userSpaceOnUse" color-interpolation-filters="sRGB">
<feFlood flood-opacity="0" result="BackgroundImageFix"/>
<feBlend mode="normal" in="SourceGraphic" in2="BackgroundImageFix" result="shape"/>
<feColorMatrix in="SourceAlpha" type="matrix" values="0 0 0 0 0 0 0 0 0 0 0 0 0 0 0 0 0 0 127 0" result="hardAlpha"/>
<feOffset dx="-16" dy="8"/>
<feComposite in2="hardAlpha" operator="arithmetic" k2="-1" k3="1"/>
<feColorMatrix type="matrix" values="0 0 0 0 1 0 0 0 0 1 0 0 0 0 1 0 0 0 0.25 0"/>
<feBlend mode="normal" in2="shape" result="effect1_innerShadow_48_1239"/>
</filter>
<filter id="filter3_i_48_1239" x="12.1738" y="133.503" width="128.323" height="108.643" filterUnits="userSpaceOnUse" color-interpolation-filters="sRGB">
<feFlood flood-opacity="0" result="BackgroundImageFix"/>
<feBlend mode="normal" in="SourceGraphic" in2="BackgroundImageFix" result="shape"/>
<feColorMatrix in="SourceAlpha" type="matrix" values="0 0 0 0 0 0 0 0 0 0 0 0 0 0 0 0 0 0 127 0" result="hardAlpha"/>
<feOffset dy="16"/>
<feComposite in2="hardAlpha" operator="arithmetic" k2="-1" k3="1"/>
<feColorMatrix type="matrix" values="0 0 0 0 1 0 0 0 0 1 0 0 0 0 1 0 0 0 0.25 0"/>
<feBlend mode="normal" in2="shape" result="effect1_innerShadow_48_1239"/>
</filter>
</defs>
</svg>
