<svg width="340" height="340" viewBox="0 0 340 340" fill="none" xmlns="http://www.w3.org/2000/svg">
<g clip-path="url(#clip0_2_920)">
<path d="M326.714 320.644C326.938 320.772 327.13 320.891 327.296 321C327.13 321.109 326.938 321.228 326.714 321.356C324.979 322.348 322.16 323.436 318.164 324.54C310.234 326.732 298.572 328.751 283.94 330.462C254.731 333.877 214.268 336 169.5 336C124.732 336 84.2691 333.877 55.0597 330.462C40.428 328.751 28.7657 326.732 20.8358 324.54C16.8398 323.436 14.0215 322.348 12.2859 321.356C12.0625 321.228 11.8696 321.109 11.7037 321C11.8696 320.891 12.0625 320.772 12.2859 320.644C14.0215 319.652 16.8398 318.564 20.8358 317.46C28.7657 315.268 40.428 313.249 55.0597 311.538C84.2691 308.123 124.732 306 169.5 306C214.268 306 254.731 308.123 283.94 311.538C298.572 313.249 310.234 315.268 318.164 317.46C322.16 318.564 324.979 319.652 326.714 320.644Z" fill="#CAE9FA" stroke="#1F2024" stroke-width="8"/>
<g filter="url(#filter0_ii_2_920)">
<path d="M8 130C8 116.745 18.7452 106 32 106H224C237.255 106 248 116.745 248 130V290C248 303.255 237.255 314 224 314H32C18.7452 314 8 303.255 8 290V130Z" fill="#8A7DD8"/>
</g>
<path d="M8 130C8 116.745 18.7452 106 32 106H224C237.255 106 248 116.745 248 130V290C248 303.255 237.255 314 224 314H32C18.7452 314 8 303.255 8 290V130Z" stroke="#1F2024" stroke-width="8"/>
<g filter="url(#filter1_i_2_920)">
<path d="M108 130C108 116.745 118.745 106 132 106H308C321.255 106 332 116.745 332 130V290C332 303.255 321.255 314 308 314H132C118.745 314 108 303.255 108 290V130Z" fill="#AEA5EE"/>
</g>
<path d="M108 130C108 116.745 118.745 106 132 106H308C321.255 106 332 116.745 332 130V290C332 303.255 321.255 314 308 314H132C118.745 314 108 303.255 108 290V130Z" stroke="#1F2024" stroke-width="8"/>
<path d="M236 110H274L218 310H180L236 110Z" fill="white" fill-opacity="0.5"/>
<path d="M221 110H227L171 310H165L221 110Z" fill="white" fill-opacity="0.5"/>
<path d="M250.5 286C256.851 286 262.069 280.831 261.39 274.516C258.177 244.65 242.659 222 224 222C205.341 222 189.823 244.65 186.61 274.516C185.931 280.831 191.149 286 197.5 286H250.5Z" fill="#1F2024"/>
<path d="M248 286C248 273.85 236.359 264 222 264C207.641 264 196 273.85 196 286H248Z" fill="#FF3979"/>
<path d="M307.555 169C289.555 183 250.555 163.5 247.055 138" stroke="#1F2024" stroke-width="12" stroke-linecap="round"/>
<path d="M131.623 169C149.623 183 188.623 163.5 192.123 138" stroke="#1F2024" stroke-width="12" stroke-linecap="round"/>
<circle cx="50" cy="224" r="36" fill="#1F2024" fill-opacity="0.16"/>
<g filter="url(#filter2_i_2_920)">
<circle cx="49" cy="213" r="36" fill="#AEA5EE"/>
</g>
<circle cx="49" cy="213" r="36" stroke="#1F2024" stroke-width="8"/>
<path d="M59 189C62.6403 190.938 65.7524 194.074 68 198" stroke="white" stroke-width="8" stroke-linecap="round" stroke-linejoin="round"/>
<g filter="url(#filter3_i_2_920)">
<circle cx="29" cy="213" r="24" fill="#CAE9FA"/>
</g>
<circle cx="29" cy="213" r="24" stroke="#1F2024" stroke-width="8"/>
<rect x="169" y="57" width="2" height="37" fill="#AEA5EE" stroke="#1F2024" stroke-width="8"/>
<circle cx="170" cy="56" r="12" fill="white"/>
<path d="M126 66C126 41.6995 145.699 22 170 22C194.301 22 214 41.6995 214 66V94H126V66Z" fill="white" fill-opacity="0.5" stroke="#1F2024" stroke-width="8"/>
<g filter="url(#filter4_i_2_920)">
<path d="M114 102C114 97.5817 117.582 94 122 94H218C222.418 94 226 97.5817 226 102V106H114V102Z" fill="#AEA5EE"/>
</g>
<path d="M114 102C114 97.5817 117.582 94 122 94H218C222.418 94 226 97.5817 226 102V106H114V102Z" stroke="#1F2024" stroke-width="8"/>
<path d="M147 204C147 197.373 152.373 192 159 192H167C173.627 192 179 197.373 179 204V310H147V204Z" fill="#CAE9FA" stroke="#1F2024" stroke-width="8"/>
<path d="M266 204C266 197.373 271.373 192 278 192H286C292.627 192 298 197.373 298 204V307H266V204Z" fill="#CAE9FA" stroke="#1F2024" stroke-width="8"/>
<path d="M187 203C178 186.5 146.5 187 139 203" stroke="#1F2024" stroke-width="10" stroke-linecap="round"/>
<path d="M306 203C297 186.5 265.5 187 258 203" stroke="#1F2024" stroke-width="10" stroke-linecap="round"/>
<rect x="151" y="298" width="24" height="27" fill="#CAE9FA"/>
<rect x="270" y="298" width="24" height="27" fill="#CAE9FA"/>
</g>
<defs>
<filter id="filter0_ii_2_920" x="4" y="102" width="248" height="216" filterUnits="userSpaceOnUse" color-interpolation-filters="sRGB">
<feFlood flood-opacity="0" result="BackgroundImageFix"/>
<feBlend mode="normal" in="SourceGraphic" in2="BackgroundImageFix" result="shape"/>
<feColorMatrix in="SourceAlpha" type="matrix" values="0 0 0 0 0 0 0 0 0 0 0 0 0 0 0 0 0 0 127 0" result="hardAlpha"/>
<feOffset dy="-16"/>
<feComposite in2="hardAlpha" operator="arithmetic" k2="-1" k3="1"/>
<feColorMatrix type="matrix" values="0 0 0 0 0 0 0 0 0 0 0 0 0 0 0 0 0 0 0.25 0"/>
<feBlend mode="normal" in2="shape" result="effect1_innerShadow_2_920"/>
<feColorMatrix in="SourceAlpha" type="matrix" values="0 0 0 0 0 0 0 0 0 0 0 0 0 0 0 0 0 0 127 0" result="hardAlpha"/>
<feOffset dy="16"/>
<feComposite in2="hardAlpha" operator="arithmetic" k2="-1" k3="1"/>
<feColorMatrix type="matrix" values="0 0 0 0 1 0 0 0 0 1 0 0 0 0 1 0 0 0 0.25 0"/>
<feBlend mode="normal" in2="effect1_innerShadow_2_920" result="effect2_innerShadow_2_920"/>
</filter>
<filter id="filter1_i_2_920" x="104" y="102" width="232" height="216" filterUnits="userSpaceOnUse" color-interpolation-filters="sRGB">
<feFlood flood-opacity="0" result="BackgroundImageFix"/>
<feBlend mode="normal" in="SourceGraphic" in2="BackgroundImageFix" result="shape"/>
<feColorMatrix in="SourceAlpha" type="matrix" values="0 0 0 0 0 0 0 0 0 0 0 0 0 0 0 0 0 0 127 0" result="hardAlpha"/>
<feOffset dx="-24" dy="8"/>
<feComposite in2="hardAlpha" operator="arithmetic" k2="-1" k3="1"/>
<feColorMatrix type="matrix" values="0 0 0 0 1 0 0 0 0 1 0 0 0 0 1 0 0 0 0.25 0"/>
<feBlend mode="normal" in2="shape" result="effect1_innerShadow_2_920"/>
</filter>
<filter id="filter2_i_2_920" x="9" y="173" width="80" height="80" filterUnits="userSpaceOnUse" color-interpolation-filters="sRGB">
<feFlood flood-opacity="0" result="BackgroundImageFix"/>
<feBlend mode="normal" in="SourceGraphic" in2="BackgroundImageFix" result="shape"/>
<feColorMatrix in="SourceAlpha" type="matrix" values="0 0 0 0 0 0 0 0 0 0 0 0 0 0 0 0 0 0 127 0" result="hardAlpha"/>
<feOffset dx="12" dy="-8"/>
<feComposite in2="hardAlpha" operator="arithmetic" k2="-1" k3="1"/>
<feColorMatrix type="matrix" values="0 0 0 0 0 0 0 0 0 0 0 0 0 0 0 0 0 0 0.25 0"/>
<feBlend mode="normal" in2="shape" result="effect1_innerShadow_2_920"/>
</filter>
<filter id="filter3_i_2_920" x="1" y="185" width="56" height="56" filterUnits="userSpaceOnUse" color-interpolation-filters="sRGB">
<feFlood flood-opacity="0" result="BackgroundImageFix"/>
<feBlend mode="normal" in="SourceGraphic" in2="BackgroundImageFix" result="shape"/>
<feColorMatrix in="SourceAlpha" type="matrix" values="0 0 0 0 0 0 0 0 0 0 0 0 0 0 0 0 0 0 127 0" result="hardAlpha"/>
<feOffset dx="12" dy="-8"/>
<feComposite in2="hardAlpha" operator="arithmetic" k2="-1" k3="1"/>
<feColorMatrix type="matrix" values="0 0 0 0 0 0 0 0 0 0 0 0 0 0 0 0 0 0 0.25 0"/>
<feBlend mode="normal" in2="shape" result="effect1_innerShadow_2_920"/>
</filter>
<filter id="filter4_i_2_920" x="110" y="90" width="120" height="20" filterUnits="userSpaceOnUse" color-interpolation-filters="sRGB">
<feFlood flood-opacity="0" result="BackgroundImageFix"/>
<feBlend mode="normal" in="SourceGraphic" in2="BackgroundImageFix" result="shape"/>
<feColorMatrix in="SourceAlpha" type="matrix" values="0 0 0 0 0 0 0 0 0 0 0 0 0 0 0 0 0 0 127 0" result="hardAlpha"/>
<feOffset dx="-24" dy="8"/>
<feComposite in2="hardAlpha" operator="arithmetic" k2="-1" k3="1"/>
<feColorMatrix type="matrix" values="0 0 0 0 1 0 0 0 0 1 0 0 0 0 1 0 0 0 0.25 0"/>
<feBlend mode="normal" in2="shape" result="effect1_innerShadow_2_920"/>
</filter>
<clipPath id="clip0_2_920">
<rect width="340" height="340" fill="white"/>
</clipPath>
</defs>
</svg>
