<svg width="340" height="342" viewBox="0 0 340 342" fill="none" xmlns="http://www.w3.org/2000/svg">
<g clip-path="url(#clip0_36_450)">
<g filter="url(#filter0_i_36_450)">
<path d="M61 46.5C61 25.7893 77.7893 9 98.5 9C119.211 9 136 25.7893 136 46.5V79H61V46.5Z" fill="#6FB2E8"/>
</g>
<path d="M61 46.5C61 25.7893 77.7893 9 98.5 9C119.211 9 136 25.7893 136 46.5V79H61V46.5Z" stroke="#1F2024" stroke-width="8"/>
<ellipse cx="114" cy="33.8388" rx="6" ry="6.77419" fill="white"/>
<g filter="url(#filter1_i_36_450)">
<path d="M190 46.5C190 25.7893 206.789 9 227.5 9C248.211 9 265 25.7893 265 46.5V79H190V46.5Z" fill="#6FB2E8"/>
</g>
<path d="M190 46.5C190 25.7893 206.789 9 227.5 9C248.211 9 265 25.7893 265 46.5V79H190V46.5Z" stroke="#1F2024" stroke-width="8"/>
<ellipse cx="243" cy="33.8388" rx="6" ry="6.77419" fill="white"/>
<g filter="url(#filter2_ii_36_450)">
<path d="M8 83C8 69.7452 18.7452 59 32 59H224C237.255 59 248 69.7452 248 83V275C248 288.255 237.255 299 224 299H32C18.7452 299 8 288.255 8 275V83Z" fill="#6FB2E8"/>
</g>
<path d="M8 83C8 69.7452 18.7452 59 32 59H224C237.255 59 248 69.7452 248 83V275C248 288.255 237.255 299 224 299H32C18.7452 299 8 288.255 8 275V83Z" stroke="#1F2024" stroke-width="8"/>
<g filter="url(#filter3_i_36_450)">
<path d="M108 83C108 69.7452 118.745 59 132 59H308C321.255 59 332 69.7452 332 83V275C332 288.255 321.255 299 308 299H132C118.745 299 108 288.255 108 275V83Z" fill="#9BCEF1"/>
</g>
<path d="M108 83C108 69.7452 118.745 59 132 59H308C321.255 59 332 69.7452 332 83V275C332 288.255 321.255 299 308 299H132C118.745 299 108 288.255 108 275V83Z" stroke="#1F2024" stroke-width="8"/>
<path fill-rule="evenodd" clip-rule="evenodd" d="M332 137.738V275C332 288.255 321.255 299 308 299H32C18.7452 299 8 288.255 8 275V198.086C51.6614 151.873 130.72 121 221 121C260.885 121 298.58 127.026 332 137.738Z" fill="#F9E174"/>
<path fill-rule="evenodd" clip-rule="evenodd" d="M98 141.852V275C98 288.255 87.2548 299 74 299H32C18.7452 299 8 288.255 8 275V198.086C30.0262 174.773 61.0608 155.363 98 141.852Z" fill="#EDB146"/>
<path d="M236 63H274L218 295H180L236 63Z" fill="white" fill-opacity="0.5"/>
<path d="M221 63H227L171 295H165L221 63Z" fill="white" fill-opacity="0.5"/>
<path d="M200.229 148.866C184.796 174.386 160.447 181.341 142.252 170.338C124.057 159.336 118.907 134.541 134.34 109.021C149.772 83.5014 179.943 66.9196 198.138 77.9224C216.333 88.9252 215.661 123.346 200.229 148.866Z" fill="white" stroke="#1F2024" stroke-width="8"/>
<path d="M240.371 148.866C255.803 174.386 280.153 181.341 298.348 170.338C316.543 159.336 321.693 134.541 306.26 109.021C290.828 83.5014 260.656 66.9196 242.462 77.9224C224.267 88.9252 224.938 123.346 240.371 148.866Z" fill="white" stroke="#1F2024" stroke-width="8"/>
<path d="M263 228.802C263 262.215 243.972 283 220.5 283C197.028 283 178 262.215 178 228.802C178 195.389 197.028 162 220.5 162C243.972 162 263 195.389 263 228.802Z" fill="#4A4A4E" stroke="#1F2024" stroke-width="8"/>
<path fill-rule="evenodd" clip-rule="evenodd" d="M208.084 165.184C225.499 174.29 238.168 201.538 238.168 228.802C238.168 256.066 225.499 274.923 208.084 280.939C190.669 274.923 178 256.066 178 228.802C178 201.538 190.669 174.29 208.084 165.184Z" fill="#1F2024"/>
<path d="M208.084 165.184L209.937 161.639L208.084 160.67L206.231 161.639L208.084 165.184ZM208.084 280.939L206.778 284.72L208.084 285.171L209.39 284.72L208.084 280.939ZM206.231 168.729C213.901 172.739 220.914 180.999 226.037 191.886C231.131 202.712 234.168 215.759 234.168 228.802H242.168C242.168 214.581 238.871 200.371 233.276 188.481C227.711 176.652 219.683 166.735 209.937 161.639L206.231 168.729ZM234.168 228.802C234.168 254.892 222.13 271.854 206.778 277.158L209.39 284.72C228.868 277.991 242.168 257.241 242.168 228.802H234.168ZM209.39 277.158C194.038 271.854 182 254.892 182 228.802H174C174 257.241 187.3 277.991 206.778 284.72L209.39 277.158ZM182 228.802C182 215.759 185.037 202.712 190.131 191.886C195.254 180.999 202.268 172.739 209.937 168.729L206.231 161.639C196.486 166.735 188.457 176.652 182.892 188.481C177.297 200.371 174 214.581 174 228.802H182Z" fill="#1F2024"/>
<path fill-rule="evenodd" clip-rule="evenodd" d="M179.943 246.346C187.254 242.327 195.924 240 205.22 240C226.388 240 244.307 252.066 250.331 268.699C242.658 277.903 232.125 283 220.501 283C201.467 283 185.356 269.332 179.943 246.346Z" fill="#FE204F"/>
<path d="M179.943 246.346L178.016 242.841L175.353 244.305L176.05 247.263L179.943 246.346ZM250.331 268.699L253.403 271.261L254.874 269.497L254.092 267.337L250.331 268.699ZM181.87 249.852C188.585 246.16 196.591 244 205.22 244V236C195.257 236 185.923 238.494 178.016 242.841L181.87 249.852ZM205.22 244C224.955 244 241.2 255.235 246.57 270.062L254.092 267.337C247.413 248.896 227.821 236 205.22 236V244ZM247.259 266.138C240.308 274.476 230.879 279 220.501 279V287C233.37 287 245.009 281.33 253.403 271.261L247.259 266.138ZM220.501 279C203.693 279 188.915 266.995 183.837 245.43L176.05 247.263C181.797 271.669 199.242 287 220.501 287V279Z" fill="#1F2024"/>
<path d="M8 82.3412C8 69.0864 18.7452 58.3412 32 58.3412H308C321.255 58.3412 332 69.0864 332 82.3412V275.753C332 289.008 321.255 299.753 308 299.753H32C18.7452 299.753 8 289.008 8 275.753V82.3412Z" stroke="#1F2024" stroke-width="8"/>
<path d="M108 82.3412C108 69.0864 118.745 58.3412 132 58.3412H308C321.255 58.3412 332 69.0864 332 82.3412V275.753C332 289.008 321.255 299.753 308 299.753H132C118.745 299.753 108 289.008 108 275.753V82.3412Z" stroke="#1F2024" stroke-width="8"/>
<circle cx="50" cy="193" r="36" fill="#1F2024" fill-opacity="0.16"/>
<g filter="url(#filter4_i_36_450)">
<circle cx="49" cy="182" r="36" fill="#4795E0"/>
</g>
<circle cx="49" cy="182" r="36" stroke="#1F2024" stroke-width="8"/>
<path d="M59 158C62.6403 159.938 65.7524 163.074 68 167" stroke="white" stroke-width="8" stroke-linecap="round" stroke-linejoin="round"/>
<g filter="url(#filter5_i_36_450)">
<circle cx="29" cy="182" r="24" fill="#CAE9FA"/>
</g>
<circle cx="29" cy="182" r="24" stroke="#1F2024" stroke-width="8"/>
<path d="M318.024 225.302C318.18 222.982 316.347 221 314.022 221H279.943C277.91 221 276.199 222.538 275.968 224.558C270.391 273.365 267.969 300.594 272.807 344.454C273.03 346.471 274.74 348 276.77 348H319.994C322.446 348 324.32 345.81 323.952 343.385C318.206 305.612 314.731 274.37 318.024 225.302Z" fill="#6FB2E8" stroke="#1F2024" stroke-width="8" stroke-linejoin="round"/>
<path d="M334.378 225.3C334.54 222.982 332.706 221 330.382 221H295.636C293.603 221 291.891 222.539 291.666 224.56C286.239 273.365 286.688 300.595 291.66 344.454C291.889 346.471 293.599 348 295.629 348H333.337C335.789 348 337.662 345.811 337.307 343.385C331.782 305.611 330.947 274.369 334.378 225.3Z" fill="#9BCEF1" stroke="#1F2024" stroke-width="8" stroke-linejoin="round"/>
<path d="M118.575 225.335C118.401 223.003 120.238 221 122.576 221H161.406C163.419 221 165.12 222.51 165.374 224.507C171.589 273.365 174.288 300.6 168.893 344.505C168.648 346.5 166.947 348 164.937 348H115.934C113.454 348 111.573 345.763 111.987 343.317C118.373 305.583 122.233 274.354 118.575 225.335Z" fill="#9BCEF1" stroke="#1F2024" stroke-width="8" stroke-linejoin="round"/>
<path d="M100.366 225.334C100.192 223.003 102.03 221 104.367 221H143.939C145.953 221 147.656 222.511 147.903 224.509C153.952 273.365 153.452 300.601 147.909 344.504C147.657 346.499 145.957 348 143.947 348H97.7439C95.2647 348 93.3839 345.764 93.7964 343.319C100.164 305.584 104.014 274.355 100.366 225.334Z" fill="#6FB2E8" stroke="#1F2024" stroke-width="8" stroke-linejoin="round"/>
</g>
<defs>
<filter id="filter0_i_36_450" x="57" y="5" width="83" height="78" filterUnits="userSpaceOnUse" color-interpolation-filters="sRGB">
<feFlood flood-opacity="0" result="BackgroundImageFix"/>
<feBlend mode="normal" in="SourceGraphic" in2="BackgroundImageFix" result="shape"/>
<feColorMatrix in="SourceAlpha" type="matrix" values="0 0 0 0 0 0 0 0 0 0 0 0 0 0 0 0 0 0 127 0" result="hardAlpha"/>
<feOffset dx="12" dy="-8"/>
<feComposite in2="hardAlpha" operator="arithmetic" k2="-1" k3="1"/>
<feColorMatrix type="matrix" values="0 0 0 0 0 0 0 0 0 0 0 0 0 0 0 0 0 0 0.25 0"/>
<feBlend mode="normal" in2="shape" result="effect1_innerShadow_36_450"/>
</filter>
<filter id="filter1_i_36_450" x="186" y="5" width="83" height="78" filterUnits="userSpaceOnUse" color-interpolation-filters="sRGB">
<feFlood flood-opacity="0" result="BackgroundImageFix"/>
<feBlend mode="normal" in="SourceGraphic" in2="BackgroundImageFix" result="shape"/>
<feColorMatrix in="SourceAlpha" type="matrix" values="0 0 0 0 0 0 0 0 0 0 0 0 0 0 0 0 0 0 127 0" result="hardAlpha"/>
<feOffset dx="12" dy="-8"/>
<feComposite in2="hardAlpha" operator="arithmetic" k2="-1" k3="1"/>
<feColorMatrix type="matrix" values="0 0 0 0 0 0 0 0 0 0 0 0 0 0 0 0 0 0 0.25 0"/>
<feBlend mode="normal" in2="shape" result="effect1_innerShadow_36_450"/>
</filter>
<filter id="filter2_ii_36_450" x="4" y="55" width="248" height="248" filterUnits="userSpaceOnUse" color-interpolation-filters="sRGB">
<feFlood flood-opacity="0" result="BackgroundImageFix"/>
<feBlend mode="normal" in="SourceGraphic" in2="BackgroundImageFix" result="shape"/>
<feColorMatrix in="SourceAlpha" type="matrix" values="0 0 0 0 0 0 0 0 0 0 0 0 0 0 0 0 0 0 127 0" result="hardAlpha"/>
<feOffset dy="-16"/>
<feComposite in2="hardAlpha" operator="arithmetic" k2="-1" k3="1"/>
<feColorMatrix type="matrix" values="0 0 0 0 0 0 0 0 0 0 0 0 0 0 0 0 0 0 0.25 0"/>
<feBlend mode="normal" in2="shape" result="effect1_innerShadow_36_450"/>
<feColorMatrix in="SourceAlpha" type="matrix" values="0 0 0 0 0 0 0 0 0 0 0 0 0 0 0 0 0 0 127 0" result="hardAlpha"/>
<feOffset dy="16"/>
<feComposite in2="hardAlpha" operator="arithmetic" k2="-1" k3="1"/>
<feColorMatrix type="matrix" values="0 0 0 0 1 0 0 0 0 1 0 0 0 0 1 0 0 0 0.25 0"/>
<feBlend mode="normal" in2="effect1_innerShadow_36_450" result="effect2_innerShadow_36_450"/>
</filter>
<filter id="filter3_i_36_450" x="104" y="55" width="232" height="248" filterUnits="userSpaceOnUse" color-interpolation-filters="sRGB">
<feFlood flood-opacity="0" result="BackgroundImageFix"/>
<feBlend mode="normal" in="SourceGraphic" in2="BackgroundImageFix" result="shape"/>
<feColorMatrix in="SourceAlpha" type="matrix" values="0 0 0 0 0 0 0 0 0 0 0 0 0 0 0 0 0 0 127 0" result="hardAlpha"/>
<feOffset dx="-24" dy="8"/>
<feComposite in2="hardAlpha" operator="arithmetic" k2="-1" k3="1"/>
<feColorMatrix type="matrix" values="0 0 0 0 1 0 0 0 0 1 0 0 0 0 1 0 0 0 0.25 0"/>
<feBlend mode="normal" in2="shape" result="effect1_innerShadow_36_450"/>
</filter>
<filter id="filter4_i_36_450" x="9" y="142" width="80" height="80" filterUnits="userSpaceOnUse" color-interpolation-filters="sRGB">
<feFlood flood-opacity="0" result="BackgroundImageFix"/>
<feBlend mode="normal" in="SourceGraphic" in2="BackgroundImageFix" result="shape"/>
<feColorMatrix in="SourceAlpha" type="matrix" values="0 0 0 0 0 0 0 0 0 0 0 0 0 0 0 0 0 0 127 0" result="hardAlpha"/>
<feOffset dx="12" dy="-8"/>
<feComposite in2="hardAlpha" operator="arithmetic" k2="-1" k3="1"/>
<feColorMatrix type="matrix" values="0 0 0 0 0 0 0 0 0 0 0 0 0 0 0 0 0 0 0.25 0"/>
<feBlend mode="normal" in2="shape" result="effect1_innerShadow_36_450"/>
</filter>
<filter id="filter5_i_36_450" x="1" y="154" width="56" height="56" filterUnits="userSpaceOnUse" color-interpolation-filters="sRGB">
<feFlood flood-opacity="0" result="BackgroundImageFix"/>
<feBlend mode="normal" in="SourceGraphic" in2="BackgroundImageFix" result="shape"/>
<feColorMatrix in="SourceAlpha" type="matrix" values="0 0 0 0 0 0 0 0 0 0 0 0 0 0 0 0 0 0 127 0" result="hardAlpha"/>
<feOffset dx="12" dy="-8"/>
<feComposite in2="hardAlpha" operator="arithmetic" k2="-1" k3="1"/>
<feColorMatrix type="matrix" values="0 0 0 0 0 0 0 0 0 0 0 0 0 0 0 0 0 0 0.25 0"/>
<feBlend mode="normal" in2="shape" result="effect1_innerShadow_36_450"/>
</filter>
<clipPath id="clip0_36_450">
<rect width="340" height="342" fill="white"/>
</clipPath>
</defs>
</svg>
