<svg width="340" height="340" viewBox="0 0 340 340" fill="none" xmlns="http://www.w3.org/2000/svg">
<g clip-path="url(#clip0_60_548)">
<g filter="url(#filter0_ii_60_548)">
<path d="M9 133C9 119.745 19.7452 109 33 109H225C238.255 109 249 119.745 249 133V293C249 306.255 238.255 317 225 317H33C19.7452 317 9 306.255 9 293V133Z" fill="#8A7DD8"/>
</g>
<path d="M9 133C9 119.745 19.7452 109 33 109H225C238.255 109 249 119.745 249 133V293C249 306.255 238.255 317 225 317H33C19.7452 317 9 306.255 9 293V133Z" stroke="#1F2024" stroke-width="8"/>
<path d="M166.5 36C145.025 8.49994 134.47 40.4468 101.838 45.0422C91.0822 46.5569 86.1019 40.7311 82 30.7619" stroke="#1F2024" stroke-width="8" stroke-linecap="round"/>
<path d="M166.5 36.0001C145.025 8.50001 135.174 44.4045 102.541 49C91.7859 50.5146 86.1019 40.7311 82 30.762" stroke="#1F2024" stroke-width="8" stroke-linecap="round"/>
<g filter="url(#filter1_i_60_548)">
<path d="M109 133C109 119.745 119.745 109 133 109H309C322.255 109 333 119.745 333 133V293C333 306.255 322.255 317 309 317H133C119.745 317 109 306.255 109 293V133Z" fill="#AEA5EE"/>
</g>
<path d="M109 133C109 119.745 119.745 109 133 109H309C322.255 109 333 119.745 333 133V293C333 306.255 322.255 317 309 317H133C119.745 317 109 306.255 109 293V133Z" stroke="#1F2024" stroke-width="8"/>
<path d="M237 113H275L219 313H181L237 113Z" fill="white" fill-opacity="0.5"/>
<path d="M222 113H228L172 313H166L222 113Z" fill="white" fill-opacity="0.5"/>
<g filter="url(#filter2_ii_60_548)">
<path d="M213 253.614C213 252.545 213.841 251.665 214.909 251.616L291.909 248.096C293.048 248.044 294 248.953 294 250.094V271C294 272.105 293.105 273 292 273H215C213.895 273 213 272.105 213 271V253.614Z" fill="#DE7E25"/>
</g>
<path d="M213 253.614C213 252.545 213.841 251.665 214.909 251.616L291.909 248.096C293.048 248.044 294 248.953 294 250.094V271C294 272.105 293.105 273 292 273H215C213.895 273 213 272.105 213 271V253.614Z" stroke="#1F2024" stroke-width="8" stroke-linejoin="round"/>
<g filter="url(#filter3_ii_60_548)">
<path fill-rule="evenodd" clip-rule="evenodd" d="M316 225H275V273H316H317V272.971C327.581 272.345 336 261.852 336 249C336 236.148 327.581 225.655 317 225.029V225H316Z" fill="#F2C95C"/>
</g>
<path d="M275 225V221C272.791 221 271 222.791 271 225H275ZM275 273H271C271 275.209 272.791 277 275 277V273ZM317 273V277C319.209 277 321 275.209 321 273H317ZM317 272.971L316.764 268.977C314.65 269.102 313 270.853 313 272.971H317ZM317 225.029H313C313 227.147 314.65 228.898 316.764 229.023L317 225.029ZM317 225H321C321 222.791 319.209 221 317 221V225ZM275 229H316V221H275V229ZM279 273V225H271V273H279ZM316 269H275V277H316V269ZM317 269H316V277H317V269ZM313 272.971V273H321V272.971H313ZM332 249C332 260.376 324.646 268.512 316.764 268.977L317.236 276.964C330.516 276.179 340 263.329 340 249H332ZM316.764 229.023C324.646 229.488 332 237.624 332 249H340C340 234.671 330.516 221.821 317.236 221.036L316.764 229.023ZM313 225V225.029H321V225H313ZM316 229H317V221H316V229Z" fill="#1F2024"/>
<g filter="url(#filter4_ii_60_548)">
<ellipse cx="277" cy="249" rx="20" ry="24" fill="#EDB146"/>
</g>
<ellipse cx="277" cy="249" rx="20" ry="24" stroke="#1F2024" stroke-width="8" stroke-linejoin="round"/>
<circle cx="277" cy="249" r="8" fill="#1F2024"/>
<g filter="url(#filter5_dii_60_548)">
<circle cx="146.5" cy="311.5" r="19.5" fill="#75D1C1"/>
<circle cx="146.5" cy="311.5" r="15.5" stroke="#1F2024" stroke-width="8" stroke-linejoin="round"/>
</g>
<g filter="url(#filter6_dii_60_548)">
<path d="M113.396 156.014C117.62 160.495 115.409 167.869 109.416 169.287L79.0767 176.464C73.0837 177.882 67.8033 172.281 69.572 166.382L78.5259 136.518C80.2945 130.619 87.7858 128.847 92.0101 133.328L113.396 156.014Z" fill="#FE204F"/>
<path d="M110.485 158.758C112.597 160.999 111.492 164.685 108.495 165.394L78.1558 172.572C75.1593 173.281 72.5191 170.48 73.4035 167.53L82.3573 137.667C83.2417 134.717 86.9873 133.831 89.0994 136.072L110.485 158.758Z" stroke="#1F2024" stroke-width="8" stroke-linejoin="round"/>
</g>
<g filter="url(#filter7_dii_60_548)">
<path d="M65.7325 283.905C70.2425 288.099 68.5217 295.602 62.635 297.411L32.8335 306.569C26.9468 308.378 21.3093 303.136 22.6859 297.134L29.6553 266.746C31.032 260.743 38.3903 258.482 42.9004 262.676L65.7325 283.905Z" fill="#F9E174"/>
<path d="M63.0087 286.835C65.2637 288.931 64.4033 292.683 61.4599 293.587L31.6585 302.746C28.7152 303.65 25.8964 301.029 26.5847 298.028L33.5541 267.64C34.2424 264.639 37.9216 263.508 40.1766 265.605L63.0087 286.835Z" stroke="#1F2024" stroke-width="8" stroke-linejoin="round"/>
</g>
<g filter="url(#filter8_dii_60_548)">
<circle cx="226.5" cy="42.5" r="19.5" fill="#75D1C1"/>
<circle cx="226.5" cy="42.5" r="15.5" stroke="#1F2024" stroke-width="8" stroke-linejoin="round"/>
</g>
<g filter="url(#filter9_dii_60_548)">
<path d="M60.0332 60.4449C66.1917 60.4449 70.0406 67.1115 66.9614 72.4449L51.373 99.4449C48.2938 104.778 40.5958 104.778 37.5166 99.4449L21.9281 72.4449C18.8489 67.1115 22.6979 60.4449 28.8563 60.4449L60.0332 60.4449Z" fill="#2477D5"/>
<path d="M60.0332 64.4449C63.1124 64.4449 65.0369 67.7782 63.4973 70.4449L47.9089 97.4449C46.3693 100.112 42.5203 100.112 40.9807 97.4449L25.3922 70.4449C23.8526 67.7782 25.7771 64.4449 28.8563 64.4449L60.0332 64.4449Z" stroke="#1F2024" stroke-width="8" stroke-linejoin="round"/>
</g>
<path d="M9 208C9 203.582 12.5817 200 17 200H77C81.4183 200 85 203.582 85 208V248C85 252.418 81.4183 256 77 256H17C12.5817 256 9 252.418 9 248V208Z" fill="#1F2024" fill-opacity="0.16"/>
<g filter="url(#filter10_ii_60_548)">
<path d="M5 196C5 191.582 8.58172 188 13 188H78C82.4183 188 86 191.582 86 196V236C86 240.418 82.4183 244 78 244H13C8.58172 244 5 240.418 5 236V196Z" fill="#8A7DD8"/>
</g>
<path d="M5 196C5 191.582 8.58172 188 13 188H78C82.4183 188 86 191.582 86 196V236C86 240.418 82.4183 244 78 244H13C8.58172 244 5 240.418 5 236V196Z" stroke="#1F2024" stroke-width="8"/>
<g filter="url(#filter11_i_60_548)">
<path d="M62 196C62 191.582 65.5817 188 70 188H78C82.4183 188 86 191.582 86 196V236C86 240.418 82.4183 244 78 244H70C65.5817 244 62 240.418 62 236V196Z" fill="#AEA5EE"/>
</g>
<path d="M62 196C62 191.582 65.5817 188 70 188H78C82.4183 188 86 191.582 86 196V236C86 240.418 82.4183 244 78 244H70C65.5817 244 62 240.418 62 236V196Z" stroke="#1F2024" stroke-width="8"/>
<rect x="22" y="207" width="8" height="20" rx="4" fill="#1F2024"/>
<rect x="34" y="207" width="8" height="20" rx="4" fill="#1F2024"/>
<path d="M195.545 210.1C183.786 197.231 163.169 196.249 150.42 210.139C148.18 212.58 142.941 212.241 140.5 210C137.52 207.265 138.945 199.5 142.843 195.755C152.559 186.418 164.823 184 176.097 185.921C187.216 187.816 197.662 193.946 204.579 202.203C205.03 202.735 205.373 203.325 205.609 203.945C205.909 204.733 206.035 205.567 205.992 206.391C205.911 207.955 205.221 209.483 203.958 210.59C203.426 211.058 202.833 211.415 202.209 211.662C201.358 211.999 200.451 212.131 199.559 212.065C198.067 211.955 196.617 211.29 195.545 210.1Z" fill="#1F2024"/>
<path d="M249.455 210.1C261.214 197.231 281.831 196.249 294.58 210.139C296.82 212.58 302.059 212.241 304.5 210C307.48 207.265 306.055 199.5 302.157 195.755C292.441 186.418 280.177 184 268.903 185.921C257.784 187.816 247.338 193.946 240.421 202.203C239.97 202.735 239.627 203.325 239.391 203.945C239.091 204.733 238.965 205.567 239.008 206.391C239.089 207.955 239.779 209.483 241.042 210.59C241.574 211.058 242.167 211.415 242.791 211.662C243.642 211.999 244.549 212.131 245.441 212.065C246.933 211.955 248.383 211.29 249.455 210.1Z" fill="#1F2024"/>
<path d="M205 262.695C218.999 258 219 244 205 240" stroke="#1F2024" stroke-width="12" stroke-linecap="round"/>
<path d="M205 285.695C218.999 281 219 267 205 263" stroke="#1F2024" stroke-width="12" stroke-linecap="round"/>
<g filter="url(#filter12_dii_60_548)">
<path d="M311.732 80.9052C316.242 85.0987 314.522 92.6019 308.635 94.4109L278.834 103.569C272.947 105.378 267.309 100.136 268.686 94.1339L275.655 63.7459C277.032 57.7433 284.39 55.482 288.9 59.6755L311.732 80.9052Z" fill="#F9E174"/>
<path d="M309.009 83.8345C311.264 85.9313 310.403 89.6829 307.46 90.5874L277.659 99.7457C274.715 100.65 271.896 98.0293 272.585 95.028L279.554 64.6401C280.242 61.6388 283.922 60.5081 286.177 62.6049L309.009 83.8345Z" stroke="#1F2024" stroke-width="8" stroke-linejoin="round"/>
</g>
<g filter="url(#filter13_dii_60_548)">
<circle cx="320.5" cy="159.5" r="19.5" fill="#75D1C1"/>
<circle cx="320.5" cy="159.5" r="15.5" stroke="#1F2024" stroke-width="8" stroke-linejoin="round"/>
</g>
<path d="M167.5 36L224.225 109.5H110.775L167.5 36Z" fill="#4795E0" stroke="#1F2024" stroke-width="8" stroke-linejoin="round"/>
<mask id="mask0_60_548" style="mask-type:alpha" maskUnits="userSpaceOnUse" x="106" y="32" width="123" height="82">
<path d="M167.5 36L224.225 109.5H110.775L167.5 36Z" fill="#F9E174" stroke="#1F2024" stroke-width="8" stroke-linejoin="round"/>
</mask>
<g mask="url(#mask0_60_548)">
<path d="M193.5 72L128 87.2817L116 103L204 83.7887L193.5 72Z" fill="#F2C95C"/>
<path d="M180.005 50L147.5 58.5L135.583 74.5L190.433 62L180.005 50Z" fill="#F2C95C"/>
<path d="M211.428 94L155.5 107.5L149 121L222 105.571L211.428 94Z" fill="#F2C95C"/>
<path d="M167.5 36L224.225 109.5H110.775L167.5 36Z" stroke="#1F2024" stroke-width="8" stroke-linejoin="round"/>
<path d="M175 64L190.117 86.5M196.5 96L195.5 94.5116" stroke="white" stroke-width="8" stroke-linecap="round"/>
<path d="M149.5 107.5L168.5 40L165 41.5L113.5 107.5H149.5Z" fill="#1F2024" fill-opacity="0.35"/>
</g>
</g>
<defs>
<filter id="filter0_ii_60_548" x="5" y="105" width="248" height="216" filterUnits="userSpaceOnUse" color-interpolation-filters="sRGB">
<feFlood flood-opacity="0" result="BackgroundImageFix"/>
<feBlend mode="normal" in="SourceGraphic" in2="BackgroundImageFix" result="shape"/>
<feColorMatrix in="SourceAlpha" type="matrix" values="0 0 0 0 0 0 0 0 0 0 0 0 0 0 0 0 0 0 127 0" result="hardAlpha"/>
<feOffset dy="-16"/>
<feComposite in2="hardAlpha" operator="arithmetic" k2="-1" k3="1"/>
<feColorMatrix type="matrix" values="0 0 0 0 0 0 0 0 0 0 0 0 0 0 0 0 0 0 0.25 0"/>
<feBlend mode="normal" in2="shape" result="effect1_innerShadow_60_548"/>
<feColorMatrix in="SourceAlpha" type="matrix" values="0 0 0 0 0 0 0 0 0 0 0 0 0 0 0 0 0 0 127 0" result="hardAlpha"/>
<feOffset dy="16"/>
<feComposite in2="hardAlpha" operator="arithmetic" k2="-1" k3="1"/>
<feColorMatrix type="matrix" values="0 0 0 0 1 0 0 0 0 1 0 0 0 0 1 0 0 0 0.25 0"/>
<feBlend mode="normal" in2="effect1_innerShadow_60_548" result="effect2_innerShadow_60_548"/>
</filter>
<filter id="filter1_i_60_548" x="105" y="105" width="232" height="216" filterUnits="userSpaceOnUse" color-interpolation-filters="sRGB">
<feFlood flood-opacity="0" result="BackgroundImageFix"/>
<feBlend mode="normal" in="SourceGraphic" in2="BackgroundImageFix" result="shape"/>
<feColorMatrix in="SourceAlpha" type="matrix" values="0 0 0 0 0 0 0 0 0 0 0 0 0 0 0 0 0 0 127 0" result="hardAlpha"/>
<feOffset dx="-24" dy="8"/>
<feComposite in2="hardAlpha" operator="arithmetic" k2="-1" k3="1"/>
<feColorMatrix type="matrix" values="0 0 0 0 1 0 0 0 0 1 0 0 0 0 1 0 0 0 0.25 0"/>
<feBlend mode="normal" in2="shape" result="effect1_innerShadow_60_548"/>
</filter>
<filter id="filter2_ii_60_548" x="209" y="244.093" width="89" height="32.9066" filterUnits="userSpaceOnUse" color-interpolation-filters="sRGB">
<feFlood flood-opacity="0" result="BackgroundImageFix"/>
<feBlend mode="normal" in="SourceGraphic" in2="BackgroundImageFix" result="shape"/>
<feColorMatrix in="SourceAlpha" type="matrix" values="0 0 0 0 0 0 0 0 0 0 0 0 0 0 0 0 0 0 127 0" result="hardAlpha"/>
<feOffset dx="8" dy="-8"/>
<feComposite in2="hardAlpha" operator="arithmetic" k2="-1" k3="1"/>
<feColorMatrix type="matrix" values="0 0 0 0 0 0 0 0 0 0 0 0 0 0 0 0 0 0 0.25 0"/>
<feBlend mode="normal" in2="shape" result="effect1_innerShadow_60_548"/>
<feColorMatrix in="SourceAlpha" type="matrix" values="0 0 0 0 0 0 0 0 0 0 0 0 0 0 0 0 0 0 127 0" result="hardAlpha"/>
<feOffset dx="-8" dy="12"/>
<feComposite in2="hardAlpha" operator="arithmetic" k2="-1" k3="1"/>
<feColorMatrix type="matrix" values="0 0 0 0 1 0 0 0 0 1 0 0 0 0 1 0 0 0 0.6 0"/>
<feBlend mode="normal" in2="effect1_innerShadow_60_548" result="effect2_innerShadow_60_548"/>
</filter>
<filter id="filter3_ii_60_548" x="271" y="221" width="69" height="56" filterUnits="userSpaceOnUse" color-interpolation-filters="sRGB">
<feFlood flood-opacity="0" result="BackgroundImageFix"/>
<feBlend mode="normal" in="SourceGraphic" in2="BackgroundImageFix" result="shape"/>
<feColorMatrix in="SourceAlpha" type="matrix" values="0 0 0 0 0 0 0 0 0 0 0 0 0 0 0 0 0 0 127 0" result="hardAlpha"/>
<feOffset dx="8" dy="-8"/>
<feComposite in2="hardAlpha" operator="arithmetic" k2="-1" k3="1"/>
<feColorMatrix type="matrix" values="0 0 0 0 0 0 0 0 0 0 0 0 0 0 0 0 0 0 0.25 0"/>
<feBlend mode="normal" in2="shape" result="effect1_innerShadow_60_548"/>
<feColorMatrix in="SourceAlpha" type="matrix" values="0 0 0 0 0 0 0 0 0 0 0 0 0 0 0 0 0 0 127 0" result="hardAlpha"/>
<feOffset dx="-10" dy="12"/>
<feComposite in2="hardAlpha" operator="arithmetic" k2="-1" k3="1"/>
<feColorMatrix type="matrix" values="0 0 0 0 1 0 0 0 0 1 0 0 0 0 1 0 0 0 0.6 0"/>
<feBlend mode="normal" in2="effect1_innerShadow_60_548" result="effect2_innerShadow_60_548"/>
</filter>
<filter id="filter4_ii_60_548" x="253" y="221" width="48" height="56" filterUnits="userSpaceOnUse" color-interpolation-filters="sRGB">
<feFlood flood-opacity="0" result="BackgroundImageFix"/>
<feBlend mode="normal" in="SourceGraphic" in2="BackgroundImageFix" result="shape"/>
<feColorMatrix in="SourceAlpha" type="matrix" values="0 0 0 0 0 0 0 0 0 0 0 0 0 0 0 0 0 0 127 0" result="hardAlpha"/>
<feOffset dx="8" dy="-8"/>
<feComposite in2="hardAlpha" operator="arithmetic" k2="-1" k3="1"/>
<feColorMatrix type="matrix" values="0 0 0 0 0 0 0 0 0 0 0 0 0 0 0 0 0 0 0.25 0"/>
<feBlend mode="normal" in2="shape" result="effect1_innerShadow_60_548"/>
<feColorMatrix in="SourceAlpha" type="matrix" values="0 0 0 0 0 0 0 0 0 0 0 0 0 0 0 0 0 0 127 0" result="hardAlpha"/>
<feOffset dx="-8" dy="12"/>
<feComposite in2="hardAlpha" operator="arithmetic" k2="-1" k3="1"/>
<feColorMatrix type="matrix" values="0 0 0 0 1 0 0 0 0 1 0 0 0 0 1 0 0 0 0.6 0"/>
<feBlend mode="normal" in2="effect1_innerShadow_60_548" result="effect2_innerShadow_60_548"/>
</filter>
<filter id="filter5_dii_60_548" x="123" y="292" width="43" height="43" filterUnits="userSpaceOnUse" color-interpolation-filters="sRGB">
<feFlood flood-opacity="0" result="BackgroundImageFix"/>
<feColorMatrix in="SourceAlpha" type="matrix" values="0 0 0 0 0 0 0 0 0 0 0 0 0 0 0 0 0 0 127 0" result="hardAlpha"/>
<feOffset dx="-4" dy="4"/>
<feComposite in2="hardAlpha" operator="out"/>
<feColorMatrix type="matrix" values="0 0 0 0 0.121569 0 0 0 0 0.12549 0 0 0 0 0.141176 0 0 0 0.25 0"/>
<feBlend mode="normal" in2="BackgroundImageFix" result="effect1_dropShadow_60_548"/>
<feBlend mode="normal" in="SourceGraphic" in2="effect1_dropShadow_60_548" result="shape"/>
<feColorMatrix in="SourceAlpha" type="matrix" values="0 0 0 0 0 0 0 0 0 0 0 0 0 0 0 0 0 0 127 0" result="hardAlpha"/>
<feOffset dx="8" dy="-8"/>
<feComposite in2="hardAlpha" operator="arithmetic" k2="-1" k3="1"/>
<feColorMatrix type="matrix" values="0 0 0 0 0 0 0 0 0 0 0 0 0 0 0 0 0 0 0.25 0"/>
<feBlend mode="normal" in2="shape" result="effect2_innerShadow_60_548"/>
<feColorMatrix in="SourceAlpha" type="matrix" values="0 0 0 0 0 0 0 0 0 0 0 0 0 0 0 0 0 0 127 0" result="hardAlpha"/>
<feOffset dx="-8" dy="12"/>
<feComposite in2="hardAlpha" operator="arithmetic" k2="-1" k3="1"/>
<feColorMatrix type="matrix" values="0 0 0 0 1 0 0 0 0 1 0 0 0 0 1 0 0 0 0.6 0"/>
<feBlend mode="normal" in2="effect2_innerShadow_60_548" result="effect3_innerShadow_60_548"/>
</filter>
<filter id="filter6_dii_60_548" x="65.2256" y="130.812" width="50.3545" height="49.8749" filterUnits="userSpaceOnUse" color-interpolation-filters="sRGB">
<feFlood flood-opacity="0" result="BackgroundImageFix"/>
<feColorMatrix in="SourceAlpha" type="matrix" values="0 0 0 0 0 0 0 0 0 0 0 0 0 0 0 0 0 0 127 0" result="hardAlpha"/>
<feOffset dx="-4" dy="4"/>
<feComposite in2="hardAlpha" operator="out"/>
<feColorMatrix type="matrix" values="0 0 0 0 0.121569 0 0 0 0 0.12549 0 0 0 0 0.141176 0 0 0 0.25 0"/>
<feBlend mode="normal" in2="BackgroundImageFix" result="effect1_dropShadow_60_548"/>
<feBlend mode="normal" in="SourceGraphic" in2="effect1_dropShadow_60_548" result="shape"/>
<feColorMatrix in="SourceAlpha" type="matrix" values="0 0 0 0 0 0 0 0 0 0 0 0 0 0 0 0 0 0 127 0" result="hardAlpha"/>
<feOffset dx="8" dy="-8"/>
<feComposite in2="hardAlpha" operator="arithmetic" k2="-1" k3="1"/>
<feColorMatrix type="matrix" values="0 0 0 0 0 0 0 0 0 0 0 0 0 0 0 0 0 0 0.25 0"/>
<feBlend mode="normal" in2="shape" result="effect2_innerShadow_60_548"/>
<feColorMatrix in="SourceAlpha" type="matrix" values="0 0 0 0 0 0 0 0 0 0 0 0 0 0 0 0 0 0 127 0" result="hardAlpha"/>
<feOffset dx="-8" dy="12"/>
<feComposite in2="hardAlpha" operator="arithmetic" k2="-1" k3="1"/>
<feColorMatrix type="matrix" values="0 0 0 0 1 0 0 0 0 1 0 0 0 0 1 0 0 0 0.6 0"/>
<feBlend mode="normal" in2="effect2_innerShadow_60_548" result="effect3_innerShadow_60_548"/>
</filter>
<filter id="filter7_dii_60_548" x="18.4766" y="260.528" width="49.8125" height="50.4037" filterUnits="userSpaceOnUse" color-interpolation-filters="sRGB">
<feFlood flood-opacity="0" result="BackgroundImageFix"/>
<feColorMatrix in="SourceAlpha" type="matrix" values="0 0 0 0 0 0 0 0 0 0 0 0 0 0 0 0 0 0 127 0" result="hardAlpha"/>
<feOffset dx="-4" dy="4"/>
<feComposite in2="hardAlpha" operator="out"/>
<feColorMatrix type="matrix" values="0 0 0 0 0.121569 0 0 0 0 0.12549 0 0 0 0 0.141176 0 0 0 0.25 0"/>
<feBlend mode="normal" in2="BackgroundImageFix" result="effect1_dropShadow_60_548"/>
<feBlend mode="normal" in="SourceGraphic" in2="effect1_dropShadow_60_548" result="shape"/>
<feColorMatrix in="SourceAlpha" type="matrix" values="0 0 0 0 0 0 0 0 0 0 0 0 0 0 0 0 0 0 127 0" result="hardAlpha"/>
<feOffset dx="8" dy="-8"/>
<feComposite in2="hardAlpha" operator="arithmetic" k2="-1" k3="1"/>
<feColorMatrix type="matrix" values="0 0 0 0 0 0 0 0 0 0 0 0 0 0 0 0 0 0 0.25 0"/>
<feBlend mode="normal" in2="shape" result="effect2_innerShadow_60_548"/>
<feColorMatrix in="SourceAlpha" type="matrix" values="0 0 0 0 0 0 0 0 0 0 0 0 0 0 0 0 0 0 127 0" result="hardAlpha"/>
<feOffset dx="-8" dy="12"/>
<feComposite in2="hardAlpha" operator="arithmetic" k2="-1" k3="1"/>
<feColorMatrix type="matrix" values="0 0 0 0 1 0 0 0 0 1 0 0 0 0 1 0 0 0 0.6 0"/>
<feBlend mode="normal" in2="effect2_innerShadow_60_548" result="effect3_innerShadow_60_548"/>
</filter>
<filter id="filter8_dii_60_548" x="203" y="23" width="43" height="43" filterUnits="userSpaceOnUse" color-interpolation-filters="sRGB">
<feFlood flood-opacity="0" result="BackgroundImageFix"/>
<feColorMatrix in="SourceAlpha" type="matrix" values="0 0 0 0 0 0 0 0 0 0 0 0 0 0 0 0 0 0 127 0" result="hardAlpha"/>
<feOffset dx="-4" dy="4"/>
<feComposite in2="hardAlpha" operator="out"/>
<feColorMatrix type="matrix" values="0 0 0 0 0.121569 0 0 0 0 0.12549 0 0 0 0 0.141176 0 0 0 0.25 0"/>
<feBlend mode="normal" in2="BackgroundImageFix" result="effect1_dropShadow_60_548"/>
<feBlend mode="normal" in="SourceGraphic" in2="effect1_dropShadow_60_548" result="shape"/>
<feColorMatrix in="SourceAlpha" type="matrix" values="0 0 0 0 0 0 0 0 0 0 0 0 0 0 0 0 0 0 127 0" result="hardAlpha"/>
<feOffset dx="8" dy="-8"/>
<feComposite in2="hardAlpha" operator="arithmetic" k2="-1" k3="1"/>
<feColorMatrix type="matrix" values="0 0 0 0 0 0 0 0 0 0 0 0 0 0 0 0 0 0 0.25 0"/>
<feBlend mode="normal" in2="shape" result="effect2_innerShadow_60_548"/>
<feColorMatrix in="SourceAlpha" type="matrix" values="0 0 0 0 0 0 0 0 0 0 0 0 0 0 0 0 0 0 127 0" result="hardAlpha"/>
<feOffset dx="-8" dy="12"/>
<feComposite in2="hardAlpha" operator="arithmetic" k2="-1" k3="1"/>
<feColorMatrix type="matrix" values="0 0 0 0 1 0 0 0 0 1 0 0 0 0 1 0 0 0 0.6 0"/>
<feBlend mode="normal" in2="effect2_innerShadow_60_548" result="effect3_innerShadow_60_548"/>
</filter>
<filter id="filter9_dii_60_548" x="16.8447" y="60.4448" width="51.2002" height="47" filterUnits="userSpaceOnUse" color-interpolation-filters="sRGB">
<feFlood flood-opacity="0" result="BackgroundImageFix"/>
<feColorMatrix in="SourceAlpha" type="matrix" values="0 0 0 0 0 0 0 0 0 0 0 0 0 0 0 0 0 0 127 0" result="hardAlpha"/>
<feOffset dx="-4" dy="4"/>
<feComposite in2="hardAlpha" operator="out"/>
<feColorMatrix type="matrix" values="0 0 0 0 0.121569 0 0 0 0 0.12549 0 0 0 0 0.141176 0 0 0 0.25 0"/>
<feBlend mode="normal" in2="BackgroundImageFix" result="effect1_dropShadow_60_548"/>
<feBlend mode="normal" in="SourceGraphic" in2="effect1_dropShadow_60_548" result="shape"/>
<feColorMatrix in="SourceAlpha" type="matrix" values="0 0 0 0 0 0 0 0 0 0 0 0 0 0 0 0 0 0 127 0" result="hardAlpha"/>
<feOffset dx="8" dy="-8"/>
<feComposite in2="hardAlpha" operator="arithmetic" k2="-1" k3="1"/>
<feColorMatrix type="matrix" values="0 0 0 0 0 0 0 0 0 0 0 0 0 0 0 0 0 0 0.25 0"/>
<feBlend mode="normal" in2="shape" result="effect2_innerShadow_60_548"/>
<feColorMatrix in="SourceAlpha" type="matrix" values="0 0 0 0 0 0 0 0 0 0 0 0 0 0 0 0 0 0 127 0" result="hardAlpha"/>
<feOffset dx="-8" dy="12"/>
<feComposite in2="hardAlpha" operator="arithmetic" k2="-1" k3="1"/>
<feColorMatrix type="matrix" values="0 0 0 0 1 0 0 0 0 1 0 0 0 0 1 0 0 0 0.6 0"/>
<feBlend mode="normal" in2="effect2_innerShadow_60_548" result="effect3_innerShadow_60_548"/>
</filter>
<filter id="filter10_ii_60_548" x="1" y="184" width="89" height="64" filterUnits="userSpaceOnUse" color-interpolation-filters="sRGB">
<feFlood flood-opacity="0" result="BackgroundImageFix"/>
<feBlend mode="normal" in="SourceGraphic" in2="BackgroundImageFix" result="shape"/>
<feColorMatrix in="SourceAlpha" type="matrix" values="0 0 0 0 0 0 0 0 0 0 0 0 0 0 0 0 0 0 127 0" result="hardAlpha"/>
<feOffset dy="-16"/>
<feComposite in2="hardAlpha" operator="arithmetic" k2="-1" k3="1"/>
<feColorMatrix type="matrix" values="0 0 0 0 0 0 0 0 0 0 0 0 0 0 0 0 0 0 0.25 0"/>
<feBlend mode="normal" in2="shape" result="effect1_innerShadow_60_548"/>
<feColorMatrix in="SourceAlpha" type="matrix" values="0 0 0 0 0 0 0 0 0 0 0 0 0 0 0 0 0 0 127 0" result="hardAlpha"/>
<feOffset dy="16"/>
<feComposite in2="hardAlpha" operator="arithmetic" k2="-1" k3="1"/>
<feColorMatrix type="matrix" values="0 0 0 0 1 0 0 0 0 1 0 0 0 0 1 0 0 0 0.25 0"/>
<feBlend mode="normal" in2="effect1_innerShadow_60_548" result="effect2_innerShadow_60_548"/>
</filter>
<filter id="filter11_i_60_548" x="58" y="184" width="32" height="64" filterUnits="userSpaceOnUse" color-interpolation-filters="sRGB">
<feFlood flood-opacity="0" result="BackgroundImageFix"/>
<feBlend mode="normal" in="SourceGraphic" in2="BackgroundImageFix" result="shape"/>
<feColorMatrix in="SourceAlpha" type="matrix" values="0 0 0 0 0 0 0 0 0 0 0 0 0 0 0 0 0 0 127 0" result="hardAlpha"/>
<feOffset dx="-24" dy="8"/>
<feComposite in2="hardAlpha" operator="arithmetic" k2="-1" k3="1"/>
<feColorMatrix type="matrix" values="0 0 0 0 1 0 0 0 0 1 0 0 0 0 1 0 0 0 0.25 0"/>
<feBlend mode="normal" in2="shape" result="effect1_innerShadow_60_548"/>
</filter>
<filter id="filter12_dii_60_548" x="264.477" y="57.5282" width="49.8125" height="50.4037" filterUnits="userSpaceOnUse" color-interpolation-filters="sRGB">
<feFlood flood-opacity="0" result="BackgroundImageFix"/>
<feColorMatrix in="SourceAlpha" type="matrix" values="0 0 0 0 0 0 0 0 0 0 0 0 0 0 0 0 0 0 127 0" result="hardAlpha"/>
<feOffset dx="-4" dy="4"/>
<feComposite in2="hardAlpha" operator="out"/>
<feColorMatrix type="matrix" values="0 0 0 0 0.121569 0 0 0 0 0.12549 0 0 0 0 0.141176 0 0 0 0.25 0"/>
<feBlend mode="normal" in2="BackgroundImageFix" result="effect1_dropShadow_60_548"/>
<feBlend mode="normal" in="SourceGraphic" in2="effect1_dropShadow_60_548" result="shape"/>
<feColorMatrix in="SourceAlpha" type="matrix" values="0 0 0 0 0 0 0 0 0 0 0 0 0 0 0 0 0 0 127 0" result="hardAlpha"/>
<feOffset dx="8" dy="-8"/>
<feComposite in2="hardAlpha" operator="arithmetic" k2="-1" k3="1"/>
<feColorMatrix type="matrix" values="0 0 0 0 0 0 0 0 0 0 0 0 0 0 0 0 0 0 0.25 0"/>
<feBlend mode="normal" in2="shape" result="effect2_innerShadow_60_548"/>
<feColorMatrix in="SourceAlpha" type="matrix" values="0 0 0 0 0 0 0 0 0 0 0 0 0 0 0 0 0 0 127 0" result="hardAlpha"/>
<feOffset dx="-8" dy="12"/>
<feComposite in2="hardAlpha" operator="arithmetic" k2="-1" k3="1"/>
<feColorMatrix type="matrix" values="0 0 0 0 1 0 0 0 0 1 0 0 0 0 1 0 0 0 0.6 0"/>
<feBlend mode="normal" in2="effect2_innerShadow_60_548" result="effect3_innerShadow_60_548"/>
</filter>
<filter id="filter13_dii_60_548" x="297" y="140" width="43" height="43" filterUnits="userSpaceOnUse" color-interpolation-filters="sRGB">
<feFlood flood-opacity="0" result="BackgroundImageFix"/>
<feColorMatrix in="SourceAlpha" type="matrix" values="0 0 0 0 0 0 0 0 0 0 0 0 0 0 0 0 0 0 127 0" result="hardAlpha"/>
<feOffset dx="-4" dy="4"/>
<feComposite in2="hardAlpha" operator="out"/>
<feColorMatrix type="matrix" values="0 0 0 0 0.121569 0 0 0 0 0.12549 0 0 0 0 0.141176 0 0 0 0.25 0"/>
<feBlend mode="normal" in2="BackgroundImageFix" result="effect1_dropShadow_60_548"/>
<feBlend mode="normal" in="SourceGraphic" in2="effect1_dropShadow_60_548" result="shape"/>
<feColorMatrix in="SourceAlpha" type="matrix" values="0 0 0 0 0 0 0 0 0 0 0 0 0 0 0 0 0 0 127 0" result="hardAlpha"/>
<feOffset dx="8" dy="-8"/>
<feComposite in2="hardAlpha" operator="arithmetic" k2="-1" k3="1"/>
<feColorMatrix type="matrix" values="0 0 0 0 0 0 0 0 0 0 0 0 0 0 0 0 0 0 0.25 0"/>
<feBlend mode="normal" in2="shape" result="effect2_innerShadow_60_548"/>
<feColorMatrix in="SourceAlpha" type="matrix" values="0 0 0 0 0 0 0 0 0 0 0 0 0 0 0 0 0 0 127 0" result="hardAlpha"/>
<feOffset dx="-8" dy="12"/>
<feComposite in2="hardAlpha" operator="arithmetic" k2="-1" k3="1"/>
<feColorMatrix type="matrix" values="0 0 0 0 1 0 0 0 0 1 0 0 0 0 1 0 0 0 0.6 0"/>
<feBlend mode="normal" in2="effect2_innerShadow_60_548" result="effect3_innerShadow_60_548"/>
</filter>
<clipPath id="clip0_60_548">
<rect width="340" height="340" fill="white"/>
</clipPath>
</defs>
</svg>
